<svg xmlns="http://www.w3.org/2000/svg" viewBox="0 0 557.31 44.63"><defs><style>.cls-1{fill:#dbff00;stroke:#dbff00;stroke-miterlimit:10;stroke-width:0.24px;}</style></defs><title>アセット 15</title><g id="レイヤー_2" data-name="レイヤー 2"><g id="文字"><path class="cls-1" d="M.12,4.34H41.53V8.39H22.85V13h9.06V34H9.6V13h8.88V8.39H.12ZM35.91,37.51V12.39l5.34.33c0,.36-.37.64-1.1.73v31H35.91V41.65H5.83v2.86H1.59V12.39l5.29.33c0,.36-.32.64-1,.73V37.51ZM13.28,16.63v5.1h5.47v-5.1Zm0,8.55v5.2h5.47v-5.2Zm14.81-3.45v-5.1H22.57v5.1Zm0,8.65v-5.2H22.57v5.2Z"/><path class="cls-1" d="M96.86,8.53h-19c-.32,1.52-.83,3.36-1.38,5.06H94.89V44.51H90.47V42.07H61.85v2.44H57.62V13.59H72c.41-1.56.78-3.36,1.1-5.06H55.37V4.39H96.86Zm-35,9.06V38h6.31V17.59ZM79.61,22V17.59h-7.5V22Zm0,8V25.46h-7.5v4.46Zm-7.5,3.5V38h7.5v-4.6ZM90.47,38V17.59h-6.9V38Z"/><path class="cls-1" d="M148.89,22.24a.66.66,0,0,1-.28,0,1.54,1.54,0,0,1-.78-.23c-3.45,1.06-8.23,2.72-11.87,4.19.09,1,.14,2.16.14,3.45s0,2.62-.14,4.14l-4.64.32A48.23,48.23,0,0,0,131.5,28c-4.33,2.16-7.73,4.83-7.73,7.08s2.85,3.41,8.6,3.41A101.79,101.79,0,0,0,143.88,38l0,4.28c-2.58.28-6.58.37-11.59.37-8.83,0-13-2-13-7.27,0-3.86,5.06-7.91,11.73-11.32-.23-2.07-1.15-3.4-2.76-3.4-3.22,0-6.58,1.75-10.49,6.16-1.2,1.34-2.94,3.13-5,5l-3.17-3.13a53.91,53.91,0,0,0,6.07-6,31.86,31.86,0,0,0,5.06-9.94l-2.12.05c-1.84,0-5.1,0-7.4-.05V8.62c2.71.09,6,.14,7.91.14l2.81,0c.41-2,.78-3.91,1.1-6.34l5.8.64c-.09.46-.51.73-1.11.83-.32,1.65-.69,3.17-1.1,4.69a56.59,56.59,0,0,0,14.86-2.62l.78,4.37c-5.06,1.56-11.73,2.16-16.84,2.34a26.28,26.28,0,0,1-2.76,6.54h.05a11.47,11.47,0,0,1,6.85-2.58c2.86,0,5,2,5.66,5.66,3.73-1.66,8.28-3.36,11.83-4.74Z"/><path class="cls-1" d="M196.91,10V41.1h-4.74V38.66H164.39V34.29h27.78V14.37H164.85V10Zm-5.56-8.74a36.93,36.93,0,0,1,5.79,6.35l-2.2,1.79a36.94,36.94,0,0,0-5.71-6.35Zm6.58-1.1a30.33,30.33,0,0,1,5.79,6.21l-2.21,1.84a33.14,33.14,0,0,0-5.65-6.31Z"/><path class="cls-1" d="M214.76,19.89h38.41v4.6H216.6a1.93,1.93,0,0,1-1.47.83Z"/><path class="cls-1" d="M278.61,9.91c-.05.51-.46.83-1.11.92-.27,12.79-1.42,23.74-8.09,32.16a33.73,33.73,0,0,0-4-2.4c6.44-7.31,7.27-19,7.36-31.1Zm11.87,25.16c6.85-3.54,11.22-10,13.57-17.57A34,34,0,0,0,308.14,20c-3.31,9.39-8.83,16.15-18.58,20.93a3.49,3.49,0,0,1-.92,1.06l-3.45-4.14.64-.83V3.84l5.8.32a1.3,1.3,0,0,1-1.15,1Z"/><path class="cls-1" d="M332.1,4.94c-.09.51-.55.78-1.47.83a112.09,112.09,0,0,0-2.39,20.43,52.19,52.19,0,0,0,.41,7.77c.74-1.79,2.63-6.12,3.23-7.68l2.34,3.17c-1.7,3.91-3.22,6.49-3.86,8.6a7.72,7.72,0,0,0-.37,2.17,5.77,5.77,0,0,0,.23,1.56l-4.56.74c-1.51-4.42-2.07-10-2.07-16.15A144.06,144.06,0,0,1,325.85,4Zm28.44,34c-1.61.09-3.32.14-5,.14a61.92,61.92,0,0,1-8.33-.46c-6-.83-8.64-4.1-8.64-7.92,0-3.22,1.65-6,4.14-9L347,23.25c-2.21,2.21-3.68,4.42-3.68,6.86,0,4.27,5.75,4.55,11,4.55a56.53,56.53,0,0,0,6.3-.32ZM339.37,10a153.65,153.65,0,0,0,19.74-1.75l.46,4.51a158.9,158.9,0,0,1-20.06,1.66Z"/><path class="cls-1" d="M414.36,9.31V39.08c0,5-2.17,5.43-11.32,5.43A16,16,0,0,0,401.57,40c1.93.09,3.95.14,5.43.14,2.66,0,3,0,3-1.15V13.59H380.73V44.46H376.4V9.31h12.65a53.84,53.84,0,0,0,2.9-8l6,1.33c-.14.32-.55.55-1.2.6C396.05,5,395,7.29,394,9.31Zm-10,25.35H390.16V38h-4V19.06h18.21Zm-4-11.78H390.16V30.8h10.17Z"/><path class="cls-1" d="M437.77,5.31c0,.46-.6.78-1.2.87a97.89,97.89,0,0,0-2.44,18.31,49.46,49.46,0,0,0,.37,6.86c.87-1.89,2.76-5.66,4.09-8l2.76,3.31a71.92,71.92,0,0,0-4.83,8.83,5.78,5.78,0,0,0-.46,2.07,7.36,7.36,0,0,0,.28,1.84l-4.51.83a52.19,52.19,0,0,1-2.11-15.55,122.52,122.52,0,0,1,2.11-20.2Zm6,9.94c3,0,8.46-.1,11.59-.33-.28-5.33-.6-11.13-.74-12.28l6.22.18A1.52,1.52,0,0,1,459.53,4c0,2.3.23,6.72.36,10.63a50.46,50.46,0,0,0,8.47-1.38l.37,4.55A72.33,72.33,0,0,1,460.08,19l.05,3.18c0,9.84-2.3,17-11,21.57a25.38,25.38,0,0,0-3.59-3.17c8.19-4,9.94-9.85,9.94-17.67,0-.6,0-3.08-.05-3.72-2.9.23-7.77.32-11.64.32Z"/><path class="cls-1" d="M509.44,40.69A49.92,49.92,0,0,0,497,33.19a12.37,12.37,0,0,1-1.11,5.7c-.6,2.39-3,4.28-8.14,4.28-6.17,0-11.13-3.08-11.23-8,0-5.1,5.11-7.91,10.91-8a35.39,35.39,0,0,1,4.74.32c-.05-1-.19-1.83-.28-2.66-.37-6.08-.87-16.34-.87-22.32l6.16.33c0,.46-.37.87-1.2,1.05l.05,8.24a111.83,111.83,0,0,0,14.54-1.56l.46,4.6a121.57,121.57,0,0,1-14.95,1.28c0,3.32.27,6.21.46,8.84.09.92.23,2,.27,3a55.71,55.71,0,0,1,15.6,8ZM487.31,31c-3.91,0-6.67,1.7-6.63,4,.05,2.76,3.22,4.1,6.67,4.1,2.95,0,5.07-1.34,5.07-3.82,0-1.33,0-2.62-.1-3.68A17.45,17.45,0,0,0,487.31,31Z"/><path class="cls-1" d="M526.55,18.19c7-1.89,15.73-3.82,19.32-3.82,6.62,0,11.41,3.5,11.32,11.09-.1,8.65-6.68,14.67-19.65,18.4a20.38,20.38,0,0,0-3-4c12-2.9,17.62-8.28,17.62-14.17,0-4.1-1.89-6.9-6.54-6.9-3.77,0-10.49,1.56-16.28,3.72,0,.42-.46.93-1,1.15Zm7-15.82a79.09,79.09,0,0,1,18.31,3.35l-1.24,4.56a82.22,82.22,0,0,0-18.22-3.5Z"/></g></g></svg>