<?xml version="1.0" encoding="utf-8"?>
<!-- Generator: Adobe Illustrator 22.0.0, SVG Export Plug-In . SVG Version: 6.00 Build 0)  -->
<svg version="1.1" id="レイヤー_1" xmlns="http://www.w3.org/2000/svg" xmlns:xlink="http://www.w3.org/1999/xlink" x="0px"
	 y="0px" viewBox="0 0 859.9 1522" style="enable-background:new 0 0 859.9 1522;" xml:space="preserve">
<style type="text/css">
	.st0{fill:#E61E2C;}
</style>
<g>
	<path class="st0" d="M594.7,1302.7c-10.7-29.8-21.4-59.6-32.1-89.5l297.3-994.9c-1,3.4-2.2,6.7-3.5,10.1c-0.6,1.6-1.3,3.1-2,4.7
		c-0.1,0.1-0.1,0.3-0.2,0.4c-0.7,1.5-1.4,3-2.1,4.5c-0.1,0.2-0.2,0.3-0.3,0.5c-0.7,1.5-1.5,2.9-2.3,4.4c-0.1,0.1-0.2,0.3-0.2,0.4
		c-0.8,1.5-1.7,3-2.6,4.5c0,0.1-0.1,0.1-0.1,0.2c-26.6,44.2-81,81.3-151.7,107.5c-35,13-74.1,23.3-115.8,30.6
		c-0.8,0.1-1.6,0.3-2.4,0.4c-2.6,0.4-5.2,0.9-7.9,1.3c-1.7,0.3-3.5,0.5-5.2,0.8c-1.6,0.2-3.3,0.5-4.9,0.7c-2.9,0.4-5.7,0.8-8.6,1.2
		c-0.1,0-0.2,0-0.3,0c-21.8,2.9-44.2,5-67.1,6.2c-0.1,0-0.1,0-0.2,0c-3.1,0.2-6.2,0.3-9.3,0.4c-0.9,0-1.8,0.1-2.7,0.1
		c-2.4,0.1-4.7,0.2-7.1,0.2c-1.5,0-3.1,0.1-4.6,0.1c-1.8,0-3.6,0.1-5.4,0.1c-2,0-4.1,0.1-6.1,0.1c-1.4,0-2.7,0-4.1,0
		c-2.4,0-4.8,0-7.2,0c-1.1,0-2.2,0-3.3,0c-2.6,0-5.3,0-7.9-0.1c-0.9,0-1.7,0-2.6,0c-2.8,0-5.6-0.1-8.5-0.2c-0.7,0-1.5,0-2.2-0.1
		c-2.9-0.1-5.9-0.2-8.8-0.3c-0.6,0-1.3-0.1-1.9-0.1c-3-0.1-6.1-0.3-9.1-0.4c-0.6,0-1.1-0.1-1.7-0.1c-3.1-0.2-6.2-0.3-9.4-0.6
		c-0.5,0-1-0.1-1.5-0.1c-3.2-0.2-6.4-0.4-9.7-0.7c-0.4,0-0.8-0.1-1.2-0.1c-3.4-0.3-6.7-0.5-10.1-0.8c-0.2,0-0.5,0-0.7-0.1
		c-3.6-0.3-7.1-0.7-10.7-1C160.4,374.1,25.3,299,0,211.3c96.1,333.3,192.2,666.5,288.3,999.7l-69.2,186.9
		c-22.2,55.6,51.8,110.1,165.2,121.8l0,0c1.8,0.2,3.7,0.4,5.5,0.5c0.6,0.1,1.3,0.1,1.9,0.2c1.2,0.1,2.3,0.2,3.5,0.3
		c1,0.1,2,0.1,3.1,0.2c0.8,0.1,1.5,0.1,2.3,0.2c1.2,0.1,2.4,0.1,3.6,0.2c0.6,0,1.2,0.1,1.7,0.1c1.3,0.1,2.6,0.1,3.9,0.2
		c0.4,0,0.9,0,1.3,0.1c1.4,0.1,2.8,0.1,4.3,0.1c0.3,0,0.6,0,1,0c1.5,0,3,0.1,4.6,0.1c0.2,0,0.4,0,0.6,0c1.6,0,3.3,0,4.9,0
		c0,0,0.1,0,0.1,0c15.6,0,31-0.8,45.8-2.4c45.8-5,86.8-17.5,116-35.4c3.2-2,6.3-4,9.2-6.1c0.2-0.2,0.5-0.3,0.7-0.5
		c0.7-0.5,1.4-1.1,2.2-1.6c0.3-0.2,0.6-0.4,0.9-0.7c0.7-0.5,1.4-1,2-1.6c0.3-0.2,0.6-0.5,0.9-0.7c0.7-0.5,1.3-1.1,2-1.6
		c0.2-0.2,0.3-0.3,0.5-0.5c1.3-1.1,2.6-2.3,3.8-3.4c0.2-0.2,0.4-0.4,0.7-0.6c0.5-0.5,1-1,1.5-1.5c0.3-0.3,0.7-0.7,1-1
		c0.5-0.5,0.9-0.9,1.3-1.4c0.4-0.4,0.7-0.8,1.1-1.2c0.4-0.5,0.8-0.9,1.2-1.4c0.4-0.4,0.7-0.9,1.1-1.3c0.4-0.4,0.7-0.8,1.1-1.3
		c0.5-0.6,0.9-1.1,1.3-1.7c0.4-0.5,0.7-1,1.1-1.5c0.5-0.7,1-1.3,1.4-2c0.2-0.4,0.5-0.7,0.7-1.1c0.4-0.6,0.7-1.1,1.1-1.7
		c0.2-0.4,0.5-0.8,0.7-1.2c0.3-0.6,0.6-1.1,1-1.7c0.2-0.4,0.4-0.7,0.6-1.1c0.3-0.6,0.6-1.2,0.9-1.9c0.2-0.3,0.3-0.6,0.5-1
		c0.4-0.9,0.9-1.9,1.2-2.9c5.1-12.8,5.1-25.5,0.7-37.6C618.6,1369.4,606.6,1336.1,594.7,1302.7z"/>
	<path class="st0" d="M25.4,181.6c0-9.5,2-19.2,5.9-29C67.8,61,268.7-20.3,509.6,4.5c203.5,21,325.2,109.5,325.2,182.8
		c0,9.5-2,19.2-5.9,29c-36.5,91.6-237.4,173-478.4,148.1C147,343.3,25.4,254.9,25.4,181.6L25.4,181.6z"/>
</g>
</svg>
