<?xml version="1.0" encoding="utf-8"?>
<!-- Generator: Adobe Illustrator 22.0.0, SVG Export Plug-In . SVG Version: 6.00 Build 0)  -->
<svg version="1.1" id="レイヤー_1" xmlns="http://www.w3.org/2000/svg" xmlns:xlink="http://www.w3.org/1999/xlink" x="0px"
	 y="0px" viewBox="0 0 691.7 677" style="enable-background:new 0 0 691.7 677;" xml:space="preserve">
<style type="text/css">
	.st0{fill:#FFFFFF;}
	.st1{fill:#E61E2C;}
</style>
<g>
	<g>
		<path class="st0" d="M464.7,540.6c-6.7,0-13.4-1.6-19.6-4.7l-129.7-66c-2.9-1.5-4.1-5.1-2.6-8c1.5-2.9,5.1-4.1,8-2.6l129.8,66
			c7.5,3.8,16,4.5,23.9,1.9c8-2.6,14.4-8.1,18.2-15.6l138.9-273c3.8-7.5,4.5-16,1.9-23.9c-2.6-8-8.1-14.4-15.6-18.2l-142.9-72.7
			c-15.4-7.8-34.3-1.7-42.1,13.7l-99.6,195.9c-1.5,2.9-5.1,4.1-8,2.6c-2.9-1.5-4.1-5.1-2.6-8l99.6-195.9
			c10.8-21.3,36.9-29.7,58.2-18.9l142.9,72.7c10.3,5.2,17.9,14.2,21.5,25.2c3.6,11,2.7,22.7-2.6,33L503.3,517
			c-5.2,10.3-14.2,17.9-25.2,21.5C473.7,539.9,469.2,540.6,464.7,540.6z"/>
		<path class="st0" d="M632.1,256.4c-0.9,0-1.8-0.2-2.7-0.6L420.1,149.3c-2.9-1.5-4.1-5.1-2.6-8c1.5-2.9,5.1-4.1,8-2.6l209.4,106.5
			c2.9,1.5,4.1,5.1,2.6,8C636.4,255.2,634.3,256.4,632.1,256.4z"/>
		<path class="st0" d="M503.8,508.7c-0.9,0-1.8-0.2-2.7-0.7l-175.2-90.2c-2.9-1.5-4.1-5.1-2.6-8c1.5-2.9,5.1-4.1,8-2.6l175.2,90.2
			c2.9,1.5,4.1,5.1,2.6,8C508,507.5,506,508.7,503.8,508.7z"/>
		<path class="st0" d="M397.7,482.8c-0.9,0-1.8-0.2-2.7-0.6l-19.8-10.1c-2.9-1.5-4.1-5.1-2.6-8c1.5-2.9,5.1-4.1,8-2.6l19.8,10.1
			c2.9,1.5,4.1,5.1,2.6,8C402,481.6,399.9,482.8,397.7,482.8z"/>
		<path class="st0" d="M316.1,472.7c-1.4,0-2.8-0.5-3.9-1.5c-2.5-2.1-2.8-5.9-0.6-8.4c0.9-1,19.3-23.7,7.9-68.1
			c-0.8-3.2,1.1-6.4,4.3-7.3c3.2-0.8,6.4,1.1,7.3,4.3c13.1,50.8-9.4,77.7-10.4,78.8C319.4,472,317.7,472.7,316.1,472.7z"/>
		<path class="st0" d="M356.4,564c-2,0-3.9-1-5.1-2.8c-1.7-2.8-0.9-6.5,1.9-8.2l65.2-40.7c2.8-1.8,6.5-0.9,8.2,1.9
			c1.7,2.8,0.9,6.5-1.9,8.2l-65.2,40.7C358.6,563.7,357.5,564,356.4,564z"/>
		<g>
			<path class="st0" d="M439,436.6c-0.8,0-1.7-0.2-2.4-0.6l-53.3-28.1c-1.8-1-2.9-2.9-2.8-4.9c0.1-2,1.4-3.8,3.3-4.5l22.8-8.6
				l40.2-188.5c0.3-1.6,1.4-2.9,2.8-3.6c1.5-0.7,3.2-0.7,4.6,0.1l116.1,59c1.5,0.7,2.5,2.1,2.8,3.7c0.3,1.6-0.2,3.3-1.3,4.4l-62,66
				c0,0,0,0,0,0l-71.5,75.4l5.8,23.6c0.5,2-0.2,4.1-1.8,5.3C441.3,436.2,440.2,436.6,439,436.6z M398.4,404.1l32.9,17.3l-3.8-15.2
				c-0.4-1.7,0.1-3.5,1.3-4.8L559.5,263l-103.9-52.8l-39.4,184.7c-0.4,1.7-1.6,3.2-3.2,3.8L398.4,404.1z M506,327.5L506,327.5
				L506,327.5z"/>
		</g>
		<path class="st0" d="M325.6,398.1c-1.7,0-3.5-0.8-4.6-2.2c-2-2.6-1.6-6.3,0.9-8.4l31.5-25.2c1.8-1.5,4.3-1.7,6.4-0.7l23,11.7
			c19.8,9.8,26.8,4.8,31.4-2.2c2.5-3.8,3.4-7.7,2.6-11.1c-0.7-2.8-2.7-5.1-5.9-6.7L363.1,329c-0.8-0.2-1.2-0.3-1.6-0.4
			c-2.5-0.4-5-0.3-7.3,0.5l-43.9,14c-3.1,1-6.5-0.7-7.5-3.9c-1-3.1,0.7-6.5,3.9-7.5l43.9-14c4.1-1.3,8.5-1.6,12.8-0.9
			c0.8,0.1,1.5,0.3,2.2,0.5c1.2,0.3,1.8,0.5,2.4,0.7c0.1,0,0.8,0.3,0.9,0.3c0.6,0.2,1.1,0.5,1.7,0.7c0.1,0,0.7,0.3,0.8,0.4
			l44.8,23.4c6.1,3.1,10.3,8.2,11.9,14.2c1.7,6.7,0.3,14-4.2,20.7c-14.6,22-38.7,10.1-46.7,6.2l-19.6-10l-28.5,22.8
			C328.2,397.6,326.9,398.1,325.6,398.1z"/>
	</g>
	<g>
		<g>
			<path class="st0" d="M194.8,659.4c0.9,1.7,2,3,3.3,4c1.3,1,2.8,1.4,4.3,1.4c1.6,0,2.9-0.5,4-1.4c1-1,1.6-2.2,1.6-3.7
				c0-1.4-0.3-2.4-0.8-3.1c-0.6-0.7-1.4-1.4-2.5-2l-10-5.3c-2.8-1.5-5.1-3.7-6.8-6.4c-1.7-2.7-2.5-5.7-2.5-8.9
				c0-2.4,0.5-4.7,1.4-6.8c0.9-2.1,2.2-4,3.8-5.5c1.6-1.6,3.5-2.8,5.6-3.7c2.1-0.9,4.4-1.4,6.9-1.4c4.1,0,7.9,1.2,11.3,3.5
				c3.5,2.3,6,5.3,7.6,8.8l-11.1,5.3c-0.8-1.6-1.9-2.9-3.2-3.9c-1.3-1-2.9-1.4-4.6-1.4c-1.5,0-2.8,0.5-3.9,1.5
				c-1.1,1-1.6,2.2-1.6,3.6c0,1,0.3,1.9,0.8,2.8c0.6,0.9,1.5,1.7,2.8,2.4l10,5.3c2.5,1.3,4.6,3.2,6.4,5.6c1.8,2.5,2.7,5.7,2.7,9.7
				c0,2.4-0.5,4.7-1.4,6.8c-0.9,2.1-2.2,4-3.8,5.5c-1.6,1.6-3.5,2.8-5.6,3.7c-2.1,0.9-4.4,1.4-6.9,1.4c-4.1,0-7.9-1.1-11.3-3.4
				c-3.4-2.3-6-5.2-7.7-8.9L194.8,659.4z"/>
			<path class="st0" d="M253.1,592.5v28.3c3.1-2.6,7-3.9,11.6-3.9c3.1,0,6,0.6,8.6,1.7c2.6,1.1,4.9,2.7,6.8,4.8
				c1.9,2,3.4,4.5,4.5,7.2c1.1,2.8,1.6,5.8,1.6,9v36.8H274v-36.8c0-2.9-1-5.4-3.1-7.4c-2-2-4.5-3.1-7.4-3.1c-2.9,0-5.4,1-7.4,3.1
				c-2,2-3.1,4.5-3.1,7.4v36.8h-12.3v-83.9H253.1z"/>
			<path class="st0" d="M337.8,639.2c0-2.9-1-5.4-3.1-7.5c-2-2.1-4.5-3.1-7.4-3.1c-2.1,0-4,0.6-5.8,1.7c-1.8,1.2-3.1,2.8-4,4.9
				l-11.2-4.7c1.8-4.4,4.6-7.9,8.4-10.4c3.7-2.5,7.9-3.7,12.6-3.7c3.1,0,6.1,0.6,8.8,1.8c2.7,1.2,5.1,2.8,7.2,4.9
				c2,2,3.7,4.5,4.9,7.2c1.2,2.8,1.8,5.7,1.8,8.9v37.3h-12.2v-3.9c-2.7,2.6-6.2,3.9-10.7,3.9H322c-2.4,0-4.7-0.5-6.8-1.4
				c-2.1-0.9-4-2.2-5.5-3.7c-1.6-1.6-2.8-3.4-3.7-5.5c-0.9-2.1-1.4-4.4-1.4-6.8c0-2.5,0.5-4.8,1.4-7c1-2.2,2.2-4,3.9-5.5
				c1.6-1.5,3.5-2.7,5.5-3.6c2.1-0.9,4.3-1.3,6.6-1.3h15.8V639.2z M322,653.6c-1.4,0-2.7,0.5-3.7,1.5c-1,1-1.5,2.3-1.5,3.8
				c0,1.4,0.5,2.7,1.5,3.7c1,1,2.2,1.5,3.7,1.5h5.1c2.9,0,5.4-0.9,7.5-2.8c2.1-1.9,3.2-4.2,3.2-6.9v-0.7H322z"/>
			<path class="st0" d="M418.6,676.4h-14L390,649.3l-8.2,9.6v17.5h-12.3v-83.9h12.3v51.1l22.8-26.6h13.3l-20,23.3L418.6,676.4z"/>
			<path class="st0" d="M444.3,654.2c0,1.4,0.3,2.8,0.8,4.1c0.6,1.3,1.3,2.4,2.2,3.3c0.9,0.9,2,1.7,3.3,2.2c1.2,0.6,2.6,0.8,4,0.8
				c2.9,0,5.5-1.1,7.8-3.3l8.6,8.6c-2.2,2.3-4.7,4.1-7.5,5.2c-2.8,1.2-5.8,1.7-8.9,1.7c-3.1,0-6.1-0.6-8.9-1.8
				c-2.8-1.2-5.2-2.8-7.2-4.9c-2-2-3.7-4.5-4.8-7.2c-1.2-2.8-1.7-5.7-1.7-8.9v-15.1c0-3.1,0.6-6.1,1.8-8.9c1.2-2.8,2.8-5.2,4.9-7.2
				c2-2,4.5-3.7,7.2-4.9c2.8-1.2,5.7-1.8,8.9-1.8c3.1,0,6.1,0.6,8.8,1.8c2.7,1.2,5.1,2.8,7.2,4.9c2,2,3.7,4.5,4.9,7.2
				c1.2,2.8,1.8,5.7,1.8,8.9v12.2h-33.2V654.2z M465.2,639.2c-0.2-3.1-1.2-5.6-3.2-7.6c-2-2-4.4-3-7.3-3c-2.9,0-5.4,1-7.4,3.1
				c-2,2-3.1,4.6-3.1,7.5H465.2z"/>
		</g>
	</g>
	<path class="st0" d="M37.9,98.3c-3.3,0-5.9-2.6-5.9-5.9c0-32,26.1-58.1,58.1-58.1c3.3,0,5.9,2.6,5.9,5.9s-2.6,5.9-5.9,5.9
		c-25.5,0-46.3,20.8-46.3,46.3C43.8,95.7,41.2,98.3,37.9,98.3z"/>
	<path class="st0" d="M5.9,81.4c-3.3,0-5.9-2.6-5.9-5.9C0,33.9,33.9,0,75.5,0c3.3,0,5.9,2.6,5.9,5.9c0,3.3-2.6,5.9-5.9,5.9
		c-35.1,0-63.7,28.6-63.7,63.7C11.8,78.8,9.2,81.4,5.9,81.4z"/>
	<g>
		<path class="st0" d="M618.5,477.7c-2,0-3.9-1-5-2.8c-1.7-2.8-0.8-6.4,1.9-8.1c21.8-13.4,28.6-41.9,15.2-63.7
			c-1.7-2.8-0.8-6.4,1.9-8.1c2.8-1.7,6.4-0.8,8.1,1.9c16.8,27.3,8.2,63.1-19.1,79.9C620.6,477.4,619.5,477.7,618.5,477.7z"/>
	</g>
	<g>
		<path class="st0" d="M652.6,497c-2,0-3.9-1-5-2.8c-1.7-2.8-0.8-6.4,1.9-8.1c14.5-8.9,24.7-22.9,28.7-39.5
			c4-16.5,1.2-33.7-7.7-48.2c-1.7-2.8-0.8-6.4,1.9-8.1c2.8-1.7,6.4-0.8,8.1,1.9c10.6,17.2,13.8,37.5,9.1,57.1
			c-4.7,19.6-16.7,36.2-33.9,46.8C654.7,496.7,653.6,497,652.6,497z"/>
	</g>
	<path class="st1" d="M128.9,318.4V98.6c0-20.6,16.7-37.3,37.3-37.3h160.3c20.6,0,37.3,16.7,37.3,37.3v306.3
		c0,20.6-16.7,37.3-37.3,37.3H180.9"/>
	<path class="st0" d="M326.5,448.2H180.9c-3.3,0-5.9-2.7-5.9-6c0-3.3,2.7-6,5.9-6h145.6c17.3,0,31.3-14.1,31.3-31.3V98.6
		c0-17.3-14.1-31.3-31.3-31.3H166.2c-17.3,0-31.4,14.1-31.4,31.3v219.7c0,3.3-2.7,6-5.9,6c-3.3,0-5.9-2.7-5.9-6V98.6
		c0-23.8,19.4-43.2,43.2-43.2h160.3c23.8,0,43.2,19.4,43.2,43.2v306.3C369.8,428.8,350.4,448.2,326.5,448.2z"/>
	<line class="st1" x1="363.8" y1="108.9" x2="128.9" y2="108.9"/>
	<path class="st0" d="M363.8,114.9H128.9c-3.3,0-5.9-2.7-5.9-6c0-3.3,2.7-6,5.9-6h234.9c3.3,0,5.9,2.7,5.9,6
		C369.8,112.2,367.1,114.9,363.8,114.9z"/>
	<g>
		<line class="st1" x1="363.8" y1="392" x2="166.7" y2="391"/>
		<path class="st0" d="M363.8,398C363.8,398,363.8,398,363.8,398l-197.1-1c-3.3,0-5.9-2.7-5.9-6c0-3.3,2.7-5.9,5.9-5.9c0,0,0,0,0,0
			l197.1,1c3.3,0,5.9,2.7,5.9,6C369.7,395.3,367.1,398,363.8,398z"/>
	</g>
	<g>
		<line class="st1" x1="257.5" y1="417" x2="235.3" y2="417"/>
		<path class="st0" d="M257.5,423h-22.2c-3.3,0-5.9-2.7-5.9-6c0-3.3,2.7-6,5.9-6h22.2c3.3,0,5.9,2.7,5.9,6
			C263.4,420.3,260.8,423,257.5,423z"/>
	</g>
	<path class="st0" d="M180.1,450.9c-0.5,0-1-0.1-1.4-0.2c-3.2-0.8-5.1-4-4.4-7.2c0.3-1.3,6.5-29.9-23.8-64.2
		c-2.2-2.5-1.9-6.2,0.5-8.4c2.5-2.2,6.2-1.9,8.4,0.5c34.8,39.3,26.8,73.5,26.5,74.9C185.2,449.1,182.8,450.9,180.1,450.9z"/>
	<g>
		<line class="st1" x1="257.5" y1="508.1" x2="297.2" y2="442.2"/>
		<path class="st0" d="M257.5,514c-1,0-2.1-0.3-3.1-0.9c-2.8-1.7-3.7-5.4-2-8.2l39.7-65.9c1.7-2.8,5.3-3.7,8.2-2
			c2.8,1.7,3.7,5.4,2,8.2l-39.7,65.9C261.5,513,259.5,514,257.5,514z"/>
	</g>
	<path class="st0" d="M273.7,362.9C273.7,362.9,273.7,362.9,273.7,362.9l-60.3-0.9c-2,0-3.9-1.3-4.7-3.1c-0.8-1.9-0.4-4.1,0.9-5.6
		l16.4-18l-49.6-186.2c-0.4-1.6-0.1-3.2,0.9-4.5c1-1.3,2.5-2,4.1-2h130.2c1.6,0,3.2,0.8,4.1,2.1c1,1.3,1.3,3,0.8,4.6l-25.4,87
		c0,0,0,0,0,0l-29.6,99.6l15.9,18.4c1.3,1.5,1.6,3.7,0.8,5.6C277.6,361.7,275.7,362.9,273.7,362.9z M225.1,351.8l37.1,0.5L252,340.5
		c-1.2-1.3-1.6-3.2-1.1-4.9l30.4-102.3l23.4-80.3H188.2l48.6,182.5c0.5,1.7,0,3.5-1.2,4.8L225.1,351.8z M286.3,234.8L286.3,234.8
		L286.3,234.8z"/>
	<path class="st0" d="M149.8,384.1c-0.8,0-1.7-0.2-2.5-0.5c-3-1.4-4.3-4.9-3-7.9L161,339c1-2.1,3.1-3.5,5.4-3.5h25.8
		c22.1-0.3,26.1-7.9,27-16.2c0.5-4.5-0.4-8.5-2.7-11c-1.9-2.2-4.7-3.3-8.3-3.3l-50.6-0.5l-3,0.3c-0.7,0.2-1.1,0.3-1.5,0.4
		c-2.5,0.8-4.5,2-6.3,3.7L114,341.3c-2.3,2.3-6.1,2.3-8.4-0.1c-2.3-2.3-2.3-6.1,0.1-8.4l32.8-32.3c3.1-3.1,6.8-5.3,11-6.6
		c0.8-0.3,1.5-0.4,2.2-0.6c1.3-0.3,1.9-0.4,2.5-0.4c0.1,0,0.8-0.1,0.9-0.1c0.6-0.1,1.1-0.1,1.7-0.1c0.1,0,0.9,0,1,0l50.6,0.5
		c6.8,0,12.9,2.6,17.1,7.3c4.6,5.1,6.6,12.3,5.7,20.3c-3.1,26.3-29.9,26.6-38.8,26.7h-22l-15.1,33.2
		C154.2,382.8,152,384.1,149.8,384.1z"/>
</g>
</svg>
