<?xml version="1.0" encoding="utf-8"?>
<!-- Generator: Adobe Illustrator 22.0.0, SVG Export Plug-In . SVG Version: 6.00 Build 0)  -->
<svg version="1.1" id="レイヤー_1" xmlns="http://www.w3.org/2000/svg" xmlns:xlink="http://www.w3.org/1999/xlink" x="0px"
	 y="0px" viewBox="0 0 782 438.5" style="enable-background:new 0 0 782 438.5;" xml:space="preserve">
<style type="text/css">
	.st0{fill:#FFFFFF;}
</style>
<g>
	<g>
		<path class="st0" d="M0,0h66.5C77.6,0,86.1,3.7,92,11c5.9,7.3,8.9,16.4,8.9,27.2c0,9.1-2.1,16.8-6.4,23.3
			c-2.8,4.3-7,7.7-12.4,10.3c8.3,2.6,14.3,7.2,18.2,13.6c3.9,6.4,5.8,14.6,5.8,24.3c0,7.9-1.4,15.1-4.2,21.4
			c-2.8,6.3-6.6,11.4-11.4,15.1c-3,2.3-7.5,4-13.5,5c-8,1.4-13.3,2.1-15.9,2.1H0V0z M35.8,60.1h15.5c5.5,0,9.4-1.3,11.6-3.8
			c2.2-2.5,3.3-6.2,3.3-11c0-4.5-1.1-7.9-3.3-10.5c-2.2-2.5-5.9-3.8-11.3-3.8H35.8V60.1z M35.8,120.4H54c6.1,0,10.4-1.4,12.9-4.3
			c2.5-2.9,3.8-6.8,3.8-11.7c0-4.5-1.2-8.2-3.7-10.9c-2.5-2.8-6.8-4.1-13.1-4.1h-18V120.4z"/>
		<path class="st0" d="M206.1,0h35.5v91.3c0,9.1-1.1,17.6-3.2,25.7c-2.1,8-5.4,15.1-10,21.1c-4.5,6-9.3,10.3-14.2,12.7
			c-6.9,3.4-15.2,5.1-24.9,5.1c-5.6,0-11.7-0.5-18.3-1.6c-6.6-1.1-12.1-3.1-16.6-6.2c-4.4-3.1-8.5-7.5-12.2-13.2
			c-3.7-5.7-6.2-11.6-7.6-17.7c-2.2-9.8-3.3-18.4-3.3-25.9V0h35.5v93.5c0,8.4,1.7,14.9,5.2,19.6c3.5,4.7,8.3,7.1,14.5,7.1
			c6.1,0,10.9-2.3,14.4-6.9c3.5-4.6,5.2-11.2,5.2-19.7V0z"/>
		<path class="st0" d="M271.8,0h100.5v30.6l-64.5,89.7h66.9v32.9H265.6v-31.8l63.9-88.8h-57.7V0z"/>
		<path class="st0" d="M407.1,0h100.5v30.6l-64.5,89.7H510v32.9H400.9v-31.8l63.9-88.8h-57.7V0z"/>
		<path class="st0" d="M538.8,0H634v32.7h-59.6v24.4h55.3v31.3h-55.3v30.2h61.3v34.7h-96.9V0z"/>
		<path class="st0" d="M668.2,153.3V0h59.2c11,0,19.4,1.3,25.2,3.8c5.8,2.5,10.5,7.2,14,14c3.6,6.8,5.3,15.1,5.3,24.8
			c0,8.5-1.4,15.8-4.1,22c-2.7,6.2-6.5,11.2-11.2,15c-3,2.4-7.2,4.5-12.5,6.1c4.2,1.9,7.3,3.8,9.2,5.7c1.3,1.3,3.2,3.9,5.7,8.1
			c2.5,4.1,4.1,7.3,5,9.5l17.2,44.4h-40.1l-19-46.8c-2.4-6.1-4.5-10-6.4-11.8c-2.6-2.4-5.5-3.6-8.7-3.6h-3.1v62.2H668.2z
			 M703.8,62.1h15c1.6,0,4.8-0.7,9.4-2.1c2.4-0.6,4.3-2.2,5.8-4.8c1.5-2.6,2.2-5.5,2.2-8.9c0-4.9-1.2-8.7-3.5-11.4
			c-2.4-2.6-6.8-4-13.3-4h-15.6V62.1z"/>
		<path class="st0" d="M0,285.2h66.5c11.1,0,19.6,3.7,25.5,11c5.9,7.3,8.9,16.4,8.9,27.2c0,9.1-2.1,16.8-6.4,23.3
			c-2.8,4.3-7,7.7-12.4,10.3c8.3,2.6,14.3,7.2,18.2,13.6c3.9,6.4,5.8,14.6,5.8,24.3c0,7.9-1.4,15.1-4.2,21.4
			c-2.8,6.3-6.6,11.4-11.4,15.1c-3,2.3-7.5,4-13.5,5c-8,1.4-13.3,2.1-15.9,2.1H0V285.2z M35.8,345.3h15.5c5.5,0,9.4-1.3,11.6-3.8
			c2.2-2.5,3.3-6.2,3.3-11c0-4.5-1.1-7.9-3.3-10.5c-2.2-2.5-5.9-3.8-11.3-3.8H35.8V345.3z M35.8,405.6H54c6.1,0,10.4-1.4,12.9-4.3
			c2.5-2.9,3.8-6.8,3.8-11.7c0-4.5-1.2-8.2-3.7-10.9c-2.5-2.8-6.8-4.1-13.1-4.1h-18V405.6z"/>
		<path class="st0" d="M137.6,285.2h95.2v32.7h-59.6v24.4h55.3v31.3h-55.3v30.2h61.3v34.7h-96.9V285.2z"/>
		<path class="st0" d="M343.7,413.2h-40.3l-5.6,25.3h-36.3l43.2-153.3h38.8l43.2,153.3h-37.2L343.7,413.2z M336.3,380.1l-12.7-55.1
			l-12.6,55.1H336.3z"/>
		<path class="st0" d="M396.3,285.2h108v37.8H468v115.4h-35.5V323.1h-36.2V285.2z"/>
		<path class="st0" d="M539.5,285.2h95.2v32.7h-59.6v24.4h55.3v31.3h-55.3v30.2h61.3v34.7h-96.9V285.2z"/>
		<path class="st0" d="M668.9,438.5V285.2h59.2c11,0,19.4,1.3,25.2,3.8c5.8,2.5,10.5,7.2,14,14c3.6,6.8,5.3,15.1,5.3,24.8
			c0,8.5-1.4,15.8-4.1,22c-2.7,6.2-6.5,11.2-11.2,15c-3,2.4-7.2,4.5-12.5,6.1c4.2,1.9,7.3,3.8,9.2,5.7c1.3,1.3,3.2,3.9,5.7,8.1
			c2.5,4.1,4.1,7.3,5,9.5l17.2,44.4h-40.1l-19-46.8c-2.4-6.1-4.5-10-6.4-11.8c-2.6-2.4-5.5-3.6-8.7-3.6h-3.1v62.2H668.9z
			 M704.6,347.3h15c1.6,0,4.8-0.7,9.4-2.1c2.4-0.6,4.3-2.2,5.8-4.8c1.5-2.6,2.2-5.5,2.2-8.9c0-4.9-1.2-8.7-3.5-11.4
			c-2.4-2.6-6.8-4-13.3-4h-15.6V347.3z"/>
	</g>
	<g>
		<rect y="210.7" class="st0" width="781.3" height="23.7"/>
	</g>
</g>
</svg>
