<svg xmlns="http://www.w3.org/2000/svg" viewBox="0 0 657.9 126.09"><defs><style>.cls-1{fill:aqua;}.cls-2{fill:#dbff00;stroke:#dbff00;stroke-miterlimit:10;stroke-width:0.24px;}</style></defs><title>アセット 16</title><g id="レイヤー_2" data-name="レイヤー 2"><g id="文字"><path class="cls-1" d="M79.84,40.72c0,22.45-17.91,40.72-39.92,40.72S0,63.17,0,40.72,17.91,0,39.92,0C62.1,0,79.84,18.45,79.84,40.72ZM36,63.6H46.66V18.1H37.53l-12,5.57L27.29,32l8.62-4H36Z"/><path class="cls-2" d="M169.87,16.21a1.24,1.24,0,0,1-.75.75A65.48,65.48,0,0,1,162,33.06c1.95,1.15,4.35,2.65,5.95,3.85l-2.85,4.75a72.18,72.18,0,0,0-6.1-4.15,47.74,47.74,0,0,1-17.4,14.25,15.51,15.51,0,0,0-3.9-3.75,46.65,46.65,0,0,0,17-13.1,64.41,64.41,0,0,0-9.75-4.7l2.75-3.9a77.12,77.12,0,0,1,9.9,4.4,47,47,0,0,0,5.35-11.45H147.57a53.2,53.2,0,0,1-11.15,13.15,29,29,0,0,0-4-3.15c6.8-5.05,12.5-13.65,15.5-22.1l6.45,1.5c-.2.5-.7.7-1.5.7-.6,1.5-1.65,3.65-2.5,5.3h14.9l.9-.25Z"/><path class="cls-2" d="M224.37,11.56a1.5,1.5,0,0,1-1.1.45,1.88,1.88,0,0,1-.5,0A123.62,123.62,0,0,1,209,23.61c.45.2,1.05.45,1.35.55a1.37,1.37,0,0,1-1.2.85v26.4h-5.25V26.86a148,148,0,0,1-17.75,10.25,22.15,22.15,0,0,0-3-3.85c13.35-6,28.3-16.55,36.15-25.5Z"/><path class="cls-2" d="M240.92,38.76c10.7,1.25,23.2,4,31.35,7.05l-2.15,5c-7.25-3-20.3-6.15-31.05-7.5Zm3.9-30.1c8.5.85,19.7,3,26.4,5.45l-2.05,4.95c-7-2.7-17.55-4.75-26.05-5.75Zm0,15.15a126.24,126.24,0,0,1,24,4.85l-1.65,4.95a117.7,117.7,0,0,0-24-5.15Z"/><path class="cls-2" d="M291.77,11.26a61.75,61.75,0,0,1,14.75,6.65l-2.6,4.5c-3.6-2.5-9.55-5.15-14.5-6.9Zm-.95,34.2c17.25-5.3,28.95-15.2,34.85-29a33.32,33.32,0,0,0,4.6,2.9c-6.2,13.65-18.3,24.35-35,30.1a1.6,1.6,0,0,1-.8,1.2Z"/><path class="cls-2" d="M377.32,18.16c-.15.35-.6.6-.9.8-5.6,16.9-13.6,26.4-26.75,33.05a18.55,18.55,0,0,0-3.65-3.8c12.3-5.9,19.9-14.6,24-27.4h-15.8a49.41,49.41,0,0,1-10.65,11.6,27.06,27.06,0,0,0-4.05-3.15c6.7-4.8,12.5-13,15.7-21.8l6.4,1.6a1.54,1.54,0,0,1-1.55.8c-.9,2-2.1,4.45-3.05,6.25h15.5l.75-.35Zm-6.95-12a39.15,39.15,0,0,1,6.5,6.75l-2.4,2.05a36.61,36.61,0,0,0-6.3-6.8ZM378,4.71a37.1,37.1,0,0,1,6.45,6.75L382,13.41a38.4,38.4,0,0,0-6.2-6.75Z"/><path class="cls-2" d="M438.82,28.76a.63.63,0,0,1-.3,0,1.69,1.69,0,0,1-.85-.25c-3.75,1.15-8.95,3-12.9,4.55q.15,1.65.15,3.75t-.15,4.5l-5,.35a51.44,51.44,0,0,0,.2-6.65c-4.7,2.35-8.4,5.25-8.4,7.7s3.1,3.7,9.35,3.7a111.19,111.19,0,0,0,12.5-.6l.05,4.65c-2.8.3-7.15.4-12.6.4-9.6,0-14.15-2.2-14.15-7.9,0-4.2,5.5-8.6,12.75-12.3-.25-2.25-1.25-3.7-3-3.7-3.5,0-7.15,1.9-11.4,6.7-1.3,1.45-3.2,3.4-5.4,5.45l-3.45-3.4a58.27,58.27,0,0,0,6.6-6.5,34.45,34.45,0,0,0,5.5-10.8l-2.3.05c-2,0-5.55,0-8.05-.05V14c2.95.1,6.5.15,8.6.15l3.05,0c.45-2.15.85-4.25,1.2-6.9l6.3.7c-.1.5-.55.8-1.2.9-.35,1.8-.75,3.45-1.2,5.1A61.41,61.41,0,0,0,430.82,11l.85,4.75c-5.5,1.7-12.75,2.35-18.3,2.55a28.69,28.69,0,0,1-3,7.1h.05a12.47,12.47,0,0,1,7.45-2.8c3.1,0,5.45,2.2,6.15,6.15,4.05-1.8,9-3.65,12.85-5.15Z"/><path class="cls-2" d="M460,23.21a70.72,70.72,0,0,1-8.2,5.2,25.14,25.14,0,0,0-2.9-3.75c8.75-4.4,17.2-12.15,21.1-18.6l6.55.4a1.38,1.38,0,0,1-1.2.9c4.9,6.6,13.7,13.25,21.4,16.6a23.74,23.74,0,0,0-3.1,4.25,67.63,67.63,0,0,1-8.25-5.15v3.7H460ZM457.07,53V32.51h31.4V53h-4.85V51h-21.9v2Zm27.55-30.5a59.13,59.13,0,0,1-12.15-11.65,55.31,55.31,0,0,1-11.6,11.65Zm-1,14.25h-21.9v10h21.9Z"/><path class="cls-2" d="M516.22,11.76c0-1.4.1-3.2.1-4.35l6.5.55c-.1.55-.5.85-1.4,1-.25,2.3-.3,4.55-.45,6.6.55.2,1.15.5,2.15.9a46.76,46.76,0,0,0-2.45,6.2,14.92,14.92,0,0,1-.2,1.65c5.15-3.7,10.6-5.6,15.35-5.6,8.55,0,13.65,5.8,13.65,14.6,0,10.75-8.3,15.5-21.45,16.7a25.93,25.93,0,0,0-1.8-4.45c11.75-1.2,18.2-4.35,18.2-12.15,0-5.5-2.85-10-9-10-4.75,0-10.1,2.1-15,6.25,0,6.8,0,16.1,0,21.9h-4.8V32.66a44.46,44.46,0,0,1-8.55,10.05l-2.35-4.3a57.72,57.72,0,0,0,7.75-8.3,39.11,39.11,0,0,0,3.25-5.45l.15-3.75a70.1,70.1,0,0,1-9.45.85l-.2-4.75a55.52,55.52,0,0,0,9.85-.75Z"/><path class="cls-2" d="M594.67,26.11c0,7.15,0,13.7-6.8,13.7a18.07,18.07,0,0,1-7.55-2.05,23.49,23.49,0,0,0,.65-4.1,14.66,14.66,0,0,0,5.9,1.8,2.59,2.59,0,0,0,2.55-2.1,52.1,52.1,0,0,0,.35-8.35c-5.2.85-10.5,1.7-14.55,2.45,0,15.2,0,18.4,8.2,18.7.75.05,1.65.05,2.65.05a88.68,88.68,0,0,0,13.3-.9l.1,4.7a117.2,117.2,0,0,1-12.75.6c-7.85,0-15.1-.25-16.05-11.2-.2-2.6-.3-6.7-.4-11.1-3,.6-7,1.35-9.3,1.85l-.75-4.7c2.45-.35,6.55-1.05,10-1.65-.05-4.35-.15-9.1-.15-12.65l6.6.55c-.1.6-.5.9-1.4,1.1,0,2.7,0,6.6,0,10.15l14.45-2.45c-.15-4.2-.35-9-.65-12.8l6.3.3c0,.5-.35.75-1.1,1,.15,3.2.25,7.15.35,10.65,3.75-.55,7.45-1.15,10.2-1.55l.4,4.8c-2.8.3-6.55.8-10.5,1.35Z"/><path class="cls-2" d="M616.67,12.51c1.5,0,3.65,0,5.05-.15,5.1-.4,28.5-1.95,36-2.15l0,5.3c-4.1-.15-6.75.15-10.6,2.75-6.45,4.1-13.45,11.55-13.45,17.6,0,6.3,4.95,10,16.6,11.4l-2.4,5c-14.25-1.85-19.65-7.55-19.65-16.3,0-6.55,6.25-14.8,14.5-20.25-5.5.3-18.95,1.45-24.4,2a1.92,1.92,0,0,1-1.2.8Z"/><path class="cls-2" d="M167,86a1.49,1.49,0,0,1-.85.7,77.64,77.64,0,0,1-9.65,16.85A190.19,190.19,0,0,1,174,119.71l-4.4,3.8a154,154,0,0,0-16.3-16.05c-4.55,5.35-11.6,12.05-18.45,16.05a29.11,29.11,0,0,0-3.65-3.85c13.05-7.1,23.6-20.15,28.15-30.8h-23.5V84.11h26.25l.9-.3Z"/><path class="cls-2" d="M229.22,89.26a1.32,1.32,0,0,1-.9.7c-4.45,6.6-12.1,14.05-19.3,19.4a92.27,92.27,0,0,1,9.5,8.85l-4.35,3.8a102.44,102.44,0,0,0-22.7-18.6l3.45-3.6a97.85,97.85,0,0,1,10.15,6.65c6-4.35,12-10.1,15.4-15h-34.4V86.71h38.25l.75-.4Z"/><path class="cls-2" d="M254.32,103a41.9,41.9,0,0,1-9,14.65l-4.15-2.6a35.36,35.36,0,0,0,8.7-13.75Zm10.8-7.5v22.1c0,6.55-4.8,6.55-12.5,6.55a26,26,0,0,0-1.45-4.65c1.5,0,3.35.1,4.8.1,3.1,0,4.1,0,4.1-1.9V95.51H243.72V90.76h16.35V80.91l6.4.35c-.1.5-.45.95-1.35,1v8.45h16.3v4.75Zm8.95,5.45a94.36,94.36,0,0,1,10.1,14.15l-4.5,2.6A85.29,85.29,0,0,0,270,103.06Z"/><path class="cls-2" d="M340.82,101.76a.63.63,0,0,1-.3,0,1.69,1.69,0,0,1-.85-.25c-3.75,1.15-8.95,3-12.9,4.55q.15,1.65.15,3.75t-.15,4.5l-5,.35a51.44,51.44,0,0,0,.2-6.65c-4.7,2.35-8.4,5.25-8.4,7.7s3.1,3.7,9.35,3.7a111.19,111.19,0,0,0,12.5-.6l.05,4.65c-2.8.3-7.15.4-12.6.4-9.6,0-14.15-2.2-14.15-7.9,0-4.2,5.5-8.6,12.75-12.3-.25-2.25-1.25-3.7-3-3.7-3.5,0-7.15,1.9-11.4,6.7-1.3,1.45-3.2,3.4-5.4,5.45l-3.45-3.4a58.27,58.27,0,0,0,6.6-6.5,34.45,34.45,0,0,0,5.5-10.8l-2.3.05c-2,0-5.55,0-8.05-.05V87c2.95.1,6.5.15,8.6.15l3.05,0c.45-2.15.85-4.25,1.2-6.9l6.3.7c-.1.5-.55.8-1.2.9-.35,1.8-.75,3.45-1.2,5.1A61.41,61.41,0,0,0,332.82,84l.85,4.75c-5.5,1.7-12.75,2.35-18.3,2.55a28.69,28.69,0,0,1-3,7.1h.05a12.47,12.47,0,0,1,7.45-2.8c3.1,0,5.45,2.2,6.15,6.15,4.05-1.8,9-3.65,12.85-5.15Z"/><path class="cls-2" d="M369,101l.55,4-5.6,1.9v13.4c0,4.2-1.2,5.6-8.95,5.5a18.59,18.59,0,0,0-1.4-4.6c1.25,0,2.5.1,3.45.1,2.1,0,2.35,0,2.35-1v-11.9c-2.05.7-3.9,1.3-5.4,1.75a1,1,0,0,1-.75.9l-1.4-5.3c2.1-.55,4.7-1.25,7.55-2V93.41h-6.9V89h6.9v-9.9l5.7.3c-.05.45-.35.7-1.15.8V89h5.4v4.4h-5.4v9Zm1.85-19.75h26.45v29.45h-4.65v-2.2h-6.35v17.4h-4.6v-17.4h-6.45v2.35h-4.4Zm10.85,4.35h-6.45v7h6.45Zm-6.45,18.6h6.45V97h-6.45Zm17.4-11.55v-7h-6.35v7Zm-6.35,11.55h6.35V97h-6.35Z"/><path class="cls-2" d="M425,81.41c-.1.6-.55,1-1.55,1.1-.4,6.3-.9,18.7-.9,26.05,0,7,3.45,10.2,9.25,10.2,5.5,0,11.35-2.75,17.05-8.85a31.52,31.52,0,0,0,2.95,4.35c-6.05,6.45-12.85,9.65-20.05,9.65-10.15,0-14.6-5.7-14.6-15.35,0-6.5.4-21.5.8-27.6Z"/><path class="cls-2" d="M502.77,104.76l6.1.35c-.05.4-.4.7-1.2.85v20h-4.9v-3H472.62V126h-4.8v-21.2l6,.35c-.05.4-.4.7-1.2.8v12.3h12.3v-16.5H469.77V83.91l6,.35c-.05.45-.4.7-1.2.85v12h10.4V79.46l6.05.4c-.05.4-.35.7-1.2.8V97.11h10.9V83.86l6.2.35c-.05.45-.4.75-1.2.85v16.65h-15.9v16.5h13Z"/><path class="cls-2" d="M529.52,82.76c8.65,0,21.4-1,25.1-2.1l1.4,4.5a7.71,7.71,0,0,0-2.2,1.3c-4.7,3.5-11.45,8.4-16.9,12.2a163.6,163.6,0,0,1,28.45-3.2v4.9c-.7,0-1.45,0-2.25,0a32.7,32.7,0,0,0-7.85.8c-4.95,1.45-13.4,7.55-13.4,13a4.3,4.3,0,0,0,2.5,4c2.25,1,7.6,1.75,11.7,2l-1.45,4.9c-5.9-.35-11.15-1.4-14.5-3.55a8.32,8.32,0,0,1-3.6-6.7c0-6.25,6.4-11.1,10.45-13.6a175.53,175.53,0,0,0-23.25,4.65l-.8-4.8a22.9,22.9,0,0,0,6.65-2.25,143.46,143.46,0,0,0,16.9-12.6c-3.65.65-11.8,1.15-15,1.3A2.22,2.22,0,0,1,530,88Z"/><path class="cls-2" d="M582.32,97.36c7.6-2,17.1-4.15,21-4.15,7.2,0,12.4,3.8,12.3,12.05-.1,9.4-7.25,15.95-21.35,20a21.73,21.73,0,0,0-3.3-4.35c13-3.15,19.15-9,19.15-15.4,0-4.45-2-7.5-7.1-7.5-4.1,0-11.4,1.7-17.7,4,0,.45-.5,1-1.05,1.25Zm7.6-17.2a86.12,86.12,0,0,1,19.9,3.65l-1.35,5a89.14,89.14,0,0,0-19.8-3.8Z"/></g></g></svg>