<svg xmlns="http://www.w3.org/2000/svg" viewBox="0 0 731.24 131.09"><defs><style>.cls-1{fill:#0ff}.cls-2{fill:#fff;stroke:#fff;stroke-miterlimit:10;stroke-width:.24px}</style></defs><title>アセット 20</title><g id="レイヤー_2" data-name="レイヤー 2"><g id="文字"><path class="cls-1" d="M79.84 40.72c0 22.45-17.91 40.72-39.92 40.72S0 63.17 0 40.72 17.91 0 39.92 0C62.1 0 79.84 18.45 79.84 40.72zM36 63.6h10.66V18.1h-9.13l-12 5.57L27.29 32l8.62-4H36z"/><path class="cls-2" d="M144.27 33.21a9.47 9.47 0 0 1 7.9 9.55c0 6.15-4.7 11.3-13.25 11.3a17.85 17.85 0 0 1-9.2-2.35l1.5-4.45a14.82 14.82 0 0 0 7.45 2.15c5.35 0 7.55-3.5 7.55-6.85 0-4.85-4.1-7.1-8.55-7.1h-2.55v-4.15h2.45c3.25 0 7.5-1.95 7.5-6.1 0-2.95-1.9-5.3-5.9-5.3a12.68 12.68 0 0 0-6.7 2.25L131 18a17.1 17.1 0 0 1 9.45-2.75c7.05 0 10.5 4.25 10.5 9 0 3.85-2.4 7.2-6.7 8.8zm17.35 16.9a3.78 3.78 0 0 1 3.75-4 3.68 3.68 0 0 1 3.7 4 3.73 3.73 0 1 1-7.45 0zm40.55 3.4h-22.9V50l3.95-4.15c7.95-8.15 12.35-13.35 12.35-19 0-3.65-1.75-6.85-6.5-6.85a12.1 12.1 0 0 0-7.25 2.95l-1.75-4.15a16.26 16.26 0 0 1 10.15-3.5c7.75 0 11.15 5.25 11.15 11 0 6.9-4.7 12.65-11.25 19.25L187 48.61v.1h15.15zm9.83-3.4a3.78 3.78 0 0 1 3.75-4 3.68 3.68 0 0 1 3.7 4 3.73 3.73 0 1 1-7.45 0zm20 3.4V21.16h-.1l-6.35 3.5-1.3-4.25 8.5-4.55h4.9v37.65zm17.32-3.4a3.78 3.78 0 0 1 3.75-4 3.68 3.68 0 0 1 3.7 4 3.73 3.73 0 1 1-7.45 0zM295.17 52a32 32 0 0 1-10.9 1.95c-16.55 0-18.65-13.15-18.65-19.25 0-12.4 8.15-19.8 19.6-19.8a21.43 21.43 0 0 1 8.9 1.6l-1.3 4.75a17.89 17.89 0 0 0-7.6-1.45c-7.85 0-13.5 4.95-13.5 14.65s5.28 14.71 12.75 14.71a12.18 12.18 0 0 0 5.1-.8v-10.8H283v-4.65h12.2zm41.35-18c0 13.3-7.15 20.05-16.45 20.05-9.75 0-16-7.9-16-19.45 0-12 6.7-19.95 16.5-19.95 10.15.01 15.95 8.35 15.95 19.35zm-26.35.45c0 7.75 3.5 14.85 10.1 14.85s10.15-7 10.15-15.1c0-7.3-3.2-14.8-10.05-14.8-7.05.01-10.2 7.6-10.2 15.06zm69.45-12.79a1.34 1.34 0 0 1-1.35.8c-1.95 16.4-7 28.05-15.45 28.05-4.85 0-8.75-4.45-8.75-12.65 0-12.4 9.75-22.1 22.7-22.1 14.35 0 21.1 8.75 21.1 19.05 0 11.85-6.45 17.75-18.8 20.8a32.92 32.92 0 0 0-3.15-4.25c11.45-2.25 16.65-7.75 16.65-16.4 0-8.15-5.4-14.55-15.85-14.55-.7 0-1.35.05-2.05.1zm-6.4-.85a17.08 17.08 0 0 0-14.3 16.9c0 4.75 1.75 7.85 4.05 7.85 5.4 0 9.2-12.05 10.25-24.75zm74.3-.1a1.31 1.31 0 0 1-1.25.55c-.8 1.8-2 4.2-3.1 6.1h12.7v4.25h-45.7v-4.25h12.45a24.71 24.71 0 0 0-2.65-6.9l3.65-.75h-10.35v-4.25h17.1v-4.35l6.2.35c-.05.4-.4.7-1.2.85v3.15h17.8v4.25h-9.1zM417.87 58V35.26H449v22.6h-4.9v-1.7h-21.58V58zm26.2-18.7h-21.55v4.5h21.55zm-21.55 12.9h21.55v-4.7h-21.55zm17.85-24.8c-.7-.25-1.35-.45-1.95-.65a49.14 49.14 0 0 0 3-7h-16.7a23.29 23.29 0 0 1 2.8 7l-2.9.7zM478.32 15c-.1.55-.6.85-1.6.9a121.33 121.33 0 0 0-2.6 22.2 56.36 56.36 0 0 0 .45 8.45c.8-1.95 2.85-6.65 3.5-8.35l2.55 3.45c-1.85 4.25-3.5 7-4.2 9.35a8.27 8.27 0 0 0-.4 2.35 6.35 6.35 0 0 0 .25 1.7l-4.95.8c-1.65-4.8-2.25-10.85-2.25-17.55a157.22 157.22 0 0 1 2.45-24.3zm30.9 36.95c-1.75.1-3.6.15-5.45.15a66.81 66.81 0 0 1-9-.5c-6.55-.9-9.4-4.45-9.4-8.6 0-3.5 1.8-6.5 4.5-9.8l4.7 1.7c-2.4 2.4-4 4.8-4 7.45 0 4.65 6.25 4.95 12 4.95a61.59 61.59 0 0 0 6.85-.35zm-23-31.45a168.19 168.19 0 0 0 21.45-1.9l.5 4.9a173.88 173.88 0 0 1-21.8 1.8zm46.1 7.71a70.72 70.72 0 0 1-8.2 5.2 25.14 25.14 0 0 0-2.9-3.75c8.75-4.4 17.2-12.15 21.1-18.6l6.55.4a1.38 1.38 0 0 1-1.2.9c4.9 6.6 13.7 13.25 21.4 16.6a23.74 23.74 0 0 0-3.1 4.25 67.63 67.63 0 0 1-8.25-5.15v3.7h-25.4zM529.42 58V37.51h31.4V58H556v-2h-21.9v2zM557 27.51a59.13 59.13 0 0 1-12.15-11.65 55.31 55.31 0 0 1-11.6 11.65zm-1 14.25h-21.9v10H556zm35.57-25c0-1.4.1-3.2.1-4.35l6.5.55c-.1.55-.5.85-1.4 1-.25 2.3-.3 4.55-.45 6.6.55.2 1.15.5 2.15.9a46.76 46.76 0 0 0-2.45 6.2 14.92 14.92 0 0 1-.2 1.65c5.15-3.7 10.6-5.6 15.35-5.6 8.55 0 13.65 5.8 13.65 14.6 0 10.75-8.3 15.5-21.45 16.7a25.93 25.93 0 0 0-1.8-4.45c11.75-1.2 18.2-4.35 18.2-12.15 0-5.5-2.85-10-9-10-4.75 0-10.1 2.1-15 6.25v21.9H591v-18.9a44.46 44.46 0 0 1-8.55 10.05l-2.35-4.3a57.72 57.72 0 0 0 7.75-8.3 39.11 39.11 0 0 0 3.25-5.45l.15-3.75a70.1 70.1 0 0 1-9.45.85l-.2-4.75a55.52 55.52 0 0 0 9.85-.75zM668 31.11c0 7.15 0 13.7-6.8 13.7a18.07 18.07 0 0 1-7.55-2.05 23.49 23.49 0 0 0 .65-4.1 14.66 14.66 0 0 0 5.9 1.8 2.59 2.59 0 0 0 2.55-2.1 52.1 52.1 0 0 0 .35-8.35c-5.2.85-10.5 1.7-14.55 2.45 0 15.2 0 18.4 8.2 18.7.75.05 1.65.05 2.65.05a88.68 88.68 0 0 0 13.3-.9l.1 4.7a117.2 117.2 0 0 1-12.75.6c-7.85 0-15.1-.25-16.05-11.2-.2-2.6-.3-6.7-.4-11.1-3 .6-7 1.35-9.3 1.85l-.75-4.7c2.45-.35 6.55-1.05 10-1.65-.05-4.35-.15-9.1-.15-12.65l6.6.55c-.1.6-.5.9-1.4 1.1v10.15l14.4-2.45c-.15-4.2-.35-9-.65-12.8l6.3.3c0 .5-.35.75-1.1 1 .15 3.2.25 7.15.35 10.65 3.75-.55 7.45-1.15 10.2-1.55l.4 4.8c-2.8.3-6.55.8-10.5 1.35zm22-13.6c1.5 0 3.65-.05 5.05-.15 5.1-.4 28.5-1.95 36-2.15v5.3c-4.1-.15-6.75.15-10.6 2.75C714 27.36 707 34.81 707 40.86c0 6.3 4.95 10 16.6 11.4l-2.4 5c-14.25-1.85-19.65-7.55-19.65-16.3 0-6.55 6.25-14.8 14.5-20.25-5.5.3-19 1.45-24.4 2a1.92 1.92 0 0 1-1.2.8zM167 91a1.49 1.49 0 0 1-.85.7 77.64 77.64 0 0 1-9.65 16.85 190.19 190.19 0 0 1 17.5 16.16l-4.4 3.8a154 154 0 0 0-16.3-16c-4.55 5.35-11.6 12.05-18.45 16a29.11 29.11 0 0 0-3.65-3.85c13.05-7.1 23.6-20.15 28.15-30.8h-23.5v-4.75h26.25l.9-.3zm61.22 3.26a1.32 1.32 0 0 1-.9.7c-4.45 6.6-12.1 14.05-19.3 19.4a92.27 92.27 0 0 1 9.5 8.85l-4.35 3.8a102.44 102.44 0 0 0-22.7-18.6l3.45-3.6a97.85 97.85 0 0 1 10.15 6.65c6-4.35 12-10.1 15.4-15h-34.4v-4.75h38.25l.75-.4zm24.1 13.74a41.9 41.9 0 0 1-9 14.65l-4.15-2.6a35.36 35.36 0 0 0 8.7-13.75zm10.8-7.5v22.1c0 6.55-4.8 6.55-12.5 6.55a26 26 0 0 0-1.45-4.65c1.5 0 3.35.1 4.8.1 3.1 0 4.1 0 4.1-1.9v-22.2h-16.35v-4.74h16.35v-9.85l6.4.35c-.1.5-.45.95-1.35 1v8.45h16.3v4.75zm8.95 5.45a94.36 94.36 0 0 1 10.1 14.15l-4.5 2.6a85.29 85.29 0 0 0-9.67-14.64zm66.75.81a.63.63 0 0 1-.3 0 1.69 1.69 0 0 1-.85-.25c-3.75 1.15-8.95 3-12.9 4.55q.15 1.65.15 3.75t-.15 4.5l-5 .35a51.44 51.44 0 0 0 .2-6.65c-4.7 2.35-8.4 5.25-8.4 7.7s3.1 3.7 9.35 3.7a111.19 111.19 0 0 0 12.5-.6l.05 4.65c-2.8.3-7.15.4-12.6.4-9.6 0-14.15-2.2-14.15-7.9 0-4.2 5.5-8.6 12.75-12.3-.25-2.25-1.25-3.7-3-3.7-3.5 0-7.15 1.9-11.4 6.7-1.3 1.45-3.2 3.4-5.4 5.45l-3.45-3.4a58.27 58.27 0 0 0 6.6-6.5 34.45 34.45 0 0 0 5.5-10.8l-2.3.05c-2 0-5.55 0-8.05-.05V92c2.95.1 6.5.15 8.6.15h3.05c.45-2.15.85-4.25 1.2-6.9l6.3.7c-.1.5-.55.8-1.2.9-.35 1.8-.75 3.45-1.2 5.1a61.41 61.41 0 0 0 16.1-2.95l.85 4.75c-5.5 1.7-12.75 2.35-18.3 2.55a28.69 28.69 0 0 1-3 7.1h.05a12.47 12.47 0 0 1 7.45-2.8c3.1 0 5.45 2.2 6.15 6.15 4.05-1.8 9-3.65 12.85-5.15zM370 106l.55 4-5.6 1.9v13.4c0 4.2-1.2 5.6-8.95 5.5a18.59 18.59 0 0 0-1.4-4.6c1.25 0 2.5.1 3.45.1 2.1 0 2.35 0 2.35-1v-11.9c-2.05.7-3.9 1.3-5.4 1.75a1 1 0 0 1-.75.9l-1.4-5.3c2.1-.55 4.7-1.25 7.55-2V98.41h-6.9V94h6.9v-9.9l5.7.3c-.05.45-.35.7-1.15.8V94h5.4v4.4h-5.4v9zm1.85-19.75h26.45v29.45h-4.65v-2.2h-6.35v17.4h-4.6v-17.4h-6.45v2.35h-4.4zm10.85 4.35h-6.45v7h6.45zm-6.45 18.6h6.45V102h-6.45zm17.4-11.55v-7h-6.35v7zm-6.35 11.55h6.35V102h-6.35zM422 86.41c-.1.6-.55 1-1.55 1.1-.4 6.3-.9 18.7-.9 26.05 0 7 3.45 10.2 9.25 10.2 5.5 0 11.35-2.75 17.05-8.85a31.52 31.52 0 0 0 2.95 4.35c-6.05 6.45-12.85 9.65-20.05 9.65-10.15 0-14.6-5.7-14.6-15.35 0-6.5.4-21.5.8-27.6zm79.77 23.35l6.1.35c-.05.4-.4.7-1.2.85v20h-4.9v-3h-30.15V131h-4.8v-21.2l6 .35c-.05.4-.4.7-1.2.8v12.3h12.3v-16.5h-15.15V88.91l6 .35c-.05.45-.4.7-1.2.85v12h10.4V84.46l6.05.4c-.05.4-.35.7-1.2.8v16.45h10.9V88.86l6.2.35c-.05.45-.4.75-1.2.85v16.65h-15.9v16.5h13zm27.75-22c8.65 0 21.4-1 25.1-2.1l1.4 4.5a7.71 7.71 0 0 0-2.2 1.3c-4.7 3.5-11.45 8.4-16.9 12.2a163.6 163.6 0 0 1 28.45-3.2v4.9h-2.25a32.7 32.7 0 0 0-7.85.8c-4.95 1.45-13.4 7.55-13.4 13a4.3 4.3 0 0 0 2.5 4c2.25 1 7.6 1.75 11.7 2l-1.45 4.9c-5.9-.35-11.15-1.4-14.5-3.55a8.32 8.32 0 0 1-3.6-6.7c0-6.25 6.4-11.1 10.45-13.6a175.53 175.53 0 0 0-23.25 4.65l-.8-4.8a22.9 22.9 0 0 0 6.65-2.25 143.46 143.46 0 0 0 16.9-12.6c-3.65.65-11.8 1.15-15 1.3A2.22 2.22 0 0 1 530 93zm53.8 14.6c7.6-2 17.1-4.15 21-4.15 7.2 0 12.4 3.8 12.3 12.05-.1 9.4-7.25 15.95-21.35 20a21.73 21.73 0 0 0-3.3-4.35c13-3.15 19.15-9 19.15-15.4 0-4.45-2-7.5-7.1-7.5-4.1 0-11.4 1.7-17.7 4 0 .45-.5 1-1.05 1.25zm7.6-17.2a86.12 86.12 0 0 1 19.9 3.65l-1.35 5a89.14 89.14 0 0 0-19.8-3.8z"/></g></g></svg>