<svg xmlns="http://www.w3.org/2000/svg" viewBox="0 0 511.82 123.24"><defs><style>.cls-1{fill:#0ff}.cls-2{fill:#dbff00;stroke:#dbff00;stroke-miterlimit:10;stroke-width:.24px}</style></defs><title>アセット 17</title><g id="レイヤー_2" data-name="レイヤー 2"><g id="文字"><path class="cls-1" d="M79.78 42.84c-1.19 22.42-20.05 39.71-42 38.54S-1.14 61 .06 38.59 20.11-1.11 42.09.06C64.24 1.24 81 20.6 79.78 42.84zM55.07 64.27l.49-9.21-17-.91v-.09L43 50.9c6.86-5.3 12.44-10.75 12.85-18.31.44-8.34-4.94-14.73-15.33-15.28a25.48 25.48 0 0 0-15.43 4.14l2.64 8.16c2.57-1.78 6.18-3.68 10-3.47 5.28.28 7.25 3.43 7.06 6.91-.37 4.95-5.21 9.3-15.79 17.8l-6.24 4.89-.36 6.78z"/><path class="cls-2" d="M143.25 25.57l.5 4.1c-1.9.65-3.85 1.3-5.7 1.95v13.55c0 4.4-1.6 5.35-9.15 5.25a16.73 16.73 0 0 0-1.35-4.35c1.25 0 2.5.1 3.45.1 2.15 0 2.4 0 2.4-1V33.12c-2 .65-3.8 1.25-5.3 1.7a1.08 1.08 0 0 1-.75.9l-1.6-5.45c2.1-.5 4.75-1.2 7.65-2v-10.5h-7v-4.4h7v-9.7l5.8.3c0 .45-.35.75-1.15.85v8.55h5.4v4.4h-5.4V27zm7.15-7.9c0 1.85.6 2.15 3.9 2.15h10.75c2.75 0 3.2-.9 3.5-6.15a13.94 13.94 0 0 0 4.35 1.75c-.65 6.9-2.15 8.65-7.55 8.65H153.9c-6.45 0-8.15-1.35-8.15-6.35V3.62l5.85.38c0 .45-.4.7-1.2.8v6.1a81.14 81.14 0 0 0 15.3-4.7l3.85 3.65c-.2.2-.45.2-1.1.2a112.92 112.92 0 0 1-18 4.7zm-3.9 32.85V27.77h23.3v22.4h-4.7v-1.85H151v2.2zm18.6-18.75H151v4.3h14.1zM151 44.32h14.1v-4.4H151zm46.2-13.65c-.15.35-.6.55-1.25.5a49.68 49.68 0 0 1-9.65 14.95 29.33 29.33 0 0 0-4.1-2.75c3.65-3.35 7.2-9 9.2-14.55zm31.8-6.25h-20v20.5c0 5.15-2.35 5.6-12.1 5.6a19.17 19.17 0 0 0-1.65-4.75c1.9 0 3.85.1 5.35.1 3.3 0 3.5 0 3.5-1V24.42h-19.85v-4.75H229zm-4.5-17.3v4.7h-35.6v-4.7zm.6 38.88c-1.3-4.15-5-10.7-8.55-15.5l4.5-1.95c3.6 4.7 7.45 11 8.95 15.3zm27.8-38.48c-.1.55-.6.85-1.6.9a121.33 121.33 0 0 0-2.6 22.2 56.36 56.36 0 0 0 .45 8.45c.8-2 2.85-6.65 3.5-8.35l2.55 3.45c-1.85 4.25-3.5 7-4.2 9.35a8.27 8.27 0 0 0-.4 2.35 6.35 6.35 0 0 0 .25 1.7l-4.95.8c-1.65-4.8-2.25-10.85-2.25-17.55a157.22 157.22 0 0 1 2.45-24.3zm30.9 37c-1.75.1-3.6.15-5.45.15a66.81 66.81 0 0 1-9.05-.5c-6.55-.9-9.4-4.45-9.4-8.6 0-3.5 1.8-6.5 4.5-9.8l4.7 1.7c-2.4 2.4-4 4.8-4 7.45 0 4.65 6.25 5 12 5a61.59 61.59 0 0 0 6.85-.35zM260.8 13a168.19 168.19 0 0 0 21.45-1.9l.5 4.9a173.88 173.88 0 0 1-21.8 1.8zm47.1 7.77a70.72 70.72 0 0 1-8.2 5.2 25.14 25.14 0 0 0-2.9-3.75c8.75-4.4 17.2-12.15 21.1-18.6l6.55.4a1.38 1.38 0 0 1-1.2.9c4.9 6.6 13.7 13.25 21.4 16.6a23.74 23.74 0 0 0-3.1 4.25 67.63 67.63 0 0 1-8.25-5.15v3.7h-25.4zm-2.9 29.8v-20.5h31.4v20.5h-4.85v-2h-21.9v2zm27.55-30.5A59.13 59.13 0 0 1 320.4 8.42a55.31 55.31 0 0 1-11.6 11.65zm-1 14.25h-21.9v10h21.9zm34.6-25c.05-1.4.1-3.2.1-4.35l6.5.55c-.1.55-.5.85-1.4 1-.25 2.3-.3 4.55-.45 6.6.55.2 1.15.5 2.15.9a46.76 46.76 0 0 0-2.45 6.2 14.92 14.92 0 0 1-.2 1.65c5.15-3.7 10.6-5.6 15.35-5.6 8.55 0 13.65 5.8 13.65 14.6 0 10.75-8.3 15.5-21.45 16.7a25.93 25.93 0 0 0-1.8-4.45c11.75-1.2 18.2-4.35 18.2-12.15 0-5.5-2.85-10-9-10-4.75 0-10.1 2.1-15.05 6.25 0 6.8 0 16.1.05 21.9h-4.8v-18.9A44.46 44.46 0 0 1 357 40.27L354.65 36a57.72 57.72 0 0 0 7.75-8.3 39.11 39.11 0 0 0 3.25-5.45l.15-3.75a70.1 70.1 0 0 1-9.45.85l-.2-4.75a55.52 55.52 0 0 0 9.85-.75zm80.45 14.35c0 7.15 0 13.7-6.8 13.7a18.07 18.07 0 0 1-7.55-2 23.49 23.49 0 0 0 .65-4.1 14.66 14.66 0 0 0 5.9 1.8 2.59 2.59 0 0 0 2.55-2.1 52.1 52.1 0 0 0 .35-8.35c-5.2.85-10.5 1.7-14.55 2.45 0 15.2 0 18.4 8.2 18.7.75.05 1.65.05 2.65.05a88.68 88.68 0 0 0 13.3-.9l.1 4.7a117.2 117.2 0 0 1-12.75.6c-7.85 0-15.1-.25-16-11.2-.2-2.6-.3-6.7-.4-11.1-3 .6-7.05 1.35-9.3 1.85l-.75-4.7c2.45-.35 6.55-1.05 10-1.65 0-4.35-.15-9.1-.15-12.65l6.6.55c-.1.6-.5.9-1.4 1.1-.05 2.7-.05 6.6-.05 10.15l14.45-2.45c-.15-4.2-.35-9-.65-12.8l6.3.3c0 .5-.35.75-1.1 1 .15 3.2.25 7.15.35 10.65 3.75-.55 7.45-1.15 10.2-1.55l.4 4.8c-2.8.3-6.55.8-10.5 1.35zm24-13.6c1.5 0 3.65-.05 5-.15 5.1-.4 28.5-1.95 36-2.15l.05 5.3c-4.1-.15-6.75.15-10.6 2.75-6.45 4.1-13.45 11.55-13.45 17.6 0 6.3 5 10 16.6 11.4l-2.4 5c-14.25-1.85-19.65-7.55-19.65-16.3 0-6.55 6.25-14.8 14.5-20.25-5.5.3-18.95 1.45-24.4 2a1.92 1.92 0 0 1-1.2.8zm-306.7 73.5a1.49 1.49 0 0 1-.85.7 77.64 77.64 0 0 1-9.65 16.85 190.19 190.19 0 0 1 17.5 16.15l-4.4 3.8a154 154 0 0 0-16.3-16c-4.55 5.35-11.6 12-18.45 16a29.11 29.11 0 0 0-3.65-3.85c13.05-7.1 23.6-20.15 28.15-30.8h-23.5v-4.75H159l.9-.3zm62.25 3.25a1.32 1.32 0 0 1-.9.7c-4.45 6.6-12.1 14-19.3 19.4a92.27 92.27 0 0 1 9.5 8.85l-4.35 3.8A102.44 102.44 0 0 0 188.4 101l3.45-3.6A97.85 97.85 0 0 1 202 104c6-4.33 12-10.08 15.4-15H183v-4.73h38.25l.75-.4zm25.1 13.75a41.9 41.9 0 0 1-9.05 14.65l-4.15-2.6a35.36 35.36 0 0 0 8.7-13.75zm10.8-7.5v22.1c0 6.55-4.8 6.55-12.5 6.55a26 26 0 0 0-1.45-4.65c1.5.05 3.35.1 4.8.1 3.1 0 4.1 0 4.1-1.9v-22.2h-16.35v-4.75H257v-9.85l6.4.35c-.1.5-.45 1-1.35 1.05v8.45h16.3v4.75zm8.95 5.45a94.36 94.36 0 0 1 10.1 14.15l-4.5 2.6a85.29 85.29 0 0 0-9.6-14.65zm68.75.8a.63.63 0 0 1-.3.05 1.69 1.69 0 0 1-.85-.25c-3.75 1.15-9 2.95-12.9 4.55q.15 1.65.15 3.75t-.15 4.5l-5.05.35a51.44 51.44 0 0 0 .2-6.65c-4.7 2.35-8.4 5.25-8.4 7.7s3.1 3.7 9.35 3.7a111.19 111.19 0 0 0 12.5-.6l.05 4.65c-2.8.3-7.15.4-12.6.4-9.6 0-14.15-2.2-14.15-7.9 0-4.2 5.5-8.6 12.75-12.3-.25-2.25-1.25-3.7-3-3.7-3.5 0-7.15 1.9-11.4 6.7-1.3 1.45-3.2 3.4-5.4 5.45l-3.45-3.4a58.27 58.27 0 0 0 6.6-6.5A34.45 34.45 0 0 0 309.2 89h-10.3v-4.5c2.95.1 6.5.15 8.6.15h3.05c.45-2.15.85-4.25 1.2-6.9l6.3.7c-.1.5-.55.8-1.2.9-.35 1.8-.75 3.45-1.2 5.1a61.41 61.41 0 0 0 16.15-2.85l.85 4.75c-5.5 1.7-12.75 2.35-18.3 2.55a28.69 28.69 0 0 1-3 7.1h.05a12.47 12.47 0 0 1 7.45-2.8c3.1 0 5.45 2.2 6.15 6.15 4.05-1.8 9-3.65 12.85-5.15zm17-19.65h41.9v43.45h-5v-3.35H361.5v3.35h-4.75zm4.75 35.45h32.15v-30.8H361.5zm6.4-24.05H387v17.1h-19.1zm14.7 13.2V95h-10.45v9.25zm36.85-23.95c8.65 0 21.4-.95 25.1-2.1l1.4 4.5a7.71 7.71 0 0 0-2.2 1.3c-4.7 3.5-11.45 8.4-16.9 12.2A163.6 163.6 0 0 1 455.3 93v4.9h-2.25a32.7 32.7 0 0 0-7.85.8c-4.95 1.45-13.4 7.55-13.4 13a4.3 4.3 0 0 0 2.5 4c2.25 1 7.6 1.75 11.7 1.95l-1.45 4.9c-5.9-.35-11.15-1.4-14.5-3.55a8.32 8.32 0 0 1-3.6-6.7c0-6.25 6.4-11.1 10.45-13.6a175.53 175.53 0 0 0-23.25 4.65l-.8-4.8a22.9 22.9 0 0 0 6.65-2.25 143.46 143.46 0 0 0 16.9-12.6c-3.65.65-11.8 1.15-14.95 1.3a2.22 2.22 0 0 1-1.55.65zm54.8 14.6c7.6-2 17.1-4.15 21-4.15 7.2 0 12.4 3.8 12.3 12-.1 9.4-7.25 16-21.35 20a21.73 21.73 0 0 0-3.3-4.35c13-3.15 19.15-9 19.15-15.4 0-4.45-2.05-7.5-7.1-7.5-4.1 0-11.4 1.7-17.7 4.05.05.45-.5 1-1.05 1.25zm7.6-17.2a86.12 86.12 0 0 1 19.9 3.65l-1.35 4.95a89.14 89.14 0 0 0-19.8-3.8z"/></g></g></svg>