<svg xmlns="http://www.w3.org/2000/svg" viewBox="0 0 328 82.9"><defs><style>.cls-1{fill:#d9ff2d}.cls-2{stroke:#000;stroke-miterlimit:10;stroke-width:.24px}</style></defs><title>アセット 22</title><g id="レイヤー_2" data-name="レイヤー 2"><g id="文字"><path class="cls-1" d="M0 0H328V82.9H0z"/><path class="cls-2" d="M88.45 38.28h-10.9a33.53 33.53 0 0 0 12 8.1 25.3 25.3 0 0 0-3.9 4.75A39 39 0 0 1 70.8 38.28H60.5a40 40 0 0 1-4.5 5.5 40.32 40.32 0 0 0 10.3-4l5.4 2.35c-.1.3-.55.5-1.1.5-3.45 2-9.5 4.15-14.45 5.3a21.6 21.6 0 0 0-2.1-2.35 36.8 36.8 0 0 1-8.75 5.75A33.37 33.37 0 0 0 41.2 47a31.53 31.53 0 0 0 12-8.75H42.75v-5.02h14a32.69 32.69 0 0 0 1.6-3.23c-4.25.2-8.1.3-11.3.4a1.07 1.07 0 0 1-.9.75l-2.1-6.05c2.55 0 5.6 0 9.05-.1a53.22 53.22 0 0 0 4.65-8l7 2.2c-.15.4-.65.55-1.4.55-1 1.55-2.35 3.4-3.75 5.15 4.6-.1 9.5-.15 14.4-.3-1.35-1.1-2.65-2.15-3.9-3.1l4.75-2.75c4.15 2.95 9.6 7.45 12.2 10.65l-5.15 3.1a39.62 39.62 0 0 0-3-3.4c-4.5.25-9.15.45-13.55.65l.55.15a1.23 1.23 0 0 1-1.35.65q-.52 1.35-1.2 2.7h25.1zm-5.2 14.8c-.15.35-.6.6-1.35.6-6.35 6-17.35 9-30.15 10.6a18.33 18.33 0 0 0-2.75-4.9c11.7-1 22.6-3.55 28-8.7zm-6.75-5.35a1.12 1.12 0 0 1-1.2.5c-4.55 3.3-12.4 6.05-19.75 7.6a16.65 16.65 0 0 0-3.2-4.25c6.7-1.1 14.6-3.3 18.6-6.2zm46.95-21.3l1.35-.05 3.15.15v2c-.4 21.9-.7 29.65-2.15 31.9-1 1.6-2.15 2.8-7 2.8h-2.2a15.65 15.65 0 0 0-1.65-6 32.31 32.31 0 0 0 4 .2 1.65 1.65 0 0 0 1.55-1c.85-1.35 1.25-7.3 1.55-24.15h-5c-.45 12.95-2.15 24.25-8.2 31.9a16.38 16.38 0 0 0-4.45-4.25c5.2-6.45 6.5-16 6.8-27.65h-5.6v-5.85h5.7c.05-3 .05-6.15.05-9.4l7.4.35c-.1.6-.55.95-1.45 1.1v8zm8-3.95h18v40h-6v-3h-6.25v3.45h-5.75zm5.75 31.05h6.25V28.28h-6.25zm76.1-22.75h-24.55c-.15 2.15-.35 4.35-.65 6.6H203l1.3-.15 3.55.6c0 .45-.15 1.2-.25 1.75-.95 14.15-2 19.8-4 22-1.8 2-3.7 2.5-8.85 2.5-1.6 0-3.4 0-5.2-.15a13.48 13.48 0 0 0-2.15-5.9c3.5.35 7.05.35 8.5.35a3.41 3.41 0 0 0 2.45-.65c1.3-1.1 2.2-5.5 2.9-14.7h-14c-1.85 8.25-5.85 16.25-16.05 21.5a17.62 17.62 0 0 0-4.25-5.05c13.6-6.3 14.8-17.9 15.35-28.7h-14.55V25h19.35v-8.22l7.6.4c0 .5-.45.8-1.35 1V25h20zm17.7 0a41.13 41.13 0 0 1 9.75 4.7l-3.35 5.05a38.41 38.41 0 0 0-9.5-5.2zm-1.7 28.85a152.68 152.68 0 0 0 8.9-15.85c4.35 3.7 4.45 3.75 4.5 3.8a148.36 148.36 0 0 1-7.6 14.55 1.49 1.49 0 0 1 .35.95 1.36 1.36 0 0 1-.3.85zm4.7-42.45a41.66 41.66 0 0 1 9.65 5.15l-3.5 4.9a40 40 0 0 0-9.45-5.6zm40.95 20v5.75h-18.8l2.25.7a1.56 1.56 0 0 1-1.5.7 106.65 106.65 0 0 1-4.8 11.35c3.9-.2 8.1-.45 12.3-.7-1.3-2-2.7-4-4.1-5.75l5.2-2.75c3.75 4.4 7.85 10.35 9.45 14.6l-5.7 3.15a26 26 0 0 0-1.75-4c-8.3.7-16.8 1.35-22.45 1.8a1.07 1.07 0 0 1-1 .8l-2.05-6.7 3.6-.13a99.78 99.78 0 0 0 5-13.1h-8.7v-5.77H255v-7.2h-10.6v-5.7H255V17l7.7.45c-.05.55-.55 1.1-1.5 1.25v5.5h11.05v5.7H261.2v7.2z"/></g></g></svg>