<svg xmlns="http://www.w3.org/2000/svg" viewBox="0 0 876.68 236.77"><defs><style>.cls-1{fill:#dbff00;stroke:#dbff00;stroke-miterlimit:10;stroke-width:0.24px;}</style></defs><title>アセット 19</title><g id="レイヤー_2" data-name="レイヤー 2"><g id="文字"><path class="cls-1" d="M87.46,40.16a88.8,88.8,0,0,0,10.8-.9c0,1.65.15,3.45.2,5.05a103.3,103.3,0,0,1-10.55.6H76.06c-8.15,0-12-3.45-12-11V4.81l6.45.35c0,.5-.45.9-1.45,1v15.5a152.1,152.1,0,0,0,23.25-9.55l3.45,4.75a1.21,1.21,0,0,1-.75.2,2,2,0,0,1-.75-.15,179.28,179.28,0,0,1-25.2,9.45V34c0,4.6,2.2,6.2,7,6.2Zm4.9-36.95a42.59,42.59,0,0,1,5.9,7.15l-2.5,1.85A39.1,39.1,0,0,0,90,5ZM98.91.51a38.1,38.1,0,0,1,6,7.05l-2.45,1.85a47.71,47.71,0,0,0-5.8-7Z"/><path class="cls-1" d="M118.21,16.31A63,63,0,0,1,121.86,27l-3.9,1.1a51.21,51.21,0,0,0-3.55-10.65Zm29.45.85a1.19,1.19,0,0,1-1.15.55c-4,14.65-11.55,23.5-23.3,28.25a22.37,22.37,0,0,0-2.7-3.2c11.25-4.3,18.45-12.4,22-27.25Zm-17.4-3.05a64.27,64.27,0,0,1,2.35,11.15l-4.05.85A69.49,69.49,0,0,0,126.16,15Z"/><path class="cls-1" d="M196.86,13.61c-.15.35-.6.6-.9.8-5.6,16.9-13.6,26.4-26.75,33.05a18.55,18.55,0,0,0-3.65-3.8c12.3-5.9,19.9-14.6,24-27.4h-15.8a49.41,49.41,0,0,1-10.65,11.6,27.06,27.06,0,0,0-4.05-3.15c6.7-4.8,12.5-13,15.7-21.8l6.4,1.6a1.54,1.54,0,0,1-1.55.8c-.9,2-2.1,4.45-3.05,6.25h15.5l.75-.35Zm-7-12a39.15,39.15,0,0,1,6.5,6.75l-2.4,2a36.61,36.61,0,0,0-6.3-6.8Zm7.65-1.4A37.1,37.1,0,0,1,204,6.91l-2.45,1.95a38.4,38.4,0,0,0-6.2-6.75Z"/><path class="cls-1" d="M256.91,18.91h-9.85v2.75c0,10.05-3.25,19.45-15.85,25.3a27.15,27.15,0,0,0-3.65-3.5c12.1-5.3,14.5-13.55,14.5-21.7V18.91h-14.5V30.76h-4.95V18.91h-9.2v-4.8h9.2V3.76l6.35.4c-.05.5-.5,1-1.4,1.15v8.8h14.5v-11l6.35.35c0,.5-.45.9-1.35,1v9.6h9.85Z"/><path class="cls-1" d="M304.91,7a1.5,1.5,0,0,1-1.1.45,1.88,1.88,0,0,1-.5,0,123.62,123.62,0,0,1-13.8,11.65c.45.2,1.05.45,1.35.55a1.37,1.37,0,0,1-1.2.85v26.4h-5.25V22.31a148,148,0,0,1-17.75,10.25,22.15,22.15,0,0,0-3-3.85C277,22.66,292,12.16,299.81,3.21Z"/><path class="cls-1" d="M342.21,30.41a148.44,148.44,0,0,0-16.55-7.85v24.2h-5.25V3l6.7.4c-.05.55-.5,1-1.45,1.15v14.3l1-1.4A175.27,175.27,0,0,1,345,25.56Z"/><path class="cls-1" d="M373.51,5.41c-.1.55-.6.85-1.6.9a121.33,121.33,0,0,0-2.6,22.2,56.36,56.36,0,0,0,.45,8.45c.8-2,2.85-6.65,3.5-8.35l2.55,3.45c-1.85,4.25-3.5,7-4.2,9.35a8.27,8.27,0,0,0-.4,2.35,6.35,6.35,0,0,0,.25,1.7l-4.95.8c-1.65-4.8-2.25-10.85-2.25-17.55a157.22,157.22,0,0,1,2.45-24.3Zm30.9,37c-1.75.1-3.6.15-5.45.15a66.81,66.81,0,0,1-9-.5c-6.55-.9-9.4-4.45-9.4-8.6,0-3.5,1.8-6.5,4.5-9.8l4.7,1.7c-2.4,2.4-4,4.8-4,7.45,0,4.65,6.25,5,12,5a61.59,61.59,0,0,0,6.85-.35Zm-23-31.45A168.19,168.19,0,0,0,402.86,9l.5,4.9a173.88,173.88,0,0,1-21.8,1.8Z"/><path class="cls-1" d="M464.76,11.71a1.32,1.32,0,0,1-.9.7c-4.45,6.6-12.1,14.05-19.3,19.4a92.27,92.27,0,0,1,9.5,8.85l-4.35,3.8A102.44,102.44,0,0,0,427,25.86l3.45-3.6a97.85,97.85,0,0,1,10.15,6.65c5.95-4.35,11.95-10.1,15.4-15h-34.4V9.16h38.25l.75-.4Z"/><path class="cls-1" d="M480.21,16.31A63,63,0,0,1,483.86,27l-3.9,1.1a51.21,51.21,0,0,0-3.55-10.65Zm29.45.85a1.19,1.19,0,0,1-1.15.55c-4,14.65-11.55,23.5-23.3,28.25a22.37,22.37,0,0,0-2.7-3.2c11.25-4.3,18.45-12.4,21.95-27.25Zm-17.4-3.05a64.27,64.27,0,0,1,2.35,11.15l-4.05.85A69.49,69.49,0,0,0,488.16,15Z"/><path class="cls-1" d="M548.46,40.06a88.8,88.8,0,0,0,10.8-.9l.2,5.1c-3,.35-8.25.55-10.55.55H537.06c-8.15,0-11.95-3.45-11.95-11V4.71l6.45.35c0,.55-.45,1-1.45,1.05v15.5a147.05,147.05,0,0,0,23.25-9.5l3.45,4.75a1.32,1.32,0,0,1-.7.15,2.26,2.26,0,0,1-.8-.15,179.28,179.28,0,0,1-25.2,9.45v7.55c0,4.6,2.2,6.2,7,6.2Zm10.7-38.7a5.5,5.5,0,1,1-5.5,5.5A5.48,5.48,0,0,1,559.16,1.36Zm3.75,5.5a3.75,3.75,0,1,0-3.75,3.75A3.74,3.74,0,0,0,562.91,6.86Z"/><path class="cls-1" d="M580.31,6.71a61.75,61.75,0,0,1,14.75,6.65l-2.6,4.5c-3.6-2.5-9.55-5.15-14.5-6.9Zm-.95,34.2c17.25-5.3,28.95-15.2,34.85-29a33.32,33.32,0,0,0,4.6,2.9c-6.2,13.65-18.3,24.35-35,30.1a1.6,1.6,0,0,1-.8,1.2Z"/><path class="cls-1" d="M665.86,13.61c-.15.35-.6.6-.9.8-5.6,16.9-13.6,26.4-26.75,33.05a18.55,18.55,0,0,0-3.65-3.8c12.3-5.9,19.9-14.6,24-27.4h-15.8a49.41,49.41,0,0,1-10.65,11.6,27.06,27.06,0,0,0-4.05-3.15c6.7-4.8,12.5-13,15.7-21.8l6.4,1.6a1.54,1.54,0,0,1-1.55.8c-.9,2-2.1,4.45-3.05,6.25h15.5l.75-.35Zm-7-12a39.15,39.15,0,0,1,6.5,6.75l-2.4,2a36.61,36.61,0,0,0-6.3-6.8Zm7.65-1.4A37.1,37.1,0,0,1,673,6.91l-2.45,1.95a38.4,38.4,0,0,0-6.2-6.75Z"/><path class="cls-1" d="M723.41,14.11a93.05,93.05,0,0,1-15.8,2.45c1.9,6.2,4.1,9.8,9,12l-3.5,4.25c-2.15-1.9-5.1-3.45-11-3.45L701,25.31a40.25,40.25,0,0,1,5.3.6c-1.5-1.95-2.75-4.85-3.85-8.95-2.1.15-4.7.25-7.45.25-3,0-8.75-.05-12-.15V12.31c2.9.1,6.85.2,12.1.2,2.1,0,4.45-.1,6.25-.25-.6-2.75-1.1-6.15-1.6-9.7l7,.15c-.05.6-.5,1-1.35,1.2a79.1,79.1,0,0,0,1.1,8,79.18,79.18,0,0,0,16-2.8Zm-9.2,32.3c-2.45.05-5.2.05-9.25.05-11.3,0-18.05-4-18.05-10.35,0-3,1.55-5.7,4.4-8.45l3.75,2.85c-2.1,1.7-3.1,3.7-3.1,5.4,0,4.3,5.65,5.8,13.15,5.8,4.15,0,6.95-.1,9.5-.25Z"/><path class="cls-1" d="M747.76,2.91l6.7.45q-.08.83-1.35,1.05c-.25,2.1-.5,4.9-.6,6.75l1.85.7a32.24,32.24,0,0,0-2.4,6.75c5.35-5,10.9-8,14.8-8,4.85,0,7.5,3.4,7.5,9.35,0,.6,0,1.25-.1,1.9-.45,5.05-.85,10.3-.85,13.5,0,3,.25,4.45,2.15,4.45,1.4,0,4.4-1.6,6.45-3.35.05,1.35.4,4.45.6,5.5-2.5,1.75-5.55,3.1-7.9,3.1-4.8,0-6.4-2.8-6.4-8.6,0-2.45.85-15.2.85-15.35,0-3.7-1.3-5.4-3.45-5.4-3.3,0-8.85,3.45-13.75,8.75,0,10.35,0,19.45,0,22.4H747V28.56a49.4,49.4,0,0,1-8.4,10.6l-2.4-4.6c3.8-3.35,8.8-9.25,10.9-14,0-1.35,0-2.5.1-3.95a52.29,52.29,0,0,1-8.85.85l-.1-4.85a53.18,53.18,0,0,0,9.15-.7Z"/><path class="cls-1" d="M821.86,13.71a63.52,63.52,0,0,1-14.5,2.65c-2,11-5.1,22.3-8.85,30.65l-5.1-1.8c4-8,7-17.9,8.8-28.6-.75.05-1.55.05-2.25.05-2.4,0-4.7,0-6.45-.05l0-4.75c1.6.1,4.2.1,6.6.1.9,0,1.85,0,2.85-.05.4-3,.8-6.5,1.1-9.5l6.75.65a1.66,1.66,0,0,1-1.45,1.1c-.3,2-.7,4.7-1.15,7.3a52.45,52.45,0,0,0,12.7-2.65Zm13.25,32.45c-1.5.1-3.1.15-4.75.15a51.7,51.7,0,0,1-11.3-1.05c-4-1-6.1-3.8-6-7.2a11.77,11.77,0,0,1,3.15-7.35l4.2,1.65c-1.65,1.8-2.45,3.55-2.45,5,0,3.5,3.75,4.15,11.35,4.15a58,58,0,0,0,6-.25ZM816,21.51A61.67,61.67,0,0,1,834,19v4.75a57.38,57.38,0,0,0-16.9,2Z"/><path class="cls-1" d="M58.56,104.91v33.8H53.41v-2.65H23.21v-4.75h30.2V109.66H23.71v-4.75Zm-6.05-9.5a40.2,40.2,0,0,1,6.3,6.9l-2.4,2a40.11,40.11,0,0,0-6.2-6.9Zm7.15-1.2A33.17,33.17,0,0,1,66,101l-2.4,2a36,36,0,0,0-6.15-6.85Z"/><path class="cls-1" d="M73,115.66h41.75v5H75a2.1,2.1,0,0,1-1.6.9Z"/><path class="cls-1" d="M138.36,104.81c-.05.55-.5.9-1.2,1-.3,13.9-1.55,25.8-8.8,34.95a35.72,35.72,0,0,0-4.35-2.6c7-7.95,7.9-20.7,8-33.8Zm12.9,27.35c7.45-3.85,12.2-10.85,14.75-19.1a36.68,36.68,0,0,0,4.45,2.75c-3.6,10.2-9.6,17.55-20.2,22.75a3.7,3.7,0,0,1-1,1.15l-3.75-4.5.7-.9V98.21l6.3.35a1.39,1.39,0,0,1-1.25,1.1Z"/><path class="cls-1" d="M188.61,122.66a1.92,1.92,0,0,1-.65,1.6l-4.2-5.05c2.55-2.4,7.9-8,10.4-10.75,3.45-3.65,5.5-4.7,8.1-4.7,3.3,0,5.5,1.8,9.45,6.6a237,237,0,0,0,19.1,20.25L227,135.06a193,193,0,0,1-17.7-19.3c-3.75-4.65-5.15-6.65-7.1-6.65-1.7,0-3.2,1.65-6.15,5.1Z"/><path class="cls-1" d="M260.51,114.26l2.45.1c0,.4,0,1,0,1.55-.3,16.8-.6,22.55-1.9,24.35-1,1.45-2.2,2.05-5.8,2.05-.9,0-1.85-.05-2.85-.1a11.18,11.18,0,0,0-1.25-4.3c1.9.15,3.55.2,4.35.2a1.56,1.56,0,0,0,1.55-.75c.8-1.05,1.1-5.7,1.4-18.75h-5.55c-.65,9.2-2.25,18-7,23.9a12.77,12.77,0,0,0-3.45-3.3c5.55-7,6-19,6.25-31.25h-5.65v-4.4h8.65v-8l5.9.35c-.05.45-.4.7-1.2.85v6.75h9V108h-12.1c-.05,2.1-.1,4.25-.2,6.35h6.4Zm29.05-5h-3.7c-1.2,7.8-3.15,14.35-6.2,19.75a25.19,25.19,0,0,0,10.45,9.25,17.49,17.49,0,0,0-3.3,4.1,28.49,28.49,0,0,1-10-9,32.09,32.09,0,0,1-11.7,9.1,20.05,20.05,0,0,0-2.45-4,26.88,26.88,0,0,0,11.6-9.45,58.35,58.35,0,0,1-4.5-12.5,36.25,36.25,0,0,1-2.85,4.6,26.82,26.82,0,0,0-3.65-3c3.8-4.9,6.5-13.75,7.9-22.6L277,96.76c-.15.4-.55.65-1.25.65-.45,2.5-1,5-1.7,7.5h15.5Zm-16.8,0-.2.5A61.86,61.86,0,0,0,277,124.26a56.83,56.83,0,0,0,4.2-15Z"/><path class="cls-1" d="M330.86,107.71a63.52,63.52,0,0,1-14.5,2.65c-2,11-5.1,22.3-8.85,30.65l-5.1-1.8c4-8,6.95-17.9,8.8-28.6-.75,0-1.55,0-2.25,0-2.4,0-4.7,0-6.45,0l-.05-4.75c1.6.1,4.2.1,6.6.1.9,0,1.85,0,2.85,0,.4-3,.8-6.5,1.1-9.5l6.75.65a1.66,1.66,0,0,1-1.45,1.1c-.3,2-.7,4.7-1.15,7.3a52.45,52.45,0,0,0,12.7-2.65Zm13.25,32.45c-1.5.1-3.1.15-4.75.15a51.7,51.7,0,0,1-11.3-1.05c-4-1-6.1-3.8-6.05-7.2a11.77,11.77,0,0,1,3.15-7.35l4.2,1.65c-1.65,1.8-2.45,3.55-2.45,5,0,3.5,3.75,4.15,11.35,4.15a58,58,0,0,0,5.95-.25ZM325,115.51a61.67,61.67,0,0,1,18-2.5v4.75a57.38,57.38,0,0,0-16.9,2Z"/><path class="cls-1" d="M364.76,96.91l6.7.45q-.07.83-1.35,1c-.25,2.1-.5,4.9-.6,6.75l1.85.7a32.24,32.24,0,0,0-2.4,6.75c5.35-5,10.9-8,14.8-8,4.85,0,7.5,3.4,7.5,9.35,0,.6-.05,1.25-.1,1.9-.45,5-.85,10.3-.85,13.5,0,2.95.25,4.45,2.15,4.45,1.4,0,4.4-1.6,6.45-3.35,0,1.35.4,4.45.6,5.5-2.5,1.75-5.55,3.1-7.9,3.1-4.8,0-6.4-2.8-6.4-8.6,0-2.45.85-15.2.85-15.35,0-3.7-1.3-5.4-3.45-5.4-3.3,0-8.85,3.45-13.75,8.75,0,10.35,0,19.45.05,22.4H364v-18.3a49.4,49.4,0,0,1-8.4,10.6l-2.4-4.6c3.8-3.35,8.8-9.25,10.9-14,.05-1.35.05-2.5.1-4a52.29,52.29,0,0,1-8.85.85l-.1-4.85a53.18,53.18,0,0,0,9.15-.7Z"/><path class="cls-1" d="M424.76,117a28.27,28.27,0,0,1,10.95-2.3c7.75,0,12.9,4.6,12.9,12.2,0,9-7.9,14.15-18.35,14.15-6.5,0-11-2.8-11-7.55,0-3.85,3.9-7,8.55-7a10.23,10.23,0,0,1,10.1,8.4,8.31,8.31,0,0,0,5.5-7.9c0-4.85-3.75-7.95-9.4-7.95-7.15,0-13.95,3.1-17.4,6.4-1.3,1.25-3.3,3.3-4.6,4.75l-3.55-3.5c4-4.1,17.4-16.9,24.15-23.15-2.65.35-12,.8-16.8,1a1.58,1.58,0,0,1-1.1.8l-.5-5.75c6.6,0,20.1-.5,23.55-1l.75-.4,3.45,4.2a3,3,0,0,1-1.4.55c-3.05,2.35-11.75,10.4-15.8,14Zm4.75,19.7a22.67,22.67,0,0,0,3.75-.4c-.45-3.25-2.9-5.8-5.9-5.8-2.1,0-4,1.15-4,3C423.36,136,426.81,136.66,429.51,136.66Z"/><path class="cls-1" d="M493.61,95.81a36.86,36.86,0,0,1,6.1,6.9l-1.1.85,2.35,1.15a2,2,0,0,1-.85.7c-4.2,18.75-13.35,29.7-29.7,35.75a35.25,35.25,0,0,0-3.4-4.1c15.6-5.2,24.1-15.75,26.8-29.2H463.36v-4.7h32.3l.4-.25a42.39,42.39,0,0,0-4.75-5.35Zm10.9,7.1a37.88,37.88,0,0,0-5.9-7L501,94.11a40.41,40.41,0,0,1,6.05,7Z"/><path class="cls-1" d="M556.81,113.11h-10.3v2.55c0,10-3.25,19.45-15.85,25.3a27.15,27.15,0,0,0-3.65-3.5c12-5.3,14.5-13.55,14.5-21.7v-2.65h-14v11.65h-5V113.11h-9.2v-4.8h9.2V97.76l6.3.4c-.05.5-.5,1-1.35,1.15v9h14V97.16l6.35.35c-.05.5-.45.9-1.35,1v9.75h10.3Zm-7.35-14.25a31.62,31.62,0,0,1,5.45,6.55l-2.2,1.75a37.87,37.87,0,0,0-5.45-6.6Zm5-4.2a33.88,33.88,0,0,1,5.6,6.6l-2.2,1.75a32.43,32.43,0,0,0-5.5-6.6Z"/><path class="cls-1" d="M567,115.66h41.75v5H569a2.1,2.1,0,0,1-1.6.9Z"/><path class="cls-1" d="M648.46,134.16a88.8,88.8,0,0,0,10.8-.9c0,1.65.15,3.45.2,5.05a103.3,103.3,0,0,1-10.55.6H637.06c-8.15,0-11.95-3.45-11.95-11V98.81l6.45.35c0,.5-.45.9-1.45,1v15.5a152.1,152.1,0,0,0,23.25-9.55l3.45,4.75a1.21,1.21,0,0,1-.75.2,2,2,0,0,1-.75-.15,179.28,179.28,0,0,1-25.2,9.45V128c0,4.6,2.2,6.2,7,6.2Zm4.9-36.95a42.59,42.59,0,0,1,5.9,7.15l-2.5,1.85A39.1,39.1,0,0,0,651,99Zm6.55-2.7a38.1,38.1,0,0,1,6,7l-2.45,1.85a47.71,47.71,0,0,0-5.8-7Z"/><path class="cls-1" d="M673,115.66h41.75v5H675a2.1,2.1,0,0,1-1.6.9Z"/><path class="cls-1" d="M764.41,105.66a1.24,1.24,0,0,1-.75.75,65.48,65.48,0,0,1-7.15,16.1c2,1.15,4.35,2.65,6,3.85l-2.85,4.75a72.18,72.18,0,0,0-6.1-4.15,47.74,47.74,0,0,1-17.4,14.25,15.51,15.51,0,0,0-3.9-3.75,46.65,46.65,0,0,0,17-13.1,64.41,64.41,0,0,0-9.75-4.7l2.75-3.9a77.12,77.12,0,0,1,9.9,4.4,47,47,0,0,0,5.35-11.45H742.11A53.2,53.2,0,0,1,731,121.86a29,29,0,0,0-4.05-3.15c6.8-5,12.5-13.65,15.5-22.1l6.45,1.5c-.2.5-.7.7-1.5.7-.6,1.5-1.65,3.65-2.5,5.3h14.9l.9-.25Z"/><path class="cls-1" d="M779,115.66h41.75v5H781a2.1,2.1,0,0,1-1.6.9Z"/><path class="cls-1" d="M842.51,99.41c-.1.55-.6.85-1.6.9a121.33,121.33,0,0,0-2.6,22.2,56.36,56.36,0,0,0,.45,8.45c.8-2,2.85-6.65,3.5-8.35l2.55,3.45c-1.85,4.25-3.5,7.05-4.2,9.35a8.27,8.27,0,0,0-.4,2.35,6.35,6.35,0,0,0,.25,1.7l-5,.8c-1.65-4.8-2.25-10.85-2.25-17.55a157.22,157.22,0,0,1,2.45-24.3Zm30.9,37c-1.75.1-3.6.15-5.45.15a66.81,66.81,0,0,1-9.05-.5c-6.55-.9-9.4-4.45-9.4-8.6,0-3.5,1.8-6.5,4.5-9.8l4.7,1.7c-2.4,2.4-4,4.8-4,7.45,0,4.65,6.25,5,12,5a61.59,61.59,0,0,0,6.85-.35Zm-23-31.45a168.19,168.19,0,0,0,21.45-1.9l.5,4.9a173.88,173.88,0,0,1-21.8,1.8Z"/><path class="cls-1" d="M36,196.46a1.49,1.49,0,0,1-.85.7A77.64,77.64,0,0,1,25.51,214,190.19,190.19,0,0,1,43,230.16l-4.4,3.8a154,154,0,0,0-16.3-16.05C17.76,223.26,10.71,230,3.86,234a29.11,29.11,0,0,0-3.65-3.85c13.05-7.1,23.6-20.15,28.15-30.8H4.86v-4.75H31.11l.9-.3Z"/><path class="cls-1" d="M96.26,199.71a1.32,1.32,0,0,1-.9.7c-4.45,6.6-12.1,14.05-19.3,19.4a92.27,92.27,0,0,1,9.5,8.85l-4.35,3.8a102.44,102.44,0,0,0-22.7-18.6l3.45-3.6a97.85,97.85,0,0,1,10.15,6.65c6-4.35,12-10.1,15.4-15H53.11v-4.75H91.36l.75-.4Z"/><path class="cls-1" d="M119.36,213.46a41.9,41.9,0,0,1-9,14.65l-4.15-2.6a35.36,35.36,0,0,0,8.7-13.75Zm10.8-7.5v22.1c0,6.55-4.8,6.55-12.5,6.55a26,26,0,0,0-1.45-4.65c1.5,0,3.35.1,4.8.1,3.1,0,4.1,0,4.1-1.9V206H108.76v-4.75h16.35v-9.85l6.4.35c-.1.5-.45.95-1.35,1v8.45h16.3V206Zm9,5.45a94.36,94.36,0,0,1,10.1,14.15l-4.5,2.6a85.29,85.29,0,0,0-9.65-14.65Z"/><path class="cls-1" d="M163.71,196c1.5,0,3.65-.05,5-.15,5.1-.4,28.5-1.95,36-2.15l.05,5.3c-4.1-.15-6.75.15-10.6,2.75-6.45,4.1-13.45,11.55-13.45,17.6,0,6.3,5,10,16.6,11.4l-2.4,4.95c-14.25-1.85-19.65-7.55-19.65-16.3,0-6.55,6.25-14.8,14.5-20.25-5.85.45-18.95,1.45-24.4,2a1.92,1.92,0,0,1-1.2.8Zm32.95,10.95a32.91,32.91,0,0,1,6.4,6.85l-2.45,1.9a34.81,34.81,0,0,0-6.2-6.85Zm5.65-4.45a30.17,30.17,0,0,1,6.4,6.8l-2.4,2a35.78,35.78,0,0,0-6.25-6.85Z"/><path class="cls-1" d="M266.51,209.91h-12a34.51,34.51,0,0,0,13.1,9.05,20.23,20.23,0,0,0-3.15,3.75,40.4,40.4,0,0,1-15.25-12.8H238.36a37.17,37.17,0,0,1-6.5,7.2c4.55-1.1,10-3.1,13-5.1l4.4,1.9a1.15,1.15,0,0,1-1,.4c-3.45,2.25-9.5,4.55-14.55,5.85a21.64,21.64,0,0,0-2.35-2.6,39.85,39.85,0,0,1-8.55,5.4,23,23,0,0,0-3.2-3.45,34.31,34.31,0,0,0,13.1-9.6H221v-4h14.6a36.87,36.87,0,0,0,2.05-4c-4.75.15-9.05.25-12.5.35a1,1,0,0,1-.85.75l-1.75-4.95c2.5-.05,5.5-.05,8.85-.1a60,60,0,0,0,5.2-8.4l5.6,1.8c-.15.35-.6.5-1.25.5a74,74,0,0,1-4.35,6c5.4-.1,11.3-.25,17.15-.35-1.65-1.4-3.4-2.7-5-3.8l3.75-2.25c4.4,2.95,10,7.35,12.6,10.55-1.65,1.15-2.85,1.8-4,2.5a38.66,38.66,0,0,0-3.25-3.45c-4.85.25-9.8.45-14.55.6l.45.15c-.15.4-.6.6-1.25.6a36.33,36.33,0,0,1-1.6,3.45h25.65Zm-5.3,15.3c-.15.35-.55.55-1.2.5-6.15,5.9-17.4,9.25-30.25,10.9a16.21,16.21,0,0,0-2.2-4c12-1.15,23.15-4,28.65-9.4Zm-6.85-5.55a1.21,1.21,0,0,1-1.1.45c-4.55,3.35-12.65,6.3-20,7.95a14.76,14.76,0,0,0-2.55-3.4c7-1.25,15-3.8,19.15-6.95Z"/><path class="cls-1" d="M301.41,199.16l2.5.15c0,.35-.05,1-.05,1.55-.4,22.5-.75,30-2.25,32.2-1.55,2.4-3.3,2.5-9,2.35a11.73,11.73,0,0,0-1.35-4.75c1.95.15,3.75.2,4.6.2a1.62,1.62,0,0,0,1.6-.9c1-1.4,1.4-7.8,1.75-26.15h-6.5c-.45,13.15-2.1,25-8.25,32.6a15.92,15.92,0,0,0-3.55-3.3c5.45-6.65,6.85-17.1,7.2-29.3h-6.25v-4.65h6.35c.05-3.1.05-6.3.05-9.55l6,.3c-.1.55-.5.85-1.35,1,0,2.8-.05,5.55-.1,8.3Zm6.6-3.9h17.45v39.5h-4.7v-3.2h-8.2v3.55H308Zm4.55,31.65h8.2v-27h-8.2Z"/><path class="cls-1" d="M352.06,191.86c-.1.6-.55,1-1.55,1.1-.4,6.3-.9,18.7-.9,26,0,7,3.45,10.2,9.25,10.2,5.5,0,11.35-2.75,17.05-8.85a31.52,31.52,0,0,0,2.95,4.35c-6.05,6.45-12.85,9.65-20.05,9.65-10.15,0-14.6-5.7-14.6-15.35,0-6.5.4-21.5.8-27.6Z"/><path class="cls-1" d="M389.71,196c1.5,0,3.65-.05,5.05-.15,5.1-.4,28.5-1.95,36-2.15l.05,5.3c-4.1-.15-6.75.15-10.6,2.75-6.45,4.1-13.45,11.55-13.45,17.6,0,6.3,4.95,10,16.6,11.4l-2.4,4.95c-14.25-1.85-19.65-7.55-19.65-16.3,0-6.55,6.25-14.8,14.5-20.25-5.5.3-18.95,1.45-24.4,2a1.92,1.92,0,0,1-1.2.8Z"/><path class="cls-1" d="M443.91,221.76a107.92,107.92,0,0,1,11,10.85l-4.1,3.75a106.44,106.44,0,0,0-10.65-11.3Z"/><path class="cls-1" d="M511.81,219.31h-7.25c-.95,4.6-3.55,8.85-9.55,11.4a76.33,76.33,0,0,0,8,.25c5.75,0,12.8-.2,17.3-.5a23,23,0,0,0-1.55,4.85c-3.45.15-8.55.25-13.35.25-11.4,0-18.05,0-23-6-2.2,2.1-4.5,4.15-6.4,5.75a.88.88,0,0,1-.6.95l-2.55-5.2a69.75,69.75,0,0,0,7-5.3v-12h-6.1v-4.4h10.75v16.1c2,3.15,5.45,4.7,10.1,5.25a15.15,15.15,0,0,0-2.8-3.4c5-1.65,7.15-4.7,8.1-8h-5.75v2.6h-4.45v-17.7l5.55.35c-.05.4-.35.7-1.1.8V215h6.35V201.91H486.86v-4.2h7.95a30.77,30.77,0,0,0-3.7-6.35l3.95-1.65a29.16,29.16,0,0,1,4.3,7.15l-1.9.85h10.35c-.65-.3-1.35-.55-1.9-.75a50.14,50.14,0,0,0,4.25-7.45l5.6,1.85c-.2.35-.6.5-1.25.45a55.7,55.7,0,0,1-4.2,5.9h8.8v4.2h-14V215h6.7V204.21l5.65.35c-.05.45-.35.7-1.1.8v16.55h-4.55Zm-34.25-28.55a37.62,37.62,0,0,1,8.35,8l-3.8,3.1a36.56,36.56,0,0,0-8.05-8.25Z"/><path class="cls-1" d="M554.26,227.91h-9.1v8.45h-4.45v-8.45h-9.45v-4.2h9.45v-3.55h-7.55v-17.9h7.55v-3.4H532v-4.15h8.7v-5.15l5.65.35c-.05.4-.4.65-1.15.8v4h8.55v4.15h-8.55v3.4h7.85v17.9h-7.9v3.55h9.1Zm-17.4-22.25v3.9h4.3v-3.9Zm0,7.15v3.9h4.3v-3.9Zm12.35-3.25v-3.9h-4.5v3.9Zm0,7.15v-3.9h-4.5v3.9Zm22.95,2a65.41,65.41,0,0,1,6.45,15.8l-4.35,1.85c-.2-1.05-.5-2.2-.85-3.45-6.7.75-13.35,1.5-17.85,1.9a1,1,0,0,1-.85.75l-1.55-5.3c1.2,0,2.6-.15,4.05-.25a142.24,142.24,0,0,0,3.7-17.1h-6.8v-4.5h24v4.5H565.71a154.51,154.51,0,0,1-4,16.8c3.25-.25,6.8-.5,10.35-.8a83.69,83.69,0,0,0-3.9-8.55Zm4.05-25.8v4.5H556.46v-4.5Z"/><path class="cls-1" d="M635.91,211h-5.1a19.64,19.64,0,0,0,6.3,6.5,16.45,16.45,0,0,0-3.05,3.65,20.14,20.14,0,0,1-2.3-1.9,3.89,3.89,0,0,1-.1.8c-.5,9.5-1,13.2-2.25,14.6-1.1,1.25-2.35,1.55-5.65,1.55-.85,0-1.8,0-2.75,0a10.77,10.77,0,0,0-1-4,38.44,38.44,0,0,0,4.2.2,1.84,1.84,0,0,0,1.5-.5c.65-.75,1.05-3.25,1.45-9.45h-6.3c-1.3,6.15-4.2,11.1-11.65,14.2a13.59,13.59,0,0,0-2.7-3.6c5.95-2.3,8.65-5.85,9.95-10.6h-6.2v-3.25a20.11,20.11,0,0,1-2.8,2.2,23.91,23.91,0,0,0-1.95-2.75v12.6c0,4.7-2.05,5.2-8.05,5.1a19.33,19.33,0,0,0-1.2-4.4c1.9.1,3.65.1,4.2.1s.8-.25.8-.9V219.46h-5.35c-.4,5.95-1.3,12.15-3.3,16.85a14,14,0,0,0-3.7-2.05c3-7.1,3.2-17.25,3.2-24.7v-18.2h13.4v26a20.76,20.76,0,0,0,6-6.45h-5v-4h7.05a39,39,0,0,0,1.7-4.65h-7.55v-3.85h8.55a89.62,89.62,0,0,0,1.4-9l5.3.75a1.08,1.08,0,0,1-1.1.75c-.35,2.6-.75,5.1-1.25,7.5h5.2l-.7-.3a52,52,0,0,0,3.45-8.05l5.2,1.8c-.15.35-.6.5-1.2.5a56.66,56.66,0,0,1-3.3,6h5.8v3.85H627a36.82,36.82,0,0,0,1.7,4.65h7.2Zm-39.75-1.4c0,1.7,0,3.55-.1,5.5h5.15v-7.65h-5.05Zm5.05-13.85h-5.05v7.35h5.05Zm10.65-5.35a24.7,24.7,0,0,1,2.85,6.3l-3.75,1.4a24.9,24.9,0,0,0-2.6-6.45Zm17.45,28,1.9.25a29.48,29.48,0,0,1-5.1-7.7h-9.7a28.33,28.33,0,0,1-5.45,7.5h6.2c.2-1.6.3-3.3.4-5.1l5.4.45c-.1.4-.45.7-1.15.8-.1,1.3-.2,2.6-.35,3.85h6.9Zm-4.8-11.4a45.61,45.61,0,0,1-1.4-4.65h-3.4q-.68,2.4-1.5,4.65Z"/><path class="cls-1" d="M671.11,193.11c-.25.2-.35.2-1.2.2a46.75,46.75,0,0,1-7.5,2.8v8.6h9.25v4.4h-9.25v3.2c2.4,1.8,7.75,6.35,9.15,7.55l-2.7,4c-1.4-1.65-4.1-4.4-6.45-6.65v19.1h-4.65V216.11c-2.4,5.25-5.4,10.3-8.45,13.5a25.78,25.78,0,0,0-2.5-4.6c3.75-3.65,7.7-10,10-15.9h-9v-4.4h10v-7.4c-3,.7-6.1,1.3-9,1.8a12.8,12.8,0,0,0-1.5-3.65c7.2-1.3,15.3-3.45,19.7-5.9Zm9.55,2.9c0,.4-.35.7-1.15.8v27.05h-4.6v-28.2Zm6.45-5.45,5.85.3c-.05.45-.3.75-1.15.85v38.65c0,5.45-2.25,6.15-12,6a21.63,21.63,0,0,0-1.7-4.85c2.05.1,4.05.1,5.55.1,3.15,0,3.5,0,3.5-1.3Z"/><path class="cls-1" d="M723.06,191.86c-.1.6-.55,1-1.55,1.1-.4,6.3-.9,18.7-.9,26,0,7,3.45,10.2,9.25,10.2,5.5,0,11.35-2.75,17-8.85a31.52,31.52,0,0,0,3,4.35c-6.05,6.45-12.85,9.65-20.05,9.65-10.15,0-14.6-5.7-14.6-15.35,0-6.5.4-21.5.8-27.6Z"/><path class="cls-1" d="M798.76,232.26a54.59,54.59,0,0,0-13.5-8.15,13.54,13.54,0,0,1-1.2,6.2c-.65,2.6-3.3,4.65-8.85,4.65-6.7,0-12.1-3.35-12.2-8.65,0-5.55,5.55-8.6,11.85-8.65A36.64,36.64,0,0,1,780,218c0-1-.2-2-.3-2.9-.4-6.6-1-17.75-1-24.25l6.7.35c0,.5-.4.95-1.3,1.15l.05,8.95a120.83,120.83,0,0,0,15.8-1.7l.5,5a132.22,132.22,0,0,1-16.25,1.4c0,3.6.3,6.75.5,9.6.1,1,.25,2.15.3,3.25a60.51,60.51,0,0,1,17,8.75Zm-24-10.5c-4.25.05-7.25,1.85-7.2,4.4,0,3,3.5,4.45,7.25,4.45,3.2,0,5.5-1.45,5.5-4.15,0-1.45,0-2.85-.1-4A19.2,19.2,0,0,0,774.71,221.76Z"/><path class="cls-1" d="M816.36,207.81c7.6-2.05,17.1-4.15,21-4.15,7.2,0,12.4,3.8,12.3,12.05-.1,9.4-7.25,15.95-21.35,20a21.73,21.73,0,0,0-3.3-4.35c13-3.15,19.15-9,19.15-15.4,0-4.45-2-7.5-7.1-7.5-4.1,0-11.4,1.7-17.7,4,0,.45-.5,1-1.05,1.25Zm7.6-17.2a86.12,86.12,0,0,1,19.9,3.65l-1.35,5a89.14,89.14,0,0,0-19.8-3.8Z"/><path class="cls-1" d="M868.61,228.46a4,4,0,0,1,3.95-4.05,4.08,4.08,0,1,1-3.95,4.05Zm1.75-8.25-1-26.55H876l-1,26.55Z"/></g></g></svg>