<svg xmlns="http://www.w3.org/2000/svg" viewBox="0 0 872.48 335.51"><defs><style>.cls-1{fill:#fff;stroke:#fff;stroke-miterlimit:10;stroke-width:.24px}</style></defs><title>アセット 17</title><g id="レイヤー_2" data-name="レイヤー 2"><g id="文字"><path class="cls-1" d="M.12 12.6V8.8h18.05v3.8zm16.8 16.85v15H6.27v2.15H2.32V29.45zm-.05-13.7v3.7H2.37v-3.7zm-14.5 10.5v-3.7h14.5v3.7zM16.72 2.1v3.7H2.57V2.1zm-3.8 31.15H6.27v7.35h6.65zm15.8 4.55l5.5-1 .35 4c-5.1 1.15-10.35 2.35-13.75 3.1a1 1 0 0 1-.75.75l-1.85-4.8c1.75-.3 3.85-.7 6.1-1.1v-13.6h-4.75V21h13.7v4.15h-4.55zm17.9-23.2H39c.25 14.3 1.3 26.85 4.3 27.55.6 0 1.15-3.25 1.5-6.95a13 13 0 0 0 3 2.65c-.65 6.35-2.5 9.35-5 9.35-6.5 0-8-14.3-8.4-32.6H19v-4.35h15.3c0-3.3 0-6.6-.1-9.85l6 .35c0 .45-.35.75-1.2.9v8.6h7.65zM42.37.85a28.25 28.25 0 0 1 4.85 6.35l-3.45 1.9a33 33 0 0 0-4.7-6.55zM66.92 17.5a70.72 70.72 0 0 1-8.2 5.2 25.14 25.14 0 0 0-2.9-3.7C64.57 14.55 73 6.8 76.92.35l6.55.4a1.38 1.38 0 0 1-1.2.9c4.9 6.6 13.7 13.25 21.4 16.6a23.74 23.74 0 0 0-3.1 4.25 67.63 67.63 0 0 1-8.25-5.15v3.7h-25.4zM64 47.3V26.8h31.4v20.5h-4.83v-2h-21.9v2zm27.57-30.5A59.13 59.13 0 0 1 79.42 5.15a55.31 55.31 0 0 1-11.6 11.65zm-1 14.25h-21.9v10h21.9zm31.65-.35c-.1.5-.55.6-1 .55-.6 4.2-1.65 9-3.15 12a23.79 23.79 0 0 0-3.4-1.65c1.35-2.8 2.3-7.55 2.85-11.95zm33.7-25.65l3.2 1.7a1.31 1.31 0 0 1-.75.6 41 41 0 0 1-7.5 12.45 35.39 35.39 0 0 0 11.95 7 20.34 20.34 0 0 0-3 3.8 38.48 38.48 0 0 1-11.9-7.65 44.18 44.18 0 0 1-12.55 8.2 16.3 16.3 0 0 0-2.1-3l-1.4.65a21.76 21.76 0 0 0-.9-2.75l-3.6.25v21h-4.2V26.55c-2.5.1-4.75.25-6.55.3a1 1 0 0 1-.85.7l-1-4.9h3.5c1-1.15 2-2.5 2.9-3.9a44.26 44.26 0 0 0-6.1-7.1l2.35-3.15c.45.4.9.8 1.35 1.25a71.59 71.59 0 0 0 4.2-9.3l4.8 2a1.35 1.35 0 0 1-1.2.45 74.85 74.85 0 0 1-5.25 9.5 26.81 26.81 0 0 1 2.3 2.75c2-3 3.75-6.2 5.1-8.85l4.65 2.15a1.57 1.57 0 0 1-1.3.45 125.85 125.85 0 0 1-9.5 13.7l6.8-.15c-.75-1.5-1.55-3-2.35-4.35l3.45-1.45a48.47 48.47 0 0 1 4.8 9.5 41 41 0 0 0 9.6-6.35 45.32 45.32 0 0 1-4.25-5.9 40.8 40.8 0 0 1-4.65 5.2 13.84 13.84 0 0 0-3.4-3.1A39.39 39.39 0 0 0 142.87.4l5.5.8a1.14 1.14 0 0 1-1.15.75c-.45 1.05-.9 2.15-1.45 3.25h9.4zM132 29.4a53.85 53.85 0 0 1 3.35 9.75c-1.05.4-2.1.75-3.8 1.35a53.42 53.42 0 0 0-3.1-9.95zm23.5 18.25a86.69 86.69 0 0 0-19.25-8.15l2.8-3.35a101.36 101.36 0 0 1 19.25 7.75zm-3.8-11.45a48 48 0 0 0-10.1-5.85l2.75-3a54.72 54.72 0 0 1 10.15 5.55zm-8.13-26.9l-.55.95a34.32 34.32 0 0 0 4.7 6.55 31.85 31.85 0 0 0 5.05-7.5zM211 3.85l4.3 2.7a1.49 1.49 0 0 1-1 .6 75.93 75.93 0 0 1-17.08 14.55v19.7c0 5.4-2.45 5.85-13.6 5.85a21 21 0 0 0-2-4.85c2.5.1 5.05.15 6.85.15 3.5 0 3.7 0 3.7-1.2V17.6l2.8.15a62.89 62.89 0 0 0 10.6-8.9h-31.2v-4.7h35.7zm30.52 8.9h7c.2-1.1.35-2.3.5-3.55h-19.7V4.8h20.15c.15-1.65.3-3.2.35-4.6l6.3.55c-.15.45-.55.7-1.25.8-.1 1-.2 2.1-.35 3.25H274v4.4h-20c-.2 1.25-.4 2.45-.65 3.55h15.15v23.9h-27zm32.85 27.6v4.4h-37.85v2.55h-4.65v-33l5.85.35c-.05.4-.35.7-1.2.85v24.9zm-10.6-20.7V16.2H246v3.45zm0 6.75v-3.5H246v3.5zm0 6.75v-3.5H246v3.5zm62.45-30.8c-.2.35-.65.5-1.3.5a55.3 55.3 0 0 1-5 5.6h12.35v4.3h-45.4v-4.3h12.5a33.86 33.86 0 0 0-5.15-6.2l4.3-1.9a37 37 0 0 1 6 6.9l-2.7 1.2h15.8l-2.55-1.1a47 47 0 0 0 5.45-7.2zm-18 14.5V42.4c0 4.45-2.35 4.85-9 4.85a14.12 14.12 0 0 0-1.55-4.1c.95.05 1.9.05 2.7.05 3.3 0 3.3 0 3.3-.85V36.6h-9.05v10.65h-4.5v-30.4zm-4.6 4h-9.05V25h9.05zm-9 12.15h9.05v-4.35h-9.05zm24.05-15.35c-.05.45-.35.7-1.15.85v19.55H313v-20.7zM328.72 42c0 4.55-1.9 5.45-10.45 5.35a18.39 18.39 0 0 0-1.7-4.5c1.45.05 2.85.1 3.95.1 3.5 0 3.5 0 3.5-1v-26l5.85.3c-.05.4-.35.7-1.15.85zm28.2-37.75c-.1.55-.6.85-1.6.9a121.33 121.33 0 0 0-2.6 22.2 56.36 56.36 0 0 0 .45 8.45c.8-1.95 2.85-6.65 3.5-8.35l2.55 3.45c-1.85 4.25-3.5 7.05-4.2 9.35a8.27 8.27 0 0 0-.4 2.35 6.35 6.35 0 0 0 .25 1.7l-4.95.8c-1.65-4.8-2.25-10.85-2.25-17.55a157.22 157.22 0 0 1 2.45-24.3zm30.9 37c-1.75.1-3.6.15-5.45.15a66.81 66.81 0 0 1-9.05-.5c-6.55-.9-9.4-4.45-9.4-8.6 0-3.5 1.8-6.5 4.5-9.8l4.7 1.7c-2.4 2.4-4 4.8-4 7.45 0 4.65 6.25 4.95 12 4.95a61.59 61.59 0 0 0 6.88-.4zm-23-31.45a168.19 168.19 0 0 0 21.45-1.9l.5 4.9a173.88 173.88 0 0 1-21.8 1.8zm54.1 9.3l2.45.1c0 .4 0 1-.05 1.55-.3 16.8-.6 22.55-1.9 24.35-1 1.45-2.2 2-5.8 2-.9 0-1.85 0-2.85-.1a11.18 11.18 0 0 0-1.25-4.3c1.9.15 3.55.2 4.35.2a1.56 1.56 0 0 0 1.55-.75c.8-1.05 1.1-5.7 1.4-18.75h-5.55c-.65 9.2-2.25 18-6.95 23.9a12.77 12.77 0 0 0-3.45-3.3c5.55-7 6.05-19 6.25-31.25h-5.65V8.4h8.65V.45L416 .8c0 .45-.4.7-1.2.85V8.4h9v4.4h-12.1c-.05 2.1-.1 4.25-.2 6.35h6.4zm29.05-5h-3.7c-1.2 7.8-3.15 14.35-6.2 19.75a25.19 25.19 0 0 0 10.45 9.25 17.49 17.49 0 0 0-3.3 4.1 28.49 28.49 0 0 1-10-9 32.09 32.09 0 0 1-11.7 9.1 20.05 20.05 0 0 0-2.45-3.95 26.88 26.88 0 0 0 11.6-9.45 58.35 58.35 0 0 1-4.5-12.5 36.25 36.25 0 0 1-2.85 4.6 26.82 26.82 0 0 0-3.65-3c3.8-4.9 6.5-13.75 7.9-22.6l5.85 1.25c-.15.4-.55.65-1.25.65-.45 2.5-1 5.05-1.7 7.5H448zm-16.8 0l-.2.5a61.86 61.86 0 0 0 4.45 14.45 56.83 56.83 0 0 0 4.2-14.95zm56.1-1.55a63.52 63.52 0 0 1-14.5 2.65c-2 11-5.1 22.3-8.85 30.65l-5.1-1.8c4-8 6.95-17.9 8.8-28.6-.75.05-1.55.05-2.25.05-2.4 0-4.7 0-6.45-.05l-.05-4.75c1.6.1 4.2.1 6.6.1.9 0 1.85 0 2.85-.05.4-3 .8-6.5 1.1-9.5l6.75.65a1.66 1.66 0 0 1-1.45 1.1c-.3 2-.7 4.7-1.15 7.3a52.45 52.45 0 0 0 12.7-2.65zM500.52 45c-1.5.1-3.1.15-4.75.15a51.7 51.7 0 0 1-11.3-1c-4-1-6.1-3.8-6.05-7.2a11.77 11.77 0 0 1 3.15-7.35l4.2 1.65c-1.65 1.8-2.45 3.55-2.45 4.95 0 3.5 3.75 4.15 11.35 4.15a58 58 0 0 0 5.95-.25zm-19.15-24.65a61.67 61.67 0 0 1 18-2.5v4.75a57.38 57.38 0 0 0-16.9 2zm41.8-18.6l6.7.45q-.07.82-1.35 1c-.25 2.1-.5 4.9-.6 6.75l1.85.7a32.24 32.24 0 0 0-2.4 6.75c5.35-5 10.9-8 14.8-8 4.85 0 7.5 3.4 7.5 9.35 0 .6 0 1.25-.1 1.9-.45 5.05-.85 10.3-.85 13.5 0 2.95.25 4.45 2.15 4.45 1.4 0 4.4-1.6 6.45-3.35 0 1.35.4 4.45.6 5.5-2.5 1.75-5.55 3.1-7.9 3.1-4.8 0-6.4-2.8-6.4-8.6 0-2.45.85-15.2.85-15.35 0-3.7-1.3-5.4-3.45-5.4-3.3 0-8.85 3.45-13.75 8.75 0 10.35 0 19.45.05 22.4h-4.9V27.4A49.4 49.4 0 0 1 514 38l-2.4-4.6c3.8-3.35 8.8-9.25 10.9-14 .05-1.35.05-2.5.1-3.95a52.29 52.29 0 0 1-8.85.85l-.1-4.85a53.18 53.18 0 0 0 9.15-.7zm74.1 10.8a63.52 63.52 0 0 1-14.5 2.65c-2 11-5.1 22.3-8.85 30.65l-5.1-1.8c4-8 6.95-17.9 8.8-28.6-.75.05-1.55.05-2.25.05-2.4 0-4.7 0-6.45-.05V10.7c1.6.1 4.2.1 6.6.1.9 0 1.85 0 2.85-.05.4-3 .8-6.5 1.1-9.5l6.75.65a1.66 1.66 0 0 1-1.5 1.1c-.3 2-.7 4.7-1.15 7.3a52.45 52.45 0 0 0 12.7-2.65zM610.52 45c-1.5.1-3.1.15-4.75.15a51.7 51.7 0 0 1-11.3-1c-4-1-6.1-3.8-6.05-7.2a11.77 11.77 0 0 1 3.15-7.35l4.2 1.65c-1.65 1.8-2.45 3.55-2.45 4.95 0 3.5 3.75 4.15 11.35 4.15a58 58 0 0 0 6-.25zm-19.15-24.65a61.67 61.67 0 0 1 18-2.5v4.75a57.38 57.38 0 0 0-16.9 2zm34.4-4.35a74.58 74.58 0 0 1 13.15 4.55l-2.15 4.35a81.07 81.07 0 0 0-13.1-4.75zm2.2 23.9c15.75-5.15 26.95-13.5 33.65-28.4a44.15 44.15 0 0 0 4.35 3.2c-6.75 14.5-18.7 23.9-33.55 29.05a1.17 1.17 0 0 1-.65 1.3zm3.6-36.25a85.74 85.74 0 0 1 13.1 4.9l-2.35 4.25a71.34 71.34 0 0 0-13-5.15zm79 34.25v4h-34.1v-4h19.85c.75-4.8 1.9-13.6 2.4-18.4h-18.45v-3.95h19.85l.7-.25 3.35 1.55a1.31 1.31 0 0 1-.75.6c-.65 5-2.15 15.4-2.95 20.45zm12.8-17.4h41.75v5h-39.75a2.1 2.1 0 0 1-1.6.9zm86.25 8.75a148.44 148.44 0 0 0-16.55-7.85v24.2h-5.25V1.85l6.7.4c0 .55-.5 1-1.45 1.15v14.3l1-1.4a175.27 175.27 0 0 1 18.35 8.1zM832 44.4c-1.5-3.75-2.1-11.65-2.1-18.4a125.6 125.6 0 0 1 2.6-22.95L839 4.3a1.43 1.43 0 0 1-1.4.9 86.6 86.6 0 0 0-3 23.15 45.4 45.4 0 0 0 .3 6.55c.9-2.45 2.7-6.9 3.6-9l2.8 3.15c-.5 1-5 10-5 12.65a9.22 9.22 0 0 0 .4 2.35zm13-30.2c2.15.1 9.45.05 11.75-.15-.2-4.1-.35-7.65-.4-11.35l6.55.25c0 .5-.45.9-1.25 1 0 2.85 0 5.25.15 9.7a50.87 50.87 0 0 0 9.2-1.9l.5 4.9a50 50 0 0 1-9.5 1.65c.2 5 .45 10.15.6 13.4a37 37 0 0 1 9.75 6.05l-2.65 4.6a25.79 25.79 0 0 0-6.95-5.2c-.25 5-2.25 8.15-8.9 8.15-6 0-9.8-3.1-9.8-7.65 0-5.15 5-7.75 9.85-7.75a20.18 20.18 0 0 1 3.8.45c-.2-2.85-.4-7.5-.65-11.7-1.5.05-3.4.15-4.65.15h-7.3zm13.05 20.6a12 12 0 0 0-4.2-.8c-2.7 0-5.65 1-5.65 3.6 0 2.35 2.5 3.45 5.55 3.45s4.35-1.6 4.35-4.75zm-702.78 85.65c-2.3 5.8-5.3 10.9-9.05 14.55l-4.15-2.55a34 34 0 0 0 8.65-13.75zm10.8-7.4v22c0 6.65-5 6.6-12.5 6.5a25.56 25.56 0 0 0-1.45-4.6c1.5 0 3.35.1 4.8.1 3.05 0 4.1 0 4.1-1.9v-22h-16.35v-4.85H161v-10l6.4.3a1.32 1.32 0 0 1-1.35 1.1v8.6h16.3v4.75zm9 5.3a94.36 94.36 0 0 1 10.1 14.15l-4.5 2.55a86.85 86.85 0 0 0-9.65-14.6zm-1-20.6a38.59 38.59 0 0 1 6.05 7l-2.45 1.9a41.58 41.58 0 0 0-5.95-7.05zm7.4-2.2a38.72 38.72 0 0 1 6.1 7l-2.45 1.85a43.33 43.33 0 0 0-6-6.95zm14.9 20.95h41.75v5h-39.75a2.1 2.1 0 0 1-1.6.9zm66.4-10.85c0 .55-.5.9-1.2 1-.3 13.9-1.55 25.8-8.8 34.95a35.72 35.72 0 0 0-4.35-2.6c7-7.95 7.9-20.7 8-33.8zm12.9 27.35c7.45-3.85 12.2-10.85 14.75-19.1a36.68 36.68 0 0 0 4.45 2.75c-3.6 10.2-9.6 17.55-20.2 22.75a3.7 3.7 0 0 1-1 1.15l-3.75-4.5.7-.9v-36.1l6.3.35a1.39 1.39 0 0 1-1.25 1.1zm49.8-34.15c-.15.7-.75 1-1.65 1-.55 2.6-1.35 7.15-1.95 10.1 1.8-.2 3.7-.35 4.85-.35 7.95 0 10.5 5.35 10.5 13a41.27 41.27 0 0 1-1.5 10.55c-1.55 5.6-4.85 8.35-9.3 8.35-2 0-4.85-.95-9.05-4.25a20 20 0 0 0 1.75-4.25c3.7 2.75 5.75 3.35 7.2 3.35 2.4 0 3.8-1.75 4.7-4.75a39.52 39.52 0 0 0 1.3-9.2c-.05-5.3-1.75-8.2-6-8.15a40.79 40.79 0 0 0-5.4.4c-2.4 9.65-5.2 18.45-9.75 26.5l-4.6-2.2a86.09 86.09 0 0 0 9.3-23.75l-8.25 1.15-.4-4.9 9.6-1c.7-3.65 1.4-8.05 1.9-12.35zm14.4 7.15a29.08 29.08 0 0 0-6.15-7l2.35-1.7a29.18 29.18 0 0 1 6.35 6.9zm6.5 20.3c-1.4-6.75-5-13.1-9.15-16.7l4.1-2.65a33.47 33.47 0 0 1 10.25 17.55zm1.25-22.3a29 29 0 0 0-6.2-7l2.4-1.75a31.54 31.54 0 0 1 6.35 7zm35.65 3.9c0 .35-.5.7-1.15.75-1.4 7-3.85 12.3-15.75 15a13.59 13.59 0 0 0-2.55-4c10.6-2 12.65-6.1 13.55-12.4zm5.6 20.75v8.8h19.9v4.3h-44.4v-4.3H384v-8.8h-14.13v-4.3h33.95v4.3zM370 106.4v6.4h-4.65v-10.7H384v-5.7l6.05.35c-.05.4-.4.7-1.2.85v4.5h18.9v10.7h-4.9v-6.4zm19.9.6l5.85.35c0 .4-.35.7-1.15.85v7.8c0 1.3.3 1.5 2.3 1.5h6.35c1.45 0 1.75-.4 2-3a11.27 11.27 0 0 0 4.1 1.55c-.5 4.45-1.8 5.6-5.55 5.6h-7.4c-5.2 0-6.45-1.25-6.45-5.55zm52.87-1.7h18.35v24.4h-4.95V127h-13.4v16.2h-4.9V127h-13.1v3H420v-24.7h17.85v-8.9l6.15.35c0 .4-.4.7-1.25.85zm-18 17h13.1V110h-13.1zm18 0h13.4V110h-13.4zm41.15-22.05c-.1.55-.6.85-1.6.9a121.33 121.33 0 0 0-2.6 22.2 56.36 56.36 0 0 0 .45 8.45c.8-2 2.85-6.65 3.5-8.35l2.55 3.45c-1.85 4.25-3.5 7-4.2 9.35a8.27 8.27 0 0 0-.4 2.35 6.35 6.35 0 0 0 .25 1.7l-4.95.8c-1.65-4.8-2.25-10.85-2.25-17.55a157.22 157.22 0 0 1 2.45-24.3zm30.9 36.95c-1.75.1-3.6.15-5.45.15a66.81 66.81 0 0 1-9.05-.5c-6.55-.9-9.4-4.45-9.4-8.6 0-3.5 1.8-6.5 4.5-9.8l4.7 1.7c-2.4 2.4-4 4.8-4 7.45 0 4.65 6.25 5 12 5a61.59 61.59 0 0 0 6.85-.35zm-23-31.45a168.19 168.19 0 0 0 21.45-1.9l.5 4.9a173.88 173.88 0 0 1-21.8 1.8zm66.8 7.35c-.1.6-.3 1.15-.4 1.75 7.85 1.8 11.2 7 11.2 12.75 0 8.05-6.4 13.15-19.1 14.65a19.26 19.26 0 0 0-2-4.1c9.6-1 15.9-4.25 15.9-10.3 0-2.95-1.25-7.2-7.6-8.6a38.71 38.71 0 0 1-9.7 13.8 14.54 14.54 0 0 0 1 2.15l-4 2.65a16.45 16.45 0 0 1-1-2.1 15.67 15.67 0 0 1-8.65 3.05c-4.6 0-6.75-3.3-6.75-7.05 0-6.9 5.55-12.45 12.65-15.35-.05-2.35-.1-4.85-.05-7.45h-10.4l-.2-4.65c2.45.1 6.7.15 10.7.1 0-2.2.15-4.8.25-7.05l6.5.45c-.1.5-.55.9-1.35 1-.15 1.6-.25 3.7-.35 5.4a119.44 119.44 0 0 0 18.85-2l.5 4.8c-5.35 1.1-13.8 1.6-19.6 1.75-.1 2.2-.15 4.25-.1 6.25a26.87 26.87 0 0 1 8.45-.9 17.92 17.92 0 0 0 .45-2.25zm-17 18.3a68.37 68.37 0 0 1-1.3-10.4c-4.65 2.2-8.1 5.75-8.1 9.8 0 3.35 2.5 3.3 3.15 3.3a12.41 12.41 0 0 0 6.25-2.7zm10.15-13a23 23 0 0 0-6.9 1 50.24 50.24 0 0 0 .85 8.5 28.67 28.67 0 0 0 6.05-9.45zm46.4-.6a28.27 28.27 0 0 1 11-2.3c7.75 0 12.9 4.6 12.9 12.2 0 9-7.9 14.15-18.35 14.15-6.5 0-11-2.8-11-7.55 0-3.85 3.9-7 8.55-7a10.23 10.23 0 0 1 10.1 8.4 8.31 8.31 0 0 0 5.5-7.9c0-4.85-3.75-8-9.4-8-7.15 0-13.95 3.1-17.4 6.4-1.3 1.25-3.3 3.3-4.6 4.75l-3.55-3.5c4-4.1 17.4-16.9 24.15-23.15-2.65.35-12 .8-16.8 1a1.58 1.58 0 0 1-1.1.8l-.5-5.75c6.6 0 20.1-.5 23.55-1.05l.75-.4 3.45 4.2a3 3 0 0 1-1.4.55c-3.05 2.35-11.75 10.4-15.8 14zm4.75 19.7a22.67 22.67 0 0 0 3.75-.4c-.45-3.25-2.9-5.8-5.9-5.8-2.1 0-4 1.15-4 3 0 2.55 3.45 3.2 6.15 3.2zm51.55-21.3h-14.1v27.05h-4.7v-44.8h18.8zM650 102h-9.6v3.55h9.6zm-9.6 10.7h9.6v-3.8h-9.6zm37.4-14.25v38.85c0 5.55-2.4 5.9-11.25 5.9a18.65 18.65 0 0 0-1.5-4.65h-13.78v2.55h-4.35v-21.4h19.15v18.7h3.55c3.35 0 3.4 0 3.4-1.2v-21h-14.5V98.45zm-16.18 24.85h-10.35v4h10.35zM651.27 135h10.35v-4.2h-10.35zM673 102h-9.95v3.55H673zm-9.95 10.8H673v-3.9h-9.95zm36.87-12.55c-.1.55-.6.85-1.6.9a121.33 121.33 0 0 0-2.6 22.2 56.36 56.36 0 0 0 .45 8.45c.8-2 2.85-6.65 3.5-8.35l2.55 3.45c-1.85 4.25-3.5 7-4.2 9.35a8.27 8.27 0 0 0-.4 2.35 6.35 6.35 0 0 0 .25 1.7l-5 .8c-1.65-4.8-2.25-10.85-2.25-17.55a157.22 157.22 0 0 1 2.45-24.3zm30.9 36.95c-1.75.1-3.6.15-5.45.15a66.81 66.81 0 0 1-9-.5c-6.55-.9-9.4-4.45-9.4-8.6 0-3.5 1.8-6.5 4.5-9.8l4.7 1.7c-2.4 2.4-4 4.8-4 7.45 0 4.65 6.25 5 12 5a61.59 61.59 0 0 0 6.85-.35zm-23-31.45a168.19 168.19 0 0 0 21.45-1.9l.5 4.9a173.88 173.88 0 0 1-21.8 1.8zM109 205.6l2.75 1.05a1.65 1.65 0 0 1-.5.75c-2 15.5-7.45 26.3-15.3 31.85a16.39 16.39 0 0 0-3.3-3.4 28.54 28.54 0 0 0 10.05-12.45 35 35 0 0 0-5.7-4.55l2.4-3.4a32.27 32.27 0 0 1 5 3.55 54.72 54.72 0 0 0 2.1-8.95h-6a38.56 38.56 0 0 1-5.6 11.6 24.46 24.46 0 0 0-3.2-3.25c3.35-4.4 5.6-12 6.9-19.9h-6.3v-4.3h20.9v4.3h-10c-.4 2.45-.9 4.9-1.5 7.25h6.5zm17.55 14.4c.4 1.9.8 3.6 1.25 5.2a24.94 24.94 0 0 0 4.65-5.15l5.05 2.05a1.24 1.24 0 0 1-1.3.5 34.9 34.9 0 0 1-6.9 6.95c1.35 3.2 2.9 5.1 4.55 5.15 1.15 0 1.8-1.65 2.05-6.35a10.38 10.38 0 0 0 3.25 2.75c-.9 6.35-2.15 8.15-5.65 8.15-3.85 0-6.35-3.5-8-7.1a61.75 61.75 0 0 1-12.9 6 26.12 26.12 0 0 0-2.55-3.75 53.42 53.42 0 0 0 13.85-6.25 76.59 76.59 0 0 1-1.9-7.6l-9.35 1-.45-4 9.1-.9c-.2-1.4-.4-2.8-.55-4.25l-6.85.65-.4-3.85 6.85-.65c-.15-1.4-.25-2.8-.35-4.2l-7.4.65-.35-4 7.5-.65c-.1-2.65-.2-5.3-.2-8l5.9.35c0 .45-.4.7-1.2.85 0 2.1 0 4.25.1 6.4l8.55-.75a28 28 0 0 0-6.8-4.4l2.6-2.7a24.75 24.75 0 0 1 7.1 4.25l-2.6 2.85 3.35-.3.35 3.85-12.35 1.1c0 1.4.2 2.8.3 4.15l11-1.05.35 3.8-10.95 1.1.6 4.2 12.15-1.2.45 3.85zm28.5 2.05a38.6 38.6 0 0 1-1.35-10.15 93.18 93.18 0 0 1 1.55-15.85l6.45.95c-.15.65-.75.8-1.35.9a71.93 71.93 0 0 0-1.75 13.9 15.79 15.79 0 0 0 .1 1.75 69.55 69.55 0 0 1 3.85-7.25 26.07 26.07 0 0 0 2.4 3.15c-2.9 4.6-5.1 8.35-5.1 10.45a7 7 0 0 0 .15 1.35zm27.85-27.3c-.05.6-.45.95-1.3 1.15.4 4.15.85 11.1.85 17.15 0 9.7-3.3 18.6-18.8 25a32.84 32.84 0 0 0-3.55-4c13.7-5.25 17-13.4 17-20.9a180 180 0 0 0-1.2-18.7zm31.65.8v33.75H204v4.3h-4.4v-38zm-4.45 4.3H204v10.35h6.1zm-6.1 25.2h6.1v-10.7H204zm28.35-17h12.3v4.25h-29.2v-4.25h12.2v-5.65h-10.3v-4.2h10.3v-5.8l5.85.35c-.05.45-.35.7-1.15.85v4.6H243v4.2h-10.6zm7.8 5.15c-.05.45-.35.7-1.15.85v3.5h5.6v4.2H239v12.4c0 4.6-1.9 5.25-10.6 5.25a16.85 16.85 0 0 0-1.55-4.45c1.45.05 2.85.05 4 .05 3.45 0 3.5 0 3.5-.9v-12.35H215.6v-4.2h18.75V213zm-15.8 20.9a37 37 0 0 0-6.15-8.75l3.8-2.2a37.43 37.43 0 0 1 6.45 8.5zm47.8-21.9h-14.1v27.05h-4.7v-44.8h18.8zm-4.5-14.2h-9.6v3.55h9.6zm-9.6 10.7h9.6v-3.8h-9.6zm37.4-14.25v38.85c0 5.55-2.4 5.9-11.25 5.9a18.65 18.65 0 0 0-1.5-4.65H269v2.55h-4.4v-21.4h19.15v18.7h3.55c3.35 0 3.4 0 3.4-1.2v-20.9h-14.5v-17.85zM279.3 219.3H269v3.95h10.3zM269 231h10.3v-4.2H269zm21.7-33h-9.95v3.55h9.95zm-9.95 10.8h9.95v-3.9h-9.95zm51.4-13.95c-.15.7-.75 1-1.65 1-.55 2.6-1.35 7.15-1.95 10.1 1.8-.2 3.7-.35 4.85-.35 8 0 10.5 5.35 10.5 13a41.27 41.27 0 0 1-1.5 10.55c-1.55 5.6-4.85 8.35-9.3 8.35-2 0-4.85-.95-9.05-4.25a20 20 0 0 0 1.75-4.25c3.7 2.75 5.75 3.35 7.2 3.35 2.4 0 3.8-1.75 4.7-4.75a39.52 39.52 0 0 0 1.3-9.2c-.05-5.3-1.75-8.2-6-8.15a40.79 40.79 0 0 0-5.4.4c-2.4 9.65-5.2 18.45-9.75 26.5l-4.6-2.2a86.09 86.09 0 0 0 9.3-23.75l-8.25 1.15-.4-4.9 9.6-1c.7-3.65 1.4-8.05 1.9-12.35zm14.4 7.15a29.08 29.08 0 0 0-6.15-7l2.35-1.7a29.18 29.18 0 0 1 6.35 6.9zm6.5 20.3c-1.4-6.75-5-13.1-9.15-16.7l4.1-2.6a33.47 33.47 0 0 1 10.25 17.55zm1.25-22.3a29 29 0 0 0-6.2-6.95l2.4-1.75a31.54 31.54 0 0 1 6.35 6.95zm19.3 16.05c0-12.3 4.65-19.5 12.45-19.5s11.95 7.7 11.95 19.1c0 12.75-4.6 19.7-12.35 19.7s-12.05-7.75-12.05-19.3zm18.55-.2c0-8.95-1.9-14.7-6.3-14.7-3.8 0-6.4 5.3-6.4 14.7s2.3 14.85 6.3 14.85c4.9 0 6.4-7.05 6.4-14.85zm12.55.2c0-12.3 4.65-19.5 12.45-19.5 8 0 12 7.7 12 19.1 0 12.75-4.6 19.7-12.35 19.7s-12.1-7.75-12.1-19.3zm18.55-.2c0-8.95-1.9-14.7-6.3-14.7-3.8 0-6.4 5.3-6.4 14.7s2.3 14.85 6.3 14.85c4.9 0 6.4-7.05 6.4-14.85zm13.6-4.1a3.72 3.72 0 0 1 3.7-3.95 3.93 3.93 0 1 1-3.7 3.95zm0 19.7a3.72 3.72 0 0 1 3.7-3.95 3.67 3.67 0 0 1 3.7 3.95 3.71 3.71 0 1 1-7.4 0zm14.2-15.4c0-12.3 4.65-19.5 12.45-19.5s11.95 7.7 11.95 19.1c0 12.75-4.6 19.7-12.35 19.7s-12.05-7.75-12.05-19.3zm18.55-.2c0-8.95-1.9-14.7-6.3-14.7-3.8 0-6.4 5.3-6.4 14.7s2.3 14.85 6.3 14.85c4.9 0 6.4-7.05 6.4-14.85zm12.54.2c0-12.3 4.66-19.5 12.46-19.5s11.95 7.7 11.95 19.1c0 12.75-4.6 19.7-12.35 19.7s-12.06-7.75-12.06-19.3zm18.56-.2c0-8.95-1.9-14.7-6.3-14.7-3.8 0-6.4 5.3-6.4 14.7s2.3 14.85 6.3 14.85c4.9 0 6.4-7.05 6.4-14.85zm37.55-19.6c-.1.55-.6.85-1.6.9a120.61 120.61 0 0 0-2.61 22.2 56.36 56.36 0 0 0 .45 8.45c.81-2 2.85-6.65 3.51-8.35l2.55 3.45c-1.86 4.25-3.5 7-4.21 9.35a8.27 8.27 0 0 0-.4 2.35 6.78 6.78 0 0 0 .25 1.7l-5 .8c-1.65-4.8-2.25-10.85-2.25-17.55a157.22 157.22 0 0 1 2.45-24.3zm30.9 36.95c-1.75.1-3.6.15-5.45.15a66.81 66.81 0 0 1-9.05-.5c-6.55-.9-9.4-4.45-9.4-8.6 0-3.5 1.8-6.5 4.5-9.8l4.7 1.7c-2.4 2.4-4 4.8-4 7.45 0 4.65 6.25 5 12 5a61.59 61.59 0 0 0 6.85-.35zm-23-31.45a168.19 168.19 0 0 0 21.45-1.9l.5 4.9a173.88 173.88 0 0 1-21.8 1.8zm52.95-7.85a1.61 1.61 0 0 1-1.5 1c-.3 1.95-.8 4.45-1.2 6.15a61.59 61.59 0 0 0 13.5-2.35l.65 4.75a101.44 101.44 0 0 1-15 2.25 80.36 80.36 0 0 1-10.11 24.3l-4.9-1.8a64.85 64.85 0 0 0 9.65-22.35h-9.3v-4.55h5.75c1.55 0 3.1 0 4.41-.05.5-2.45.89-5.25 1.2-8zm13 21.6c.05 3.5.25 6.3.5 9.45a57.6 57.6 0 0 1 10.2 5.4l-2.4 4.6a46.57 46.57 0 0 0-7.8-4.75c0 2.75-1.1 8.25-9.75 8.25-5.45 0-9.9-2.65-9.85-7.7s5.2-7.75 10-7.75a20.79 20.79 0 0 1 4.75.65c-.2-2.8-.35-5.65-.35-7.6zm-4.1 12.6a14.23 14.23 0 0 0-5.15-1c-2.7 0-5.55 1.15-5.55 3.65 0 2.3 2.3 3.55 5.65 3.55 2.8 0 5-1.25 5-4.35zm14.3-16.95a79.12 79.12 0 0 0-17.5 2.2l-.7-4.35a75.86 75.86 0 0 1 18-2.55zm14.39.85c1-.2 2.75-.65 4.75-1.2 6.86-2.05 13.76-3.4 17.91-3.4 6.85 0 13.1 3.6 13.1 11.9 0 11.2-10.6 15.25-24.6 16.35a26.7 26.7 0 0 0-1.41-4.35c12-.8 21.06-4 21.06-11.65 0-5.6-4-8-8.75-8-3.5 0-9.25 1.15-16.26 3.55-1 .4-2.3.85-3.15 1.15a1.4 1.4 0 0 1-1 .9zm48.25-13.2c1.5 0 3.65-.05 5-.15 5.1-.4 28.51-2 36-2.15v5.3c-4.1-.15-6.75.15-10.6 2.75-6.34 4.1-13.34 11.55-13.34 17.6 0 6.3 5 10 16.6 11.4l-2.4 4.95c-14.25-1.85-19.65-7.55-19.65-16.3 0-6.55 6.25-14.8 14.5-20.25-5.5.3-19 1.45-24.41 2a1.92 1.92 0 0 1-1.2.8zm80.16 22a104.17 104.17 0 0 1-11.15.6 30 30 0 0 0-.25 3.7c0 6.55 3.9 7.75 9 7.75a23.94 23.94 0 0 0 6.3-.85 5.29 5.29 0 0 0 4.3-5.4c0-2.5-1.25-5.55-3.8-8.7 1.3-.4 3.4-1.15 4.55-1.65 3 4.1 4.5 7.95 4.5 11.2 0 10.05-13.05 10.05-16 10.05-7.4 0-13.81-1.9-13.81-12.6 0-1.15.1-2.4.21-3.7-3.66-.15-10.71-.5-10.71-6.1 0-2.1 1.3-4.45 4.2-6.65l3.76 1.85c-2 1.25-3.26 2.8-3.26 4 0 2.25 3.3 2.35 6.36 2.45.29-3.05.65-6.55 1.1-10.1a31.86 31.86 0 0 1-10.11-2.5l1.1-4.6a31.09 31.09 0 0 0 9.51 2.55c.35-3 .75-6 1-8.55l6.9.8c-.1.6-.75 1-1.7 1.1-.35 1.95-.75 4.5-1.15 7.05 1.35.1 2.9.15 4.45.15 1.75 0 3.55 0 5.1-.2l-.2 4.6c-1.45.1-3.2.15-4.95.15s-3.5-.05-5.05-.15c-.4 3.35-.8 6.75-1.1 9.85a89.21 89.21 0 0 0 10.75-.75zM48.62 302.35A40.94 40.94 0 0 1 58 307.3l-2.75 4a39.53 39.53 0 0 0-9.2-5.4zm-1.15 29.15a151.75 151.75 0 0 0 8.8-16.3l3.6 3a168.47 168.47 0 0 1-7.75 15.15 1.33 1.33 0 0 1 .3.8 1.19 1.19 0 0 1-.25.7zm4-42.75a38.6 38.6 0 0 1 9.1 5.25l-2.75 3.85a37.14 37.14 0 0 0-9-5.65zM93 316.25H79.82c2.45 6.9 7.05 12.3 13.7 14.9a19.15 19.15 0 0 0-3.3 4.15c-7.15-3.25-11.85-9.35-14.65-17.45-1.6 6.7-5.4 12.9-14.15 17.5a21.06 21.06 0 0 0-3.85-3.4c8.35-4.25 11.95-9.75 13.45-15.7H60v-4.45h11.77c.2-2 .25-4 .25-6v-4.7h-9.1v-4.5H72v-8.15l5.85.35c-.05.45-.35.7-1.15.8v7h11.9v15.2H93zM76.72 301.1v4.75c0 2 0 3.95-.2 5.95H84v-10.7zm27.6-5.3c3.1.2 7.55.2 11.2.2 1.9 0 4-.05 5.75-.1 0-2.3-.1-4.9-.1-6.55l6.45.35c-.05.55-.45.85-1.3 1 0 1.4 0 3.45.05 5a104.5 104.5 0 0 0 15.8-1.8l.55 4.6a108 108 0 0 1-16.4 1.65l.15 8.05a85.69 85.69 0 0 0 13.3-1.8l.5 4.4a87.51 87.51 0 0 1-13.7 1.6c.1 2.9.2 5.5.3 7.4a51.44 51.44 0 0 1 14.1 7.45l-3 4.3a47.34 47.34 0 0 0-10.9-6.95v1.9c0 4.45-3.2 7.25-9.7 7.25s-11.1-3-11.1-7.7c0-4.95 5.4-7.75 11.2-7.75a20.51 20.51 0 0 1 4.55.4c0-1.8-.1-3.9-.2-6.15-1 .05-2.1.05-3.1.05-8.75 0-12.2-1.05-12.2-4.55 0-1.95 1.5-3.7 4.9-5.85l3.4 1.95c-2.95 1.45-3.25 2.35-3.25 2.9 0 1.2 2 1.4 6 1.45 1.25 0 2.75 0 4.15-.05-.1-2.75-.15-5.5-.25-8.15-1.85.05-4 .1-5.9.1-3.3 0-8.1 0-11.2-.15zm17.9 27.05a18.73 18.73 0 0 0-5-.75c-3.4 0-6.45 1.4-6.45 3.85s2.9 3.75 6.7 3.75c3.45 0 4.8-1.5 4.8-4.45zm43.95-33.1l6.7.45q-.08.82-1.35 1.05c-.25 2.1-.5 4.9-.6 6.75l1.85.7a32.24 32.24 0 0 0-2.4 6.75c5.35-5 10.9-8 14.8-8 4.85 0 7.5 3.4 7.5 9.35 0 .6 0 1.25-.1 1.9-.45 5.05-.85 10.3-.85 13.5 0 2.95.25 4.45 2.15 4.45 1.4 0 4.4-1.6 6.45-3.35.05 1.35.4 4.45.6 5.5-2.5 1.75-5.55 3.1-7.9 3.1-4.8 0-6.4-2.8-6.4-8.6 0-2.45.85-15.2.85-15.35 0-3.7-1.3-5.4-3.45-5.4-3.3 0-8.85 3.45-13.75 8.75v22.4h-4.9v-18.3A49.4 49.4 0 0 1 157 326l-2.4-4.6c3.8-3.35 8.8-9.25 10.9-14 0-1.35 0-2.5.1-3.95a52.29 52.29 0 0 1-8.85.85l-.1-4.85a53.18 53.18 0 0 0 9.15-.7zM216 332.4c-1.5-3.75-2.15-11.65-2.15-18.4a125.91 125.91 0 0 1 2.65-22.95l6.4 1.25a1.36 1.36 0 0 1-1.35.9 85.46 85.46 0 0 0-2.95 23.45 51.6 51.6 0 0 0 .25 6.25c.9-2.45 2.7-6.9 3.65-9l2.75 3.15c-1.45 2.9-3.45 7.5-4.45 10.3a6.74 6.74 0 0 0-.45 2.35 8.91 8.91 0 0 0 .35 2.35zm11.6-29.8c2.1.1 9.4 0 11.8-.15-.2-4.1-.35-8.05-.45-11.75l6.55.25c-.05.5-.45.9-1.25 1.05 0 3.15.1 6.6.15 10.1a52.46 52.46 0 0 0 9.25-1.9l.45 4.9a50 50 0 0 1-9.55 1.6c.2 5 .45 9.75.65 13a36.73 36.73 0 0 1 9.7 6.05l-2.65 4.6a26.33 26.33 0 0 0-6.9-5.2c-.3 5.75-3.1 8.15-9 8.15s-9.8-3.1-9.8-7.65c0-5.15 5-7.75 9.85-7.75a19.71 19.71 0 0 1 3.8.45c-.15-2.85-.4-7.05-.6-11.3-1.5.05-3.45.15-4.7.15h-7.25zm13.25 20.2a12 12 0 0 0-4.2-.8c-2.7 0-5.7.95-5.7 3.6 0 2.35 2.55 3.45 5.6 3.45s4.35-1.6 4.35-4.75zm10.35-23.15a26 26 0 0 0-5.05-6.85l2.25-1.6a26.72 26.72 0 0 1 5.2 6.85zm5.5-3.65a29.69 29.69 0 0 0-5-6.8l2.2-1.65a24.87 24.87 0 0 1 5.2 6.85zm23.07 18.45c-1.5 1.9-3 3.7-4.5 5.25a31.35 31.35 0 0 0-2.35-4.15 62.63 62.63 0 0 0 11.1-16.1l5.05 1.95c-.2.35-.6.5-1.25.5-1.05 2-2.25 4.05-3.55 6.05l1.15.4a1.36 1.36 0 0 1-1.2.7v26.2h-4.45zm8.3-24a1.17 1.17 0 0 1-1.2.45 87.15 87.15 0 0 1-11.3 11.5A28.33 28.33 0 0 0 273 299a53 53 0 0 0 10.15-10.55zm31.4 27.1v4.1h-7.3v8.65c0 4.35-1.8 4.95-9.9 4.95a17.78 17.78 0 0 0-1.55-4.3c1.5.05 2.95.1 4 .1 2.35 0 2.65 0 2.65-.85v-8.55h-19.6v-4.1h19.65V314H289v-4.1h29.4v4.1h-5.2a1.23 1.23 0 0 1-1.05.5v3.1zm-3.9-27.8v17.05h-23.85v-17.05zm-17.7 41.65a42.06 42.06 0 0 0-5.95-7l3.2-2.1a39 39 0 0 1 6.1 6.75zm12.9-34.8v-3.35h-14.45v3.35zm0 6.75v-3.45h-14.45v3.45zm28.85 20.85c-1.55 4.15-4.15 8.5-7.2 11.1L328 333a24.54 24.54 0 0 0 7-10zm29.2-20.95v17.2h-34.4v-17.2h14.4V288.3l6 .35c-.05.45-.35.75-1.15.85v4.05h18.7V298h-18.7v5.25zm-4.8 12.8v-8.35H339v8.35zm-19.45 18.7a62 62 0 0 0-1.05-10.25l4.55-.45a62.84 62.84 0 0 1 1.3 10.1zm12.4-.1a53.87 53.87 0 0 0-3.5-10l4.3-1a56.76 56.76 0 0 1 3.85 9.85zm13.9.55a54.45 54.45 0 0 0-7.6-10.95l4.3-1.85a54.77 54.77 0 0 1 7.9 10.7zm30.05-42.95c-.1.55-.6.85-1.6.9a121.33 121.33 0 0 0-2.6 22.2 56.36 56.36 0 0 0 .45 8.45c.8-1.95 2.85-6.65 3.5-8.35l2.55 3.45c-1.85 4.25-3.5 7.05-4.2 9.35a8.27 8.27 0 0 0-.4 2.35 6.35 6.35 0 0 0 .25 1.7l-4.95.8c-1.65-4.8-2.25-10.85-2.25-17.55a157.22 157.22 0 0 1 2.45-24.3zm30.9 36.95c-1.75.1-3.6.15-5.45.15a66.81 66.81 0 0 1-9.05-.5c-6.55-.9-9.4-4.45-9.4-8.6 0-3.5 1.8-6.5 4.5-9.8l4.7 1.7c-2.4 2.4-4 4.8-4 7.45 0 4.65 6.25 4.95 12 4.95a61.59 61.59 0 0 0 6.85-.35zm-23-31.45a168.19 168.19 0 0 0 21.45-1.9l.5 4.9a173.88 173.88 0 0 1-21.8 1.8zm74.75 3.8a1.4 1.4 0 0 1-.5.7c-.75 14.85-2.2 23.9-4.1 27.2a7.65 7.65 0 0 1-7 3.85 51 51 0 0 1-8.95-1.1 34 34 0 0 0-.3-5 52.64 52.64 0 0 0 8.3 1.2 3.4 3.4 0 0 0 3.55-2.2c1.35-2.6 2.55-10.55 3-20.85h-14c-2.4 11-6.95 20.85-16.05 28a23.81 23.81 0 0 0-4-3c8.45-6.45 12.7-15.05 14.85-25.05h-13v-4.65h13.9c.55-3.5.75-6.45 1-10.5l6.65.6c-.1.55-.55.85-1.4 1-.3 3.4-.5 5.9-1 8.9H479l.95-.35zm29.35-11.95l6.6.35a1.55 1.55 0 0 1-1.5 1.15v7.45h11.75l1-.4 4.35 1.8a1.36 1.36 0 0 1-.7.7c-2.65 17.75-9.7 27.65-25.45 33.25a31.1 31.1 0 0 0-3.35-4.25c14.35-4.85 20.95-13.55 22.7-26.4h-25.9v11.5h-4.85v-16.2h15.35zm36.8 3.95a61.75 61.75 0 0 1 14.75 6.65l-2.6 4.5c-3.6-2.5-9.55-5.15-14.5-6.9zm-1 34.2c17.25-5.3 29-15.2 34.85-29a33.32 33.32 0 0 0 4.6 2.9c-6.2 13.65-18.3 24.35-35.05 30.1a1.6 1.6 0 0 1-.8 1.2zm79.9-10.5a148.44 148.44 0 0 0-16.55-7.85v24.2h-5.25v-43.75l6.7.4c0 .55-.5.95-1.45 1.15v14.3l1-1.4a175.27 175.27 0 0 1 18.35 8.1zm56.2-16.25a93.05 93.05 0 0 1-15.82 2.4c1.9 6.2 4.1 9.8 9 12l-3.5 4.25c-2.15-1.9-5.1-3.45-11-3.45l-1.1-4.05a40.25 40.25 0 0 1 5.3.6c-1.5-1.95-2.75-4.85-3.85-8.95-2.1.15-4.7.25-7.45.25-3 0-8.75-.05-12-.15v-4.75c2.9.1 6.85.2 12.1.2 2.1 0 4.45-.1 6.25-.25-.6-2.75-1.1-6.15-1.6-9.7l7 .15c0 .6-.5 1.05-1.35 1.2a79.1 79.1 0 0 0 1.1 8 79.18 79.18 0 0 0 16-2.8zm-9.2 32.3c-2.45.05-5.2.05-9.25.05-11.3 0-18-3.95-18-10.35 0-2.95 1.55-5.7 4.4-8.45l3.75 2.85c-2.1 1.7-3.1 3.7-3.1 5.4 0 4.3 5.65 5.8 13.15 5.8 4.15 0 7-.1 9.5-.25zm31.55-43.55l6.7.45q-.07.82-1.35 1.05c-.25 2.1-.5 4.9-.6 6.75l1.85.7a32.24 32.24 0 0 0-2.4 6.75c5.35-5 10.9-8 14.8-8 4.85 0 7.5 3.4 7.5 9.35 0 .6 0 1.25-.1 1.9-.45 5.05-.85 10.3-.85 13.5 0 2.95.25 4.45 2.15 4.45 1.4 0 4.4-1.6 6.45-3.35 0 1.35.4 4.45.6 5.5-2.5 1.75-5.55 3.1-7.9 3.1-4.8 0-6.4-2.8-6.4-8.6 0-2.45.85-15.2.85-15.35 0-3.7-1.3-5.4-3.45-5.4-3.3 0-8.85 3.45-13.75 8.75 0 10.35 0 19.45.05 22.4h-4.9v-18.3A49.4 49.4 0 0 1 698 326l-2.4-4.6c3.8-3.35 8.8-9.25 10.9-14 .05-1.35.05-2.5.1-3.95a52.29 52.29 0 0 1-8.85.85l-.1-4.85a53.18 53.18 0 0 0 9.15-.7zm62 20.05a28.27 28.27 0 0 1 11-2.3c7.75 0 12.9 4.6 12.9 12.2 0 9.05-7.9 14.15-18.35 14.15-6.5 0-11-2.8-11-7.55 0-3.85 3.9-7 8.55-7a10.23 10.23 0 0 1 10.1 8.4 8.31 8.31 0 0 0 5.5-7.9c0-4.85-3.75-7.95-9.4-7.95-7.15 0-13.95 3.1-17.4 6.4-1.3 1.25-3.3 3.3-4.6 4.75l-3.55-3.5c4-4.1 17.4-16.9 24.15-23.15-2.65.35-12 .8-16.8 1a1.58 1.58 0 0 1-1.1.8l-.5-5.75c6.6 0 20.1-.5 23.55-1l.75-.4 3.45 4.2a3 3 0 0 1-1.4.55c-3.05 2.35-11.75 10.4-15.8 14.05zm4.75 19.7a22.67 22.67 0 0 0 3.75-.4c-.45-3.25-2.9-5.8-5.9-5.8-2.1 0-4 1.15-4 3 0 2.55 3.45 3.2 6.15 3.2zm46.25-1.3a7 7 0 1 1-7-7 7 7 0 0 1 7 7zm-2.1 0a4.93 4.93 0 1 0-4.9 4.95 4.91 4.91 0 0 0 4.9-4.95z"/></g></g></svg>