<?xml version="1.0" encoding="utf-8"?>
<!-- Generator: Adobe Illustrator 22.0.0, SVG Export Plug-In . SVG Version: 6.00 Build 0)  -->
<svg version="1.1" id="レイヤー_1" xmlns="http://www.w3.org/2000/svg" xmlns:xlink="http://www.w3.org/1999/xlink" x="0px"
	 y="0px" viewBox="0 0 416.3 230.7" style="enable-background:new 0 0 416.3 230.7;" xml:space="preserve">
<style type="text/css">
	.st0{fill:#FFFFFF;}
</style>
<g>
	<g>
		<path class="st0" d="M4.9,0h35c5.8,0,10.3,1.9,13.4,5.8c3.1,3.9,4.7,8.6,4.7,14.3c0,4.8-1.1,8.9-3.3,12.3
			c-1.5,2.3-3.7,4.1-6.5,5.4c4.3,1.4,7.5,3.8,9.6,7.2c2,3.4,3.1,7.7,3.1,12.8c0,4.2-0.7,7.9-2.2,11.3c-1.5,3.3-3.5,6-6,7.9
			c-1.6,1.2-3.9,2.1-7.1,2.6c-4.2,0.7-7,1.1-8.4,1.1H4.9V0z M23.8,31.6h8.1c2.9,0,4.9-0.7,6.1-2c1.1-1.3,1.7-3.3,1.7-5.8
			c0-2.4-0.6-4.2-1.7-5.5c-1.1-1.3-3.1-2-6-2h-8.2V31.6z M23.8,63.3h9.5c3.2,0,5.5-0.8,6.8-2.3c1.3-1.5,2-3.6,2-6.1
			c0-2.4-0.7-4.3-2-5.7c-1.3-1.5-3.6-2.2-6.9-2.2h-9.5V63.3z"/>
		<path class="st0" d="M113.3,0H132v48.1c0,4.8-0.6,9.3-1.7,13.5c-1.1,4.2-2.9,7.9-5.2,11.1c-2.4,3.2-4.9,5.4-7.5,6.7
			c-3.6,1.8-8,2.7-13.1,2.7c-2.9,0-6.2-0.3-9.6-0.8c-3.5-0.5-6.4-1.6-8.7-3.3c-2.3-1.6-4.5-3.9-6.4-7c-1.9-3-3.3-6.1-4-9.3
			C74.6,56.6,74,52,74,48.1V0h18.6v49.2c0,4.4,0.9,7.8,2.7,10.3c1.8,2.5,4.4,3.7,7.6,3.7c3.2,0,5.7-1.2,7.6-3.7
			c1.8-2.4,2.7-5.9,2.7-10.4V0z"/>
		<path class="st0" d="M147.9,0h52.9v16.1l-34,47.2H202v17.3h-57.4V63.9l33.6-46.7h-30.3V0z"/>
		<path class="st0" d="M219,0h52.9v16.1l-34,47.2h35.2v17.3h-57.4V63.9l33.6-46.7H219V0z"/>
		<path class="st0" d="M288.3,0h50.1v17.2H307V30h29.1v16.5H307v15.9h32.3v18.3h-51V0z"/>
		<path class="st0" d="M356.4,80.6V0h31.1c5.8,0,10.2,0.7,13.2,2c3.1,1.3,5.5,3.8,7.4,7.3c1.9,3.6,2.8,7.9,2.8,13.1
			c0,4.5-0.7,8.3-2.1,11.6c-1.4,3.2-3.4,5.9-5.9,7.9c-1.6,1.3-3.8,2.4-6.6,3.2c2.2,1,3.8,2,4.9,3c0.7,0.7,1.7,2.1,3,4.2
			c1.3,2.2,2.2,3.8,2.6,5l9,23.4h-21.1l-10-24.6c-1.3-3.2-2.4-5.3-3.4-6.2c-1.3-1.2-2.9-1.9-4.6-1.9h-1.6v32.7H356.4z M375.1,32.7
			h7.9c0.9,0,2.5-0.4,5-1.1c1.2-0.3,2.3-1.2,3-2.5c0.8-1.4,1.2-2.9,1.2-4.7c0-2.6-0.6-4.6-1.9-6c-1.2-1.4-3.6-2.1-7-2.1h-8.2V32.7z"
			/>
		<path class="st0" d="M4.9,150h35c5.8,0,10.3,1.9,13.4,5.8c3.1,3.9,4.7,8.6,4.7,14.3c0,4.8-1.1,8.9-3.3,12.3
			c-1.5,2.3-3.7,4.1-6.5,5.4c4.3,1.4,7.5,3.8,9.6,7.2c2,3.4,3.1,7.7,3.1,12.8c0,4.2-0.7,7.9-2.2,11.3c-1.5,3.3-3.5,6-6,7.9
			c-1.6,1.2-3.9,2.1-7.1,2.6c-4.2,0.7-7,1.1-8.4,1.1H4.9V150z M23.8,181.7h8.1c2.9,0,4.9-0.7,6.1-2c1.1-1.3,1.7-3.3,1.7-5.8
			c0-2.4-0.6-4.2-1.7-5.5c-1.1-1.3-3.1-2-6-2h-8.2V181.7z M23.8,213.4h9.5c3.2,0,5.5-0.8,6.8-2.3c1.3-1.5,2-3.6,2-6.1
			c0-2.4-0.7-4.3-2-5.7c-1.3-1.5-3.6-2.2-6.9-2.2h-9.5V213.4z"/>
		<path class="st0" d="M77.3,150h50.1v17.2H96v12.8h29.1v16.5H96v15.9h32.3v18.3h-51V150z"/>
		<path class="st0" d="M185.7,217.4h-21.2l-2.9,13.3h-19.1l22.7-80.6h20.4l22.7,80.6h-19.6L185.7,217.4z M181.8,199.9l-6.7-29
			l-6.6,29H181.8z"/>
		<path class="st0" d="M213.3,150h56.8v19.9h-19.1v60.7h-18.7v-60.7h-19.1V150z"/>
		<path class="st0" d="M288.7,150h50.1v17.2h-31.4v12.8h29.1v16.5h-29.1v15.9h32.3v18.3h-51V150z"/>
		<path class="st0" d="M356.8,230.7V150h31.1c5.8,0,10.2,0.7,13.2,2c3.1,1.3,5.5,3.8,7.4,7.3c1.9,3.6,2.8,7.9,2.8,13.1
			c0,4.5-0.7,8.3-2.1,11.6c-1.4,3.2-3.4,5.9-5.9,7.9c-1.6,1.3-3.8,2.4-6.6,3.2c2.2,1,3.8,2,4.9,3c0.7,0.7,1.7,2.1,3,4.2
			c1.3,2.2,2.2,3.8,2.6,5l9.1,23.4h-21.1l-10-24.6c-1.3-3.2-2.4-5.3-3.4-6.2c-1.3-1.2-2.9-1.9-4.6-1.9h-1.6v32.7H356.8z
			 M375.6,182.7h7.9c0.9,0,2.5-0.4,5-1.1c1.2-0.3,2.3-1.2,3-2.5c0.8-1.4,1.2-2.9,1.2-4.7c0-2.6-0.6-4.6-1.9-6
			c-1.2-1.4-3.6-2.1-7-2.1h-8.2V182.7z"/>
	</g>
	<g>
		<rect y="105.2" class="st0" width="412.6" height="12.5"/>
	</g>
</g>
</svg>
