<?xml version="1.0" encoding="utf-8"?>
<!-- Generator: Adobe Illustrator 22.0.0, SVG Export Plug-In . SVG Version: 6.00 Build 0)  -->
<svg version="1.1" id="レイヤー_1" xmlns="http://www.w3.org/2000/svg" xmlns:xlink="http://www.w3.org/1999/xlink" x="0px"
	 y="0px" viewBox="0 0 886.9 503.1" style="enable-background:new 0 0 886.9 503.1;" xml:space="preserve">
<style type="text/css">
	.st0{fill:#FFFFFF;stroke:#FFFFFF;stroke-width:0.1;stroke-miterlimit:10;}
</style>
<g>
	<g>
		<path class="st0" d="M171.8,16.9v-5.4h37.4l3.7-0.7l2.7,2.5C214.9,35,203.4,49,180.9,55.3l-4.5-5.4c20.6-4.6,31.4-15.6,32.4-32.9
			H171.8z M210.6,10.7c-2.1-2.3-4.3-4.4-6.4-6.2l3-3c2.3,1.8,4.5,4,6.7,6.4L210.6,10.7z M219.5,10c-2.6-3-5.1-5.4-7.4-7.4l3-2.5
			c2.6,2,5.1,4.4,7.4,7.2L219.5,10z"/>
		<path class="st0" d="M276.9,20.9h14.6v5.4h-14.4V31c0,12.4-6.5,21.2-19.6,26.5l-4-4.5c11.9-4,17.8-11.1,17.8-21.5v-5.2h-16.3
			l0.2,12.6h-5.4l-0.2-12.6h-13.9v-5.4h13.9l-0.2-13.1h5.2c1.6,0.2,1.7,1,0.2,2.5l0.2,10.6h16.1V5.8h5.4c1.6,0.2,1.7,1,0.2,2.5V20.9
			z M289.3,12.7l-3.2,2.7c-2.6-3.3-5.1-5.9-7.4-7.9l2.7-3C284,6.8,286.6,9.6,289.3,12.7z M294,8.5l-3.2,2.7c-2.5-3.3-5-5.9-7.4-7.9
			l2.7-3C288.9,2.6,291.5,5.3,294,8.5z"/>
		<path class="st0" d="M307,33.5V28h55.2v5.4H307z"/>
		<path class="st0" d="M408,52.5c-1.7,1.6-3.6,2.5-5.7,2.5c-3.1,0-6.3-1.8-9.4-5.4l3.2-4.5c2.6,2.6,4.6,4,5.9,4c0.8,0,1.6-0.3,2.2-1
			c1.8-1.8,2.7-6.8,2.7-15.1c0-4.6-0.5-7.4-1.5-8.4c-0.5-0.5-1.5-0.7-3-0.7c-1.5,0-3.6,0.2-6.2,0.5c-3.5,12.2-7.6,22.7-12.4,31.4
			l-5.7-2c4.8-7.4,9-17.1,12.6-29c-3.6,0.5-7.2,0.9-10.6,1.2l-0.5-5.4c3,0,7.1-0.2,12.4-0.7c1.5-5.1,2.7-10.3,3.7-15.6L401,6
			c2,0.8,1.9,1.6-0.2,2.2c-1,3.5-2,7.2-3,11.1c2-0.3,4-0.5,6.2-0.5c2.3,0,4,0.6,5.2,1.7c2,2,3,6.4,3,13.4
			C412.2,43.6,410.8,49.7,408,52.5z M419.6,14.2c6.8,6.9,11.4,15.3,13.9,25l-5.4,2.2c-3-10.7-7.3-18.7-12.9-24L419.6,14.2z
			 M427.8,17.1c-3.8-3.1-7-5.5-9.7-7.2l3-3c3,1.7,6.3,4,9.9,6.9L427.8,17.1z M426,1.3c3,1.7,6.3,4,9.9,6.9l-3,3
			c-3.6-2.8-6.9-5.1-9.9-6.9L426,1.3z"/>
		<path class="st0" d="M452.7,20.4l-0.7-5.2c4.1,0,8.2-0.2,12.4-0.5c0.8-3,1.8-6.9,3-11.9l4.5,1.5c1.6,0.7,1.6,1.3,0,2l-2.2,7.9
			c2.8-0.3,5.7-0.9,8.7-1.7l1.2,5.2c-4.6,1-8.4,1.6-11.4,1.7c-2.6,8.4-6.5,17.6-11.6,27.5l-5-2.5c5.1-9.1,8.8-17.2,11.1-24.5
			C459.9,20.2,456.6,20.4,452.7,20.4z M489.1,25.8c1.8,0.3,2,1,0.5,2v14.4c4.1,1.3,8.4,3.1,12.9,5.4l-3,4.7
			c-3.6-2.1-6.9-3.7-9.9-4.7c-0.5,3.5-1.6,6-3.2,7.7c-2,2-4.7,3-8.2,3c-4.6,0-7.8-0.9-9.7-2.7c-1.7-1.7-2.5-3.8-2.5-6.4
			c0-2.1,0.8-4,2.5-5.7c2.1-2.1,5.3-3.2,9.4-3.2c2.8,0,5,0.2,6.7,0.7V25.8H489.1z M477.9,44.6c-2.6,0-4.5,0.5-5.4,1.5
			c-0.8,0.8-1.2,1.8-1.2,3c0,1.2,0.3,2.1,1,2.7c1,1,2.7,1.5,5.2,1.5c2.3,0,4-0.5,5-1.5c1.5-1.5,2.2-3.5,2.2-6.2
			C482.6,45,480.4,44.6,477.9,44.6z M486.3,12.4c4.6,1.5,10.1,3.5,16.6,5.9l-2.2,5.2c-6.9-3-12.4-5-16.3-6.2L486.3,12.4z"/>
		<path class="st0" d="M529.1,33.7l-2.5-5.2c5.3-1.6,10.1-3.1,14.4-4.5c4.8-1.5,9.3-2.2,13.6-2.2c4.3,0,7.8,1.3,10.4,4
			c2.8,2.8,4.2,6.3,4.2,10.4c0,5-1.2,8.7-3.7,11.1c-4.5,4.5-12,6.8-22.5,7.2l-2-5.2c10.4-0.2,17.2-1.9,20.5-5.2
			c1.8-1.8,2.7-4.5,2.7-7.9c0-2.8-1.2-5.4-3.5-7.7c-1.3-1.3-3.6-2-6.9-2c-3.1,0-6.8,0.7-10.9,2C539,29.9,534.4,31.6,529.1,33.7z"/>
		<path class="st0" d="M600.3,56.5l-5.4-1.7c4.5-10.4,7.6-21.3,9.4-32.7c-4,0.3-7.5,0.5-10.6,0.5l-1-5c4.6,0,8.7-0.2,12.4-0.5
			c0.7-5.1,1.2-9.6,1.7-13.4l5,1c1.8,0.5,2,1.2,0.5,2c-0.5,2-1.2,5.3-2,9.9c3.8-0.5,7.3-1.2,10.4-2l1,5c-4.3,0.8-8.3,1.5-12.1,2
			C607,36.3,603.9,47.9,600.3,56.5z M643.6,50.6V56h-10.9c-6.3,0-12.2-1.5-17.8-4.5l2.2-4.5c4.3,2.3,9.5,3.5,15.6,3.5H643.6z
			 M642.4,30c-9.6,0.3-17.1,1.7-22.5,4l-1.5-5c7.1-2.8,14.8-4.2,23-4.2L642.4,30z"/>
		<path class="st0" d="M681.7,51.5h5.9c8.2,0,13.4-1.1,15.6-3.2c1.8-1.8,2.7-3.9,2.7-6.2c0-2-0.8-3.8-2.5-5.4
			c-1.5-1.5-4-2.2-7.4-2.2c-7.3,0-13.9,3.6-19.8,10.6l-5-0.5l2.7-26.5l5.2,1c1.6,0.7,1.6,1.3,0,2l-1.7,16.1c5.8-5,12.4-7.4,19.8-7.4
			c4.5,0,8,1.3,10.6,4c2.1,2.2,3.2,5,3.2,8.4c0,3.8-1.4,7.1-4.2,9.9c-3.3,3.3-9.6,5-18.8,5h-4.5L681.7,51.5z M697.5,10.2l-2.5,5
			c-5.9-2.5-12.1-4.6-18.6-6.4l2.2-4.5C683.3,5.4,689.6,7.4,697.5,10.2z"/>
		<path class="st0" d="M27.9,146.6c17.3-7.3,30.4-17.5,39.4-30.7l4.7,4c1.3,1,0.7,1.7-1.7,2.2c-3.1,4.1-7.2,8.3-12.1,12.6v33.7h-5.7
			v-29c-5.8,4.5-12.5,8.5-20.3,12.1L27.9,146.6z"/>
		<path class="st0" d="M145.3,136c-8.7,18.2-23.4,27.7-44.1,28.7c-0.8,2.1-1.7,2.3-2.5,0.5l-2-6.4c21.4-0.5,35.9-9.3,43.3-26.5
			L145.3,136z M97.7,125.8l4.2-5.2c3.5,2.1,7.8,5.7,13.1,10.6l-4.7,4.7C105.9,131.8,101.7,128.5,97.7,125.8z"/>
		<path class="st0" d="M177.7,124.3h16.6l2.7-1l3.2,3.2c0.7,0.8,0.3,1.5-1,2c-1.3,6.6-3.3,12.6-5.9,18.1l5.9,4l-3.7,5.4l-5.4-4
			c-4.8,6.9-11.6,12.6-20.5,17.1l-5.7-4.2c9.9-4.1,17-9.6,21.3-16.3c-4.1-2.6-8.2-5-12.1-7.2l3-4.5c5.1,2.3,9.3,4.5,12.6,6.4
			c2.5-5.1,4-9.7,4.5-13.6H175c-3.1,5.6-7,10.7-11.6,15.3l-4.7-3.2c8.4-8.7,13.9-18,16.6-27.7l5.9,2.5c1.3,0.7,1,1.3-1,2
			C179.5,120.6,178.7,122.5,177.7,124.3z"/>
		<path class="st0" d="M235.2,164.9c16-4.1,25-12.8,27-26h-37.6v-5.4h37.9l2.2-0.7l4.5,2.7c1,0.8,0.8,1.6-0.5,2.2
			c-2.6,16.5-12.3,27.2-29,32.2L235.2,164.9z M263.2,124.8H229v-5.4h34.2V124.8z"/>
		<path class="st0" d="M299.1,169.4l-4.5-4.7c16.2-6.6,25.9-18,29.2-34.2H304c-3.8,6.3-7.8,11.3-11.9,15.1l-5-3.2
			c8.6-7.8,14.1-16.8,16.6-27.2l5.7,2c1,0.5,0.8,1-0.5,1.5c-0.7,2.1-1.6,4.3-2.7,6.4h17.8l2.2-1.2l4.5,4.5c1.2,1.2,0.9,2-0.7,2.5
			C326.9,148.7,316.6,161.6,299.1,169.4z"/>
		<path class="st0" d="M369.9,138.7l-4,5.2c-5-3.6-9.1-6.3-12.4-7.9l3.7-5.2C361.4,132.9,365.6,135.5,369.9,138.7z M359,160.7
			c18-4,31.5-13.3,40.6-28l4.5,4.5c-8.4,13.5-21.5,23.1-39.1,28.7c-0.5,2-1.3,2.1-2.5,0.2L359,160.7z M376.8,124.1l-3.5,5.2
			c-4.5-3.1-8.6-5.8-12.4-7.9l3.2-5.2C368.7,118.6,372.9,121.3,376.8,124.1z"/>
		<path class="st0" d="M426.1,164.7V160h25.2v-10.4h-23.8v-4.7h23.8V135h-25.2v-4.7h30.2v37.1h-5v-2.7H426.1z"/>
		<path class="st0" d="M533.1,136c-8.7,18.2-23.4,27.7-44.1,28.7c-0.8,2.1-1.7,2.3-2.5,0.5l-2-6.4c21.4-0.5,35.9-9.3,43.3-26.5
			L533.1,136z M485.5,125.8l4.2-5.2c3.5,2.1,7.8,5.7,13.1,10.6l-4.7,4.7C493.7,131.8,489.5,128.5,485.5,125.8z"/>
		<path class="st0" d="M595.5,161l-5,4.2c-6.9-7.3-13.6-13.4-20-18.3c-6.4,6.9-13.8,13.1-22,18.6l-4.7-4.2
			c17.5-11.4,28.7-22.8,33.7-34.2l-27,1.7l-0.7-5.9l28.7-1.2l3-0.7l4,4c1.2,1.2,0.8,1.9-1,2.2c-3.1,5.4-6.4,10.5-9.9,15.1
			C581.5,147.6,588.5,153.9,595.5,161z"/>
		<path class="st0" d="M630.2,124.3h16.6l2.7-1l3.2,3.2c0.7,0.8,0.3,1.5-1,2c-1.3,6.6-3.3,12.6-5.9,18.1l5.9,4L648,156l-5.4-4
			c-4.8,6.9-11.6,12.6-20.5,17.1l-5.7-4.2c9.9-4.1,17-9.6,21.3-16.3c-4.1-2.6-8.2-5-12.1-7.2l3-4.5c5.1,2.3,9.3,4.5,12.6,6.4
			c2.5-5.1,4-9.7,4.5-13.6h-18.1c-3.1,5.6-7,10.7-11.6,15.3l-4.7-3.2c8.4-8.7,13.9-18,16.6-27.7l5.9,2.5c1.3,0.7,1,1.3-1,2
			C632,120.6,631.2,122.5,630.2,124.3z"/>
		<path class="st0" d="M672,144.4v-5.4h55.2v5.4H672z"/>
		<path class="st0" d="M786.9,144.4l-3,5.7c-8.7-4.5-15.9-7.4-21.5-8.9v25.7h-5.7v-49.5h5c2,0.2,2.2,0.8,0.7,2V135
			C770.5,137.3,778.7,140.4,786.9,144.4z"/>
		<path class="st0" d="M825.1,121.6h7.9l-1.2,27h-5.4L825.1,121.6z M825.5,156.7h6.9v7.2h-6.9V156.7z"/>
		<path class="st0" d="M207.7,271.8l-5,4.2c-6.9-7.3-13.6-13.4-20-18.3c-6.4,6.9-13.8,13.1-22,18.6l-4.7-4.2
			c17.5-11.4,28.7-22.8,33.7-34.2l-27,1.7l-0.7-5.9l28.7-1.2l3-0.7l4,4c1.2,1.2,0.8,1.9-1,2.2c-3.1,5.4-6.4,10.5-9.9,15.1
			C193.7,258.5,200.7,264.8,207.7,271.8z"/>
		<path class="st0" d="M259.7,270.9l-5,4.5c-6.3-7.4-13.5-14.1-21.5-20l3.5-4.5c3,1.8,6.3,4.4,9.9,7.7c5-5,10-11.1,15.1-18.3
			l-38.9,1.7l-1-6.2l43.3-1l2.5-0.7l3.7,4c0.8,1.3,0.5,1.9-1,1.7c-4.1,5.4-10.5,13-19.1,22.5C254.7,265.5,257.5,268.4,259.7,270.9z"
			/>
		<path class="st0" d="M290.9,272.1l-5.4-3c4.1-5.9,7.6-12.2,10.4-18.8l5.4,3c1,0.8,0.7,1.4-1,1.7
			C297.8,260.5,294.7,266.2,290.9,272.1z M308.7,225.8h5.2c1.8,0.3,2,1,0.5,2v11.9h22.8v5.4h-22.8v34.4h-5.7v-34.4h-22.3v-5.4h22.3
			V225.8z M334.2,271.4c-3.5-6.1-7.7-11.8-12.6-17.1l4.7-4c5.9,6.3,10.4,12.1,13.4,17.3L334.2,271.4z"/>
		<path class="st0" d="M376.3,245.9c2.1,0,3.9,0.7,5.2,2c1,1,1.6,2.8,1.7,5.4c5-1.8,10.6-3.7,16.8-5.7l1.7,5.9
			c-6.4,1-12.5,2.6-18.1,4.7v10.9h-5v-8.9c-5,2.3-8.2,4.2-9.7,5.7c-1.8,1.8-2.7,3.6-2.7,5.4c0,1,0.5,2,1.5,3
			c1.2,1.2,3.4,1.7,6.7,1.7h20.8v4.7h-21c-5.3,0-9-1.1-11.1-3.2c-1.7-1.7-2.5-3.7-2.5-6.2c0-2.6,1.1-5,3.2-7.2
			c3.3-3.3,8.2-6.3,14.6-8.9c-0.2-2-0.6-3.3-1.2-4c-0.7-0.7-2.1-1-4.2-1c-3.3,0-8.3,3-15.1,8.9l-4.2-4.2c7.8-4.8,13-10.1,15.8-15.8
			c-4.6,0.3-9.2,0.7-13.9,1l-1-5c5.9-0.2,11.5-0.4,16.8-0.7c0.8-2,1.8-5.3,3-9.9l4.7,1.2c1.6,0.7,1.6,1.3,0,2
			c-0.7,2.2-1.4,4.3-2.2,6.4c5.9-0.5,11.6-1.2,17.1-2l0.7,5.2c-6.4,0.5-12.9,1-19.3,1.5c-1.7,3.3-3.3,5.9-5,7.9
			C372.6,246.2,374.5,245.9,376.3,245.9z"/>
		<path class="st0" d="M426.1,235.2h6.2v4.7h-6.2v7.7c2.5,1.8,4.9,4,7.2,6.4l-2,4.7c-1.8-2.6-3.6-4.6-5.2-5.9v28.5h-5v-28
			c-2,5.6-4.2,9.7-6.7,12.4l-3.2-4.2c5.8-7.8,8.9-14.9,9.4-21.5H413v-4.7h8.2v-10.9h4.7c1.5,0,1.6,0.5,0.2,1.5V235.2z M458.8,230.5
			h7.2v4h-7.2v5.9h10.4v4h-16.6v4.2h12.6v21.8h-8.2c3.1,2.5,7.3,4.5,12.6,6.2l-3,4.5c-5.6-2.2-10-4.5-13.1-7.2l2.7-3.5h-12.1
			l3.2,3.5c1.2,1.3,0.7,1.7-1.5,1.2c-3.5,2.5-7.7,4.5-12.6,6.2l-2.5-4.7c5-1.3,9.2-3.4,12.9-6.2h-7.9v-21.8h12.6v-4.2h-16.3v-4h9.4
			v-5.9h-6.7v-4h6.7v-6.2h4c1.5,0,1.6,0.5,0.2,1.5v4.7h8.9v-6.2h4c1.5,0,1.6,0.5,0.2,1.5V230.5z M440,252.5v5h8.4v-5H440z
			 M440,266.4h8.4v-5H440V266.4z M445.7,240.4h8.9v-5.9h-8.9V240.4z M452.6,257.5h8.4v-5h-8.4V257.5z M452.6,261.5v5h8.4v-5H452.6z"
			/>
		<path class="st0" d="M482.3,277.3c-0.5-8.6-0.7-15.9-0.7-22c0-7.4,0.9-16.3,2.7-26.5l5,1.2c1.8,0.3,1.9,1.1,0.2,2.2
			c-1.7,9.6-2.5,17.2-2.5,23c0,6.4,0.3,13.6,1,21.5L482.3,277.3z M517.7,272.6c-7.8,0-14.2-2.5-19.3-7.4l3.2-4.2
			c4.5,4.3,9.8,6.4,16.1,6.2h13.6v5.4H517.7z M528.1,240.7c-7.1-0.2-16.3,0.3-27.7,1.5v-5.2c11.9-1.2,21.1-1.6,27.7-1.5V240.7z"/>
		<path class="st0" d="M560.1,250.3l1.7,4l-6.4,3.5V277c0,2.6-1.3,4-4,4H546l-1-4.7h4.5c0.7,0,1-0.3,1-1V260l-5.4,2.5
			c-0.3,1.5-0.7,1.7-1.2,0.7l-1.7-5.7l8.4-3v-13.4h-7.2v-4.7h7.2v-12.1h4.7c1.3,0.2,1.4,0.7,0.2,1.5v10.6h5.7v4.7h-5.7v11.4
			L560.1,250.3z M586.8,265.7c1.5,2.8,5.7,6.3,12.6,10.4l-3.5,4.5c-10.7-5.9-16.7-15.2-17.8-27.7h-1.7v20.5l6.7-1.7l1.2,4.2
			c-4.8,1.6-9.6,3.2-14.4,4.7c-0.2,1.3-0.6,1.6-1.2,0.7l-2.5-5.4l5.2-1.2v-21.8h-3.2v1.7c0,11.1-2.7,19.6-8.2,25.5l-3.7-4
			c4.6-4.6,6.9-11.5,6.9-20.8v-27.5h31.9v4.7h-27v15.6h29v4.7h-14.9c0.3,2.8,1.2,5.9,2.5,9.2l7.2-6.9l4.2,4.2
			c0.3,0.8-0.1,1.1-1.2,0.7L586.8,265.7z M570.2,242.4v-4.7h21.5v4.7H570.2z"/>
		<path class="st0" d="M616.5,255.5l-2.5-5.2c5.3-1.6,10.1-3.1,14.4-4.5c4.8-1.5,9.3-2.2,13.6-2.2c4.3,0,7.8,1.3,10.4,4
			c2.8,2.8,4.2,6.3,4.2,10.4c0,5-1.2,8.7-3.7,11.1c-4.5,4.5-12,6.8-22.5,7.2l-2-5.2c10.4-0.2,17.2-1.9,20.5-5.2
			c1.8-1.8,2.7-4.5,2.7-7.9c0-2.8-1.2-5.4-3.5-7.7c-1.3-1.3-3.6-2-6.9-2c-3.1,0-6.8,0.7-10.9,2C626.4,251.6,621.8,253.4,616.5,255.5
			z"/>
		<path class="st0" d="M724,236.7c-5.8,0-10.3,0.6-13.6,1.7c-3.6,1.3-7,3.6-10.1,6.7c-3.1,3.1-4.7,7.2-4.7,12.1c0,4,1.2,7.2,3.7,9.7
			c3.3,3.3,9.7,5.1,19.1,5.4l-2,5.4c-9.7-0.5-16.5-2.6-20.3-6.4c-3.8-3.8-5.7-8.4-5.7-13.9c0-7.8,3.1-13.9,9.2-18.3
			c-7.8,1.2-15.7,2.3-23.8,3.5l-1.5-5.7c16.2-1.2,32.4-3.1,48.8-5.9L724,236.7z"/>
		<path class="st0" d="M0.1,349.6v-5.4h37.4l3.7-0.7l2.7,2.5c-0.7,21.8-12.2,35.8-34.7,42.1l-4.5-5.4c20.6-4.6,31.4-15.6,32.4-32.9
			H0.1z M38.9,343.4c-2.1-2.3-4.3-4.4-6.4-6.2l3-3c2.3,1.8,4.5,4,6.7,6.4L38.9,343.4z M47.8,342.6c-2.6-3-5.1-5.4-7.4-7.4l3-2.5
			c2.6,2,5.1,4.4,7.4,7.2L47.8,342.6z"/>
		<path class="st0" d="M98.8,353.5h14.6v5.4H99.1v4.7c0,12.4-6.5,21.2-19.6,26.5l-4-4.5c11.9-4,17.8-11.1,17.8-21.5V359H77.1
			l0.2,12.6h-5.4L71.6,359H57.8v-5.4h13.9l-0.2-13.1h5.2c1.6,0.2,1.7,1,0.2,2.5l0.2,10.6h16.1v-15.1h5.4c1.6,0.2,1.7,1,0.2,2.5
			V353.5z M111.2,345.4l-3.2,2.7c-2.6-3.3-5.1-5.9-7.4-7.9l2.7-3C105.9,339.5,108.6,342.2,111.2,345.4z M115.9,341.2l-3.2,2.7
			c-2.5-3.3-5-5.9-7.4-7.9l2.7-3C110.8,335.3,113.4,338,115.9,341.2z"/>
		<path class="st0" d="M122.6,366.2v-5.4h55.2v5.4H122.6z"/>
		<path class="st0" d="M234.8,355.8c0.8,1.5,0.1,1.7-2.2,0.7c-9.2,2.5-19,4.4-29.2,5.7v16.1c0,2.2,1.1,3.2,3.2,3.2H235l-0.5,5.4h-29
			c-5.3,0-7.9-2.1-7.9-6.4v-38.9h5c1.8,0.3,2.1,1,0.7,2v12.6c11.2-1.3,21-3.4,29.5-6.2L234.8,355.8z M231.8,347.6
			c-2.6-3.3-5.2-6.2-7.7-8.7l3.5-2.7c2.3,2.2,4.9,5,7.7,8.7L231.8,347.6z M231.3,335.7l3-2.7c2.5,2.3,5.1,5.1,7.9,8.4l-3.2,2.7
			C236,340.7,233.5,337.9,231.3,335.7z"/>
		<path class="st0" d="M251.9,366.2v-5.4h55.2v5.4H251.9z"/>
		<path class="st0" d="M339.3,346.1h16.6l2.7-1l3.2,3.2c0.7,0.8,0.3,1.5-1,2c-1.3,6.6-3.3,12.6-5.9,18.1l5.9,4l-3.7,5.4l-5.4-4
			c-4.8,6.9-11.6,12.6-20.5,17.1l-5.7-4.2c9.9-4.1,17-9.6,21.3-16.3c-4.1-2.6-8.2-5-12.1-7.2l3-4.5c5.1,2.3,9.3,4.5,12.6,6.4
			c2.5-5.1,4-9.7,4.5-13.6h-18.1c-3.1,5.6-7,10.7-11.6,15.3l-4.7-3.2c8.4-8.7,13.9-18,16.6-27.7l5.9,2.5c1.3,0.7,1,1.3-1,2
			C341.1,342.4,340.3,344.3,339.3,346.1z"/>
		<path class="st0" d="M381.2,366.2v-5.4h55.2v5.4H381.2z"/>
		<path class="st0" d="M475.8,385.2c-1.7,1.6-3.6,2.5-5.7,2.5c-3.1,0-6.3-1.8-9.4-5.4l3.2-4.5c2.6,2.6,4.6,4,5.9,4
			c0.8,0,1.6-0.3,2.2-1c1.8-1.8,2.7-6.8,2.7-15.1c0-4.6-0.5-7.4-1.5-8.4c-0.5-0.5-1.5-0.7-3-0.7c-1.5,0-3.6,0.2-6.2,0.5
			c-3.5,12.2-7.6,22.7-12.4,31.4l-5.7-2c4.8-7.4,9-17.1,12.6-29c-3.6,0.5-7.2,0.9-10.6,1.2l-0.5-5.4c3,0,7.1-0.2,12.4-0.7
			c1.5-5.1,2.7-10.3,3.7-15.6l5.2,1.7c2,0.8,1.9,1.6-0.2,2.2c-1,3.5-2,7.2-3,11.1c2-0.3,4-0.5,6.2-0.5c2.3,0,4,0.6,5.2,1.7
			c2,2,3,6.4,3,13.4C480,376.2,478.6,382.4,475.8,385.2z M487.4,346.8c6.8,6.9,11.4,15.3,13.9,25l-5.4,2.2c-3-10.7-7.3-18.7-12.9-24
			L487.4,346.8z M495.6,349.8c-3.8-3.1-7-5.5-9.7-7.2l3-3c3,1.7,6.3,4,9.9,6.9L495.6,349.8z M493.8,334c3,1.7,6.3,4,9.9,6.9l-3,3
			c-3.6-2.8-6.9-5.1-9.9-6.9L493.8,334z"/>
		<path class="st0" d="M524.5,370.4c-2.1,5.9-5.1,12.1-8.9,18.6c0.5,1.2,0.3,1.6-0.5,1.5l-5.7-4c4.3-6.1,7.7-12.3,10.1-18.6
			L524.5,370.4z M519.3,363.4c-2.8-3-5.7-5.2-8.7-6.7l3.7-5.2c3,1.2,6,3.4,9.2,6.7L519.3,363.4z M522.8,349.6
			c-3-3.1-5.9-5.5-8.7-7.2l4-4.7c3.1,1.5,6.1,3.7,8.9,6.7L522.8,349.6z M564.6,391.2c-10.6-5.3-17.7-12.2-21.5-20.8
			c-1.2,8.4-7.7,15.8-19.6,22l-2.7-5.9c10.7-5.3,16.6-11.8,17.6-19.6h-14.6v-4.7h15.3v-11.6H529v-4.7h10.1v-10.1h4.7
			c1.3,0.2,1.4,0.7,0.2,1.5v8.7h14.1v16.3h7.2v4.7h-18.8c3.6,7.6,10.4,13.5,20.3,17.8L564.6,391.2z M544.1,350.6v11.6h9.2v-11.6
			H544.1z"/>
		<path class="st0" d="M606.8,373.1c6.8,1.5,13.4,3.8,19.8,6.9l-2.7,5.4c-6.1-3.8-11.8-6.4-17.1-7.7c0,4.3-1.1,7.5-3.2,9.7
			c-2,2-5.2,3-9.7,3c-3.5,0-6.3-1.1-8.4-3.2c-1.5-1.5-2.2-3.5-2.2-6.2c0-2.3,0.8-4.3,2.5-5.9c2.1-2.1,5.4-3.2,9.9-3.2
			c1.3,0,3.4,0.1,6.2,0.2v-7.7l-18.8,0.5v-5l18.8-0.5v-8.7l-23.3,0.7v-5l23.3-0.7v-9.7h4.5c1.8,0.3,2,1,0.5,2v7.2l20.3-0.7v5
			l-20.3,0.7v8.9l16.1-0.5v5l-16.1,0.5V373.1z M596.1,376.3c-3.3,0-5.6,0.7-6.9,2c-0.8,0.8-1.2,1.9-1.2,3.2c0,1,0.4,1.9,1.2,2.7
			c1.2,1.2,3,1.7,5.4,1.7c2,0,3.6-0.7,5-2c1.5-1.5,2.1-3.9,2-7.2C599.7,376.5,597.9,376.3,596.1,376.3z"/>
		<path class="st0" d="M682.3,382c2-2,3-4.6,3-7.9c0-3.6-1.1-6.5-3.2-8.7c-2.1-2.1-5.5-3.2-10.1-3.2c-5.4,0-9.7,1.1-12.6,3.2
			c-2.8,2-6.4,5.5-10.9,10.6l-4.2-3.7c11.9-11.9,20.9-21.8,27-29.7c-5.4,0.7-10.9,1.2-16.3,1.7l-1.7-5.7c8.1,0,15.3-0.4,21.5-1.2
			l2.2-1l2.7,2.7c1.8,1.7,1.4,2.7-1.2,3.2c-5,5.6-9.9,11.1-14.9,16.6c3.5-0.8,6.4-1.2,8.7-1.2c6.3,0,10.9,1.5,13.9,4.5
			c3,3,4.5,6.8,4.5,11.4c0,4.8-1.3,8.5-4,11.1c-4,4-9,5.9-15.1,5.9c-5.8,0-10-1.3-12.6-4c-2.1-2.1-3.2-4.7-3.2-7.7
			c0-2,0.7-3.7,2.2-5.2c1.6-1.6,3.5-2.5,5.7-2.5c3,0,5.4,1,7.4,3c2.3,2.3,3.9,5.9,4.7,10.9C678.2,384.9,680.5,383.8,682.3,382z
			 M667.7,377.3c-1.2-1.2-2.3-1.7-3.5-1.7c-1.3,0-2.3,0.3-3,1c-0.8,0.8-1.2,1.7-1.2,2.7c0,1.5,0.7,2.9,2,4.2
			c1.6,1.7,3.8,2.5,6.4,2.5c0.7,0,1.4,0,2.2,0C670.2,381.7,669.2,378.8,667.7,377.3z"/>
		<path class="st0" d="M752.6,385c-7.6-4.3-13.7-7-18.3-8.2c-0.2,4.3-1.2,7.3-3,9.2c-2.5,2.5-6,3.7-10.6,3.7c-4,0-6.9-1-8.9-3
			c-1.8-1.8-2.7-4-2.7-6.4c0-2.5,1.1-4.8,3.2-6.9c2-2,5.3-3,9.9-3c3,0,5.4,0.2,7.2,0.5c-0.5-8.9-1.2-19.8-2-32.7h5
			c1.5,0.3,1.6,1,0.5,2c0,2.6,0.2,6.7,0.5,12.1c4.5,0.2,10.7-0.3,18.8-1.5v5.2c-5.8,0.8-11.9,1.3-18.3,1.5c0.3,5,0.5,9.7,0.5,14.1
			c6.3,1.5,13.2,4.2,20.8,8.2L752.6,385z M722.4,374.8c-3.3,0-5.6,0.7-6.9,2c-1.2,1.2-1.7,2.3-1.7,3.5c0,1.2,0.4,2.2,1.2,3
			c1.2,1.2,3.1,1.7,5.9,1.7c2.6,0,4.5-0.6,5.7-1.7c1.6-1.6,2.5-4.2,2.5-7.7C726.6,375.1,724.4,374.8,722.4,374.8z"/>
		<path class="st0" d="M803.9,378.5c3.1-3.1,4.7-6.8,4.7-11.1c0-3-0.8-5.3-2.5-6.9c-1.5-1.5-3.4-2.1-5.7-2c-4.6,0.5-11.2,2.2-19.8,5
			l-2.7-6.4c6.3-1.2,12.1-2.4,17.6-3.7c2.8-0.7,5-1,6.4-1c3.6,0,6.6,1.2,8.9,3.5c2.6,2.6,4,6.4,4,11.4c0,6.4-2.2,11.9-6.7,16.3
			c-4,4-9.3,6.8-16.1,8.7l-4-5.7C794.8,385,800.1,382.3,803.9,378.5z M808.6,345.9c-6.6-0.7-14.6-2-24-4l1.5-6.2
			c9.2,2.2,17.2,3.6,23.8,4.2L808.6,345.9z"/>
		<path class="st0" d="M837.8,388.2c-0.5-8.6-0.7-15.9-0.7-22c0-7.4,0.9-16.3,2.7-26.5l5,1.2c1.8,0.3,1.9,1.1,0.2,2.2
			c-1.7,9.6-2.5,17.2-2.5,23c0,6.4,0.3,13.6,1,21.5L837.8,388.2z M873.2,383.5c-7.8,0-14.2-2.5-19.3-7.4l3.2-4.2
			c4.5,4.3,9.8,6.4,16.1,6.2h13.6v5.4H873.2z M883.6,351.6c-7.1-0.2-16.3,0.3-27.7,1.5v-5.2c11.9-1.2,21.1-1.6,27.7-1.5V351.6z"/>
		<path class="st0" d="M108.7,500.8l-5.2-3c5.1-4.8,8.5-10.7,10.1-17.8c-5.8-2.1-11.6-3.6-17.6-4.5c-4.5,9.6-7.4,15.1-8.9,16.6
			c-2,2-4.3,3-6.9,3c-2,0-3.6-0.7-5-2c-1.5-1.5-2.2-3.7-2.2-6.7c0-3.5,1.6-6.8,5-10.1c3.6-3.6,8.5-5.4,14.6-5.4
			c2-5.1,3.8-9.9,5.4-14.4c-4.6,1.2-9.2,2.2-13.9,3.2l-2.2-5c5.4-0.7,10.6-1.6,15.6-2.7l3-1.2l4.2,3.2c1.6,1,1.6,1.7-0.2,2.2
			c-2.1,3.8-4.5,8.7-6.9,14.9c5.3,0.7,10.9,2,16.8,4c0.3-4,0.4-8.8,0.2-14.6l4.7,1c1.8,0.3,2,1,0.5,2c0,5.4-0.2,9.9-0.5,13.4
			c3.1,1.2,6.8,2.8,10.9,5l-2.5,5c-3.5-2-6.6-3.6-9.4-5C116.7,489.2,113.5,495.5,108.7,500.8z M81.8,479c-2.6,2.6-4,5.1-4,7.4
			c0,1,0.3,1.8,1,2.5c0.5,0.5,1.2,0.7,2.2,0.7c1.5,0,2.8-0.9,4-2.7c1-1.5,3-5.3,5.9-11.4C87.1,475.6,84.1,476.7,81.8,479z"/>
		<path class="st0" d="M160.5,477.5c-4.1,0-7.7,2.5-10.6,7.4c-1.8,3-3.6,6.8-5.4,11.4l-5.7-3c6.8-10.6,14.9-25.6,24.3-45l5.4,3
			c1.2,1.2,0.9,1.8-0.7,2c-3.5,5.1-7.6,12.1-12.4,21c2.8-1.2,5.3-1.7,7.4-1.7c2,0,3.5,0.6,4.7,1.7c1.2,1.2,1.9,3.5,2.2,6.9l1.5,9.4
			c0.3,2.2,1.6,3.2,4,3.2c2.1,0,4-0.7,5.4-2.2c3.1-3.1,5.6-9.3,7.4-18.6l5.4,2.7c-2.1,9.4-4.7,15.6-7.7,18.6c-3.3,3.3-7,5-11.1,5
			c-5.1,0-8.1-2.7-8.9-8.2l-1.7-10.6C163.6,478.5,162.5,477.5,160.5,477.5z"/>
		<path class="st0" d="M206.8,463.9l-0.7-5.2c4.1,0,8.2-0.2,12.4-0.5c0.8-3,1.8-6.9,3-11.9l4.5,1.5c1.6,0.7,1.6,1.3,0,2l-2.2,7.9
			c2.8-0.3,5.7-0.9,8.7-1.7l1.2,5.2c-4.6,1-8.4,1.6-11.4,1.7c-2.6,8.4-6.5,17.6-11.6,27.5l-5-2.5c5.1-9.1,8.8-17.2,11.1-24.5
			C214.1,463.8,210.8,463.9,206.8,463.9z M243.2,469.4c1.8,0.3,2,1,0.5,2v14.4c4.1,1.3,8.4,3.1,12.9,5.4l-3,4.7
			c-3.6-2.1-6.9-3.7-9.9-4.7c-0.5,3.5-1.6,6-3.2,7.7c-2,2-4.7,3-8.2,3c-4.6,0-7.8-0.9-9.7-2.7c-1.7-1.7-2.5-3.8-2.5-6.4
			c0-2.1,0.8-4,2.5-5.7c2.1-2.1,5.3-3.2,9.4-3.2c2.8,0,5,0.2,6.7,0.7v-15.1H243.2z M232.1,488.2c-2.6,0-4.5,0.5-5.4,1.5
			c-0.8,0.8-1.2,1.8-1.2,3c0,1.2,0.3,2.1,1,2.7c1,1,2.7,1.5,5.2,1.5c2.3,0,4-0.5,5-1.5c1.5-1.5,2.2-3.5,2.2-6.2
			C236.8,488.5,234.5,488.2,232.1,488.2z M240.5,456c4.6,1.5,10.1,3.5,16.6,5.9l-2.2,5.2c-6.9-3-12.4-5-16.3-6.2L240.5,456z"/>
		<path class="st0" d="M319.7,458.5c-5.8,0-10.3,0.6-13.6,1.7c-3.6,1.3-7,3.6-10.1,6.7c-3.1,3.1-4.7,7.2-4.7,12.1
			c0,4,1.2,7.2,3.7,9.7c3.3,3.3,9.7,5.1,19.1,5.4l-2,5.4c-9.7-0.5-16.5-2.6-20.3-6.4c-3.8-3.8-5.7-8.4-5.7-13.9
			c0-7.8,3.1-13.9,9.2-18.3c-7.8,1.2-15.7,2.3-23.8,3.5l-1.5-5.7c16.2-1.2,32.4-3.1,48.8-5.9L319.7,458.5z M304.9,471.6l2.5-3
			c2.5,1.5,5.6,3.6,9.4,6.2l-2.5,3C310.6,475.2,307.5,473.1,304.9,471.6z M309.8,465.7l2.5-3c2.3,1.3,5.4,3.4,9.4,6.2l-2.5,3
			C315.3,469,312.1,467,309.8,465.7z"/>
		<path class="st0" d="M373.2,464.4h14.6v5.4h-14.4v4.7c0,12.4-6.5,21.2-19.6,26.5l-4-4.5c11.9-4,17.8-11.1,17.8-21.5v-5.2h-16.3
			l0.2,12.6h-5.4l-0.2-12.6h-13.9v-5.4H346l-0.2-13.1h5.2c1.6,0.2,1.7,1,0.2,2.5l0.2,10.6h16.1v-15.1h5.4c1.6,0.2,1.7,1,0.2,2.5
			V464.4z"/>
		<path class="st0" d="M414.1,475.1c1,0.8,0.7,1.4-1,1.7c-2.5,5.4-5.6,11.1-9.4,17.1l-5.4-3c4.1-5.9,7.6-12.2,10.4-18.8L414.1,475.1
			z M427.2,461.5H450v5.4h-22.8v34.4h-5.7v-34.4h-22.3v-5.4h22.3v-13.9h5.2c1.8,0.3,2,1,0.5,2V461.5z M439.1,472.1
			c5.9,6.3,10.4,12.1,13.4,17.3l-5.4,3.7c-3.5-6.1-7.7-11.8-12.6-17.1L439.1,472.1z M442.6,456.3c-1.3-1.3-2-3-2-5c0-2,0.7-3.6,2-5
			c1.3-1.3,3-2,5-2s3.6,0.7,5,2c1.3,1.3,2,3,2,5c0,2-0.7,3.6-2,5c-1.3,1.3-3,2-5,2S443.9,457.6,442.6,456.3z M450.7,454.5
			c0.8-0.8,1.2-1.9,1.2-3.2c0-1.3-0.4-2.4-1.2-3.2c-0.8-0.8-1.9-1.2-3.2-1.2c-1.3,0-2.4,0.4-3.2,1.2c-0.8,0.8-1.2,1.9-1.2,3.2
			c0,1.3,0.4,2.4,1.2,3.2c0.8,0.8,1.9,1.2,3.2,1.2C448.8,455.8,449.9,455.3,450.7,454.5z"/>
		<path class="st0" d="M461.6,477v-5.4h55.2v5.4H461.6z"/>
		<path class="st0" d="M576.5,477l-3,5.7c-8.7-4.5-15.9-7.4-21.5-8.9v25.7h-5.7v-49.5h5c2,0.2,2.2,0.8,0.7,2v15.6
			C560.1,470,568.3,473.1,576.5,477z"/>
		<path class="st0" d="M619.9,500.1c-5.9,0-10.3-1.4-13.1-4.2c-2.1-2.1-3.2-6.3-3.2-12.4v-33.2h5.2c1.5,0.3,1.6,1,0.5,2v31.2
			c0,4.1,0.7,6.9,2.2,8.4c1.8,1.8,4.5,2.7,8.2,2.7c6.4,0,13-3.6,19.6-10.9l3.7,4.7C635.8,496.2,628.1,500.1,619.9,500.1z"/>
		<path class="st0" d="M703.8,495.9c-7.6-4.3-13.7-7-18.3-8.2c-0.2,4.3-1.2,7.3-3,9.2c-2.5,2.5-6,3.7-10.6,3.7c-4,0-6.9-1-8.9-3
			c-1.8-1.8-2.7-4-2.7-6.4c0-2.5,1.1-4.8,3.2-6.9c2-2,5.3-3,9.9-3c3,0,5.4,0.2,7.2,0.5c-0.5-8.9-1.2-19.8-2-32.7h5
			c1.5,0.3,1.6,1,0.5,2c0,2.6,0.2,6.7,0.5,12.1c4.5,0.2,10.7-0.3,18.8-1.5v5.2c-5.8,0.8-11.9,1.3-18.3,1.5c0.3,5,0.5,9.7,0.5,14.1
			c6.3,1.5,13.2,4.2,20.8,8.2L703.8,495.9z M673.6,485.7c-3.3,0-5.6,0.7-6.9,2c-1.2,1.2-1.7,2.3-1.7,3.5c0,1.2,0.4,2.2,1.2,3
			c1.2,1.2,3.1,1.7,5.9,1.7c2.6,0,4.5-0.6,5.7-1.7c1.6-1.6,2.5-4.2,2.5-7.7C677.8,486,675.6,485.7,673.6,485.7z"/>
		<path class="st0" d="M755.1,489.4c3.1-3.1,4.7-6.8,4.7-11.1c0-3-0.8-5.3-2.5-6.9c-1.5-1.5-3.4-2.1-5.7-2c-4.6,0.5-11.2,2.2-19.8,5
			l-2.7-6.4c6.3-1.2,12.1-2.4,17.6-3.7c2.8-0.7,5-1,6.4-1c3.6,0,6.6,1.2,8.9,3.5c2.6,2.6,4,6.4,4,11.4c0,6.4-2.2,11.9-6.7,16.3
			c-4,4-9.3,6.8-16.1,8.7l-4-5.7C746,495.9,751.3,493.2,755.1,489.4z M759.8,456.7c-6.6-0.7-14.6-2-24-4l1.5-6.2
			c9.2,2.2,17.2,3.6,23.8,4.2L759.8,456.7z"/>
		<path class="st0" d="M804.4,494.1c0,2.5-0.8,4.5-2.5,6.2c-1.7,1.6-3.7,2.5-6.2,2.5c-2.5,0-4.5-0.8-6.2-2.5
			c-1.7-1.7-2.5-3.7-2.5-6.2c0-2.5,0.8-4.5,2.5-6.2c1.6-1.6,3.7-2.5,6.2-2.5c2.5,0,4.5,0.8,6.2,2.5
			C803.5,489.6,804.4,491.7,804.4,494.1z M801.4,494.1c0-1.5-0.6-2.8-1.7-4c-1.2-1.2-2.5-1.7-4-1.7c-1.5,0-2.8,0.6-4,1.7
			c-1.2,1.2-1.7,2.5-1.7,4c0,1.5,0.6,2.8,1.7,4c1.2,1.2,2.5,1.7,4,1.7c1.5,0,2.8-0.6,4-1.7C800.8,496.9,801.4,495.6,801.4,494.1z"/>
	</g>
</g>
</svg>
