<svg xmlns="http://www.w3.org/2000/svg" viewBox="0 0 586.02 82.9"><defs><style>.cls-1{fill:#d9ff2d}.cls-2{stroke:#000;stroke-miterlimit:10;stroke-width:.24px}</style></defs><title>アセット 18</title><g id="レイヤー_2" data-name="レイヤー 2"><g id="文字"><path class="cls-1" d="M0 0H586.02V82.9H0z"/><path class="cls-2" d="M76.81 17.54a38.19 38.19 0 0 1 6 6.6l-1.25 1 4 1.95a2.12 2.12 0 0 1-1 .85c-4.4 18.7-13.1 29.35-29.5 35.7a41.59 41.59 0 0 0-4.3-5.25c15.4-5.25 23.3-15.35 25.8-27.3H47.31v-5.95h31.6a48.51 48.51 0 0 0-4.8-5.6zm11 7.75a39.29 39.29 0 0 0-5.7-6.75l2.75-2.2a36.37 36.37 0 0 1 5.9 6.7zm55.8 10.8h-9.85V38c0 10.45-3.55 19.55-15.75 25.35a34.86 34.86 0 0 0-4.6-4.35c11.5-5.15 14-12.75 14-21v-1.91h-12.3v11h-6.25v-11h-8.65v-6h8.65v-10.3l7.75.5a1.57 1.57 0 0 1-1.5 1.25v8.55h12.25V19.24l7.85.45c-.05.5-.5.95-1.45 1.15v9.25h9.85zm-7.05-15.15a31.56 31.56 0 0 1 5.1 6L139 29.09a34.42 34.42 0 0 0-5-6.2zm5.1-4.25a32.49 32.49 0 0 1 5.25 6.1l-2.55 2.05a34.33 34.33 0 0 0-5.2-6.15zm15.15 20.6h41.75v6.3h-39.65a2.42 2.42 0 0 1-1.7.95zm84.3 18.05a97.47 97.47 0 0 0 11-1c.1 2 .15 4.25.25 6.35a99.9 99.9 0 0 1-10.75.65h-11.2c-8.75 0-12.7-3.6-12.7-11.6V20.79l7.95.35c-.1.6-.45 1.05-1.55 1.15v14.85a141.14 141.14 0 0 0 21.75-9.2l4.25 5.95a1.9 1.9 0 0 1-.8.15 4.93 4.93 0 0 1-.85-.1A176.33 176.33 0 0 1 224.11 43v6.75c0 4.15 1.85 5.55 6.45 5.55zm5-36.35a39.62 39.62 0 0 1 5.65 7l-3 2.2a41.68 41.68 0 0 0-5.45-7zm6.95-2.4a40.73 40.73 0 0 1 5.7 6.8l-2.95 2.25a53.65 53.65 0 0 0-5.5-6.9zm15.75 20.7h41.75v6.3h-39.65a2.42 2.42 0 0 1-1.7.95zM363.86 28a1.71 1.71 0 0 1-.8.9 73.53 73.53 0 0 1-6.95 15.65c1.75 1.05 4.05 2.55 5.5 3.55L358 54.24a66.93 66.93 0 0 0-5.7-4.05 47.4 47.4 0 0 1-16.85 13.4 19.5 19.5 0 0 0-5-4.75 46 46 0 0 0 16.3-12 60.75 60.75 0 0 0-8.45-4.25l3.45-4.9a76.7 76.7 0 0 1 8.75 3.85 41.76 41.76 0 0 0 4.6-9.8h-13.8a56.94 56.94 0 0 1-10.75 12.55 38.37 38.37 0 0 0-5.2-4c7.05-5.15 12.25-13.25 15.2-21.65l8.05 1.75c-.2.55-.75.85-1.65.8a43.11 43.11 0 0 1-2.2 4.7h13.35l1.05-.3zm16.95 9.29h41.75v6.3h-39.65a2.42 2.42 0 0 1-1.7.95zm93.65.25a1.7 1.7 0 0 1-.5.05 2.19 2.19 0 0 1-1.15-.3c-15.05 4.05-26.25 9.45-26.2 14.8.05 3.75 3.95 5.25 10.85 5.25A118.66 118.66 0 0 0 475.21 56l.6 6.4c-5.75.75-15.35 1-18.2 1-9.8 0-17.5-2.4-17.5-11 0-5.25 4.7-9.65 12.1-13.65-1.85-3.6-2.4-9.15-2.35-19.95l8.9.7c-.05.75-.55 1.15-1.65 1.3-.05 1.45-.05 2.8-.05 4.05 0 4.95.3 8.65 1.15 11.05 4.25-1.9 9.05-3.7 14.15-5.45zm20.7 24.4c-1.4-3.85-2.05-12.25-2.05-19.1a125.24 125.24 0 0 1 2.55-22.65l7.85 1.5c-.1.5-.75.9-1.4 1A81.77 81.77 0 0 0 499.06 47a30.3 30.3 0 0 0 .15 4.1c.7-2 2.3-6.05 3.1-8l3.25 4.15a90.76 90.76 0 0 0-4.15 9.5 6.93 6.93 0 0 0-.5 2.65 8.62 8.62 0 0 0 .25 2.15zm13.3-30.85c3.65.15 7.35 0 11-.15-.2-3.9-.35-7.3-.4-11l8 .25a1.39 1.39 0 0 1-1.25 1.1v9.15a53.64 53.64 0 0 0 8.7-1.7l.5 6.1a44.29 44.29 0 0 1-9 1.4c.15 4.5.4 9.1.6 12.35a36.57 36.57 0 0 1 9.3 5.75l-3.25 5.9a26.14 26.14 0 0 0-5.85-4.75c-.65 6.35-5.25 7.4-9.5 7.4-6.15 0-9.85-3.35-9.85-8 0-5.25 4.85-8.15 9.95-8.15a21.41 21.41 0 0 1 3 .25c-.2-2.65-.4-6.65-.6-10.3-1.45.1-3.2.15-4.3.15h-6.95zm12.45 21.35a11.36 11.36 0 0 0-3.45-.6c-2.45 0-4.8.8-4.8 2.95 0 1.9 2.1 2.85 4.65 2.85s3.7-1.5 3.65-3.8c.04-.35.04-.95-.05-1.4z"/></g></g></svg>